<svg xmlns="http://www.w3.org/2000/svg" width="32" height="32" viewBox="0 0 32 32" fill="none">
    <g opacity="0.2">
        <path
            d="M26.6633 2.13379C27.512 2.13379 28.3259 2.47093 28.926 3.07105C29.5261 3.67116 29.8633 4.4851 29.8633 5.33379V21.3338C29.8633 23.597 28.9642 25.7675 27.3639 27.3678C25.7636 28.9681 23.5931 29.8671 21.3299 29.8671V27.7338C23.0273 27.7338 24.6552 27.0595 25.8554 25.8593C27.0557 24.659 27.7299 23.0312 27.7299 21.3338V14.9338H20.2633C19.4146 14.9338 18.6007 14.5966 18.0005 13.9965C17.4004 13.3964 17.0633 12.5825 17.0633 11.7338V5.33379C17.0633 4.4851 17.4004 3.67116 18.0005 3.07105C18.6007 2.47093 19.4146 2.13379 20.2633 2.13379H26.6633ZM11.7299 2.13379C12.5786 2.13379 13.3926 2.47093 13.9927 3.07105C14.5928 3.67116 14.9299 4.4851 14.9299 5.33379V21.3338C14.9299 23.597 14.0309 25.7675 12.4306 27.3678C10.8303 28.9681 8.65979 29.8671 6.39661 29.8671V27.7338C8.094 27.7338 9.72186 27.0595 10.9221 25.8593C12.1223 24.659 12.7966 23.0312 12.7966 21.3338V14.9338H5.32995C4.48125 14.9338 3.66732 14.5966 3.0672 13.9965C2.46709 13.3964 2.12995 12.5825 2.12995 11.7338V5.33379C2.12995 4.4851 2.46709 3.67116 3.0672 3.07105C3.66732 2.47093 4.48125 2.13379 5.32995 2.13379H11.7299Z"
            fill="#1F0303" />
    </g>
</svg>