<svg width="0" height="0" xmlns="http://www.w3.org/2000/svg">
    <symbol id="logo" viewBox="0 0 199 51">
       <path d="M2.84061 49.9639C4.4099 49.9639 5.3199 48.5772 5.3199 46.7531C5.3199 44.929 4.4099 43.5422 2.84061 43.5422C1.27133 43.5422 0.361328 44.929 0.361328 46.7531C0.361328 48.5772 1.27133 49.9639 2.84061 49.9639ZM2.84061 49.0426C1.91204 49.0426 1.41061 48.0374 1.41061 46.7531C1.41061 45.4501 1.91204 44.4543 2.84061 44.4543C3.7599 44.4543 4.27061 45.4501 4.27061 46.7531C4.27061 48.0374 3.7599 49.0426 2.84061 49.0426ZM8.52633 49.9639C10.0956 49.9639 11.0056 48.5772 11.0056 46.7531C11.0056 44.929 10.0956 43.5422 8.52633 43.5422C6.95704 43.5422 6.04704 44.929 6.04704 46.7531C6.04704 48.5772 6.95704 49.9639 8.52633 49.9639ZM8.52633 49.0426C7.59776 49.0426 7.09633 48.0374 7.09633 46.7531C7.09633 45.4501 7.59776 44.4543 8.52633 44.4543C9.44561 44.4543 9.95633 45.4501 9.95633 46.7531C9.95633 48.0374 9.44561 49.0426 8.52633 49.0426ZM14.212 49.9639C15.7813 49.9639 16.6906 48.5772 16.6906 46.7531C16.6906 44.929 15.7813 43.5422 14.212 43.5422C12.6428 43.5422 11.7328 44.929 11.7328 46.7531C11.7328 48.5772 12.6428 49.9639 14.2113 49.9639H14.212ZM14.212 49.0426C13.2835 49.0426 12.782 48.0374 12.782 46.7531C12.782 45.4501 13.2835 44.4543 14.212 44.4543C15.1313 44.4543 15.642 45.4501 15.642 46.7531C15.642 48.0374 15.1313 49.0426 14.212 49.0426ZM22.6828 49.2659L21.522 47.5907L22.6828 45.9434H21.8749L20.7135 47.5907L21.8742 49.2659H22.6828ZM21.2713 49.2659L20.1106 47.5907L21.2713 45.9434H20.4635L19.3028 47.5907L20.4635 49.2659H21.2713ZM23.1735 50.997H24.1949V49.8523H27.3978V50.997H28.4292V48.9402H27.8806V43.6446H24.4735L24.1849 46.8089C24.0085 48.7913 23.7113 48.9588 23.1728 49.0426L23.1735 50.997ZM25.2063 46.8834L25.4113 44.5474H26.8506V48.9402H24.5106C24.8628 48.54 25.1135 47.8885 25.2063 46.8834ZM31.4049 49.9639C32.9742 49.9639 33.8842 48.5772 33.8842 46.7531C33.8842 44.929 32.9742 43.5422 31.4056 43.5422C29.837 43.5422 28.9256 44.929 28.9256 46.7531C28.9256 48.5772 29.8356 49.9639 31.4049 49.9639ZM31.4049 49.0426C30.4763 49.0426 29.9749 48.0374 29.9749 46.7531C29.9749 45.4501 30.4763 44.4543 31.4049 44.4543C32.3242 44.4543 32.8349 45.4501 32.8349 46.7531C32.8349 48.0374 32.3242 49.0426 31.4049 49.0426ZM35.8742 49.8523V47.5069H36.9513C38.1678 47.5069 38.7806 46.6135 38.7806 45.5711C38.7806 44.5381 38.1678 43.6446 36.952 43.6446H34.8435V49.8523H35.8742ZM36.8313 46.5949H35.8742V44.5474H36.8313C37.3785 44.5474 37.7313 44.9569 37.7313 45.5711C37.7313 46.1854 37.3785 46.5949 36.8313 46.5949ZM41.8513 49.9639C43.4206 49.9639 44.3306 48.5772 44.3306 46.7531C44.3306 44.929 43.4206 43.5422 41.852 43.5422C40.2835 43.5422 39.372 44.929 39.372 46.7531C39.372 48.5772 40.282 49.9639 41.8513 49.9639ZM41.8513 49.0426C40.9228 49.0426 40.4213 48.0374 40.4213 46.7531C40.4213 45.4501 40.9228 44.4543 41.8513 44.4543C42.7706 44.4543 43.2813 45.4501 43.2813 46.7531C43.2813 48.0374 42.7706 49.0426 41.8513 49.0426ZM45.7685 49.8523L47.3656 47.2929L47.5799 47.6186V49.8523H48.6013V47.6186L48.8142 47.2929L50.4113 49.8523H51.6278L49.4549 46.5763L51.4792 43.6446H50.272L48.6006 46.2412V43.6446H47.5792V46.2412L45.9078 43.6446H44.7006L46.7249 46.5763L44.552 49.8523H45.7685ZM56.6178 49.8523V43.6446H55.587V46.204H53.3213V43.6446H52.2906V49.8523H53.3213V47.1161H55.587V49.8523H56.6178ZM60.042 49.9639C61.6113 49.9639 62.5213 48.5772 62.5213 46.7531C62.5213 44.929 61.6113 43.5422 60.042 43.5422C58.4728 43.5422 57.5628 44.929 57.5628 46.7531C57.5628 48.5772 58.4728 49.9639 60.042 49.9639ZM60.042 49.0426C59.1135 49.0426 58.612 48.0374 58.612 46.7531C58.612 45.4501 59.1135 44.4543 60.042 44.4543C60.9613 44.4543 61.472 45.4501 61.472 46.7531C61.472 48.0374 60.9613 49.0426 60.042 49.0426ZM65.1056 48.0002V47.1998H63.1649V48.0002H65.1056ZM68.0356 49.8523V44.5474H69.457V43.6446H65.5935V44.5474H67.0149V49.8523H68.0356ZM71.2942 49.8523V47.5069H72.3713C73.5878 47.5069 74.2006 46.6135 74.2006 45.5711C74.2006 44.5381 73.5878 43.6446 72.3713 43.6446H70.2642V49.8523H71.2942ZM72.2506 46.5949H71.2942V44.5474H72.2506C72.7985 44.5474 73.1513 44.9569 73.1513 45.5711C73.1513 46.1854 72.7985 46.5949 72.2506 46.5949ZM78.9078 49.8523L77.0599 43.6446H75.8249L73.977 49.8523H75.0913L75.4256 48.6238H77.4592L77.7935 49.8523H78.9078ZM77.2549 47.7117H75.6392L76.447 44.7428L77.2549 47.7117ZM83.8585 49.8523V43.6446H82.8278V46.204H80.562V43.6446H79.5313V49.8523H80.562V47.1161H82.8278V49.8523H83.8585ZM87.3292 49.9639C88.4249 49.9639 88.982 49.238 89.2978 48.5121L88.4435 48.1305C88.2485 48.6517 87.8678 49.0426 87.3292 49.0426C86.4192 49.0426 85.8528 48.0747 85.8528 46.7531C85.8528 45.4222 86.4192 44.4543 87.3292 44.4543C87.8399 44.4543 88.2206 44.7987 88.4342 45.2919L89.2885 44.9103C88.9635 44.2216 88.4063 43.5422 87.3292 43.5422C85.7785 43.5422 84.8035 44.8824 84.8035 46.7531C84.8035 48.6145 85.7785 49.9639 87.3292 49.9639ZM94.4406 49.8523V43.6446H90.1135V49.8523H91.1442V44.5474H93.4099V49.8523H94.4406ZM97.8649 49.9639C99.4342 49.9639 100.344 48.5772 100.344 46.7531C100.344 44.929 99.4342 43.5422 97.8649 43.5422C96.2956 43.5422 95.3856 44.929 95.3856 46.7531C95.3856 48.5772 96.2956 49.9639 97.8649 49.9639ZM97.8649 49.0426C96.9363 49.0426 96.4349 48.0374 96.4349 46.7531C96.4349 45.4501 96.9363 44.4543 97.8649 44.4543C98.7842 44.4543 99.2949 45.4501 99.2949 46.7531C99.2949 48.0374 98.7842 49.0426 97.8649 49.0426ZM102.334 49.8523V47.5069H103.411C104.628 47.5069 105.241 46.6135 105.241 45.5711C105.241 44.5381 104.628 43.6446 103.411 43.6446H101.303V49.8523H102.334ZM103.291 46.5949H102.334V44.5474H103.291C103.838 44.5474 104.191 44.9569 104.191 45.5711C104.191 46.1854 103.838 46.5949 103.291 46.5949ZM108.126 49.8523V44.5474H109.546V43.6446H105.683V44.5474H107.104V49.8523H108.126ZM114.681 49.8523V43.6446H113.65V46.204H111.384V43.6446H110.353V49.8523H111.384V47.1161H113.65V49.8523H114.681ZM120.213 49.8523L118.365 43.6446H117.13L115.282 49.8523H116.396L116.731 48.6238H118.764L119.098 49.8523H120.213ZM118.56 47.7117H116.944L117.752 44.7428L118.56 47.7117ZM121.756 49.8523L122.814 47.5069H123.576V49.8523H124.597V43.6446H122.471C121.393 43.6446 120.66 44.4171 120.66 45.5618C120.66 46.6507 121.254 47.1812 121.811 47.3301L120.613 49.8523H121.756ZM122.61 46.5949C122.062 46.5949 121.718 46.1854 121.718 45.5711C121.718 44.9569 122.062 44.5474 122.61 44.5474H123.576V46.5949H122.61ZM132.063 49.8523L129.891 46.5763L131.915 43.6446H130.708L128.786 46.6321V43.6446H127.755V49.8523H128.786V48.0002L129.25 47.2929L130.847 49.8523H132.063ZM134.627 49.9639C136.196 49.9639 137.106 48.5772 137.106 46.7531C137.106 44.929 136.196 43.5422 134.627 43.5422C133.058 43.5422 132.148 44.929 132.148 46.7531C132.148 48.5772 133.058 49.9639 134.627 49.9639ZM134.627 49.0426C133.698 49.0426 133.197 48.0374 133.197 46.7531C133.197 45.4501 133.698 44.4543 134.627 44.4543C135.546 44.4543 136.057 45.4501 136.057 46.7531C136.057 48.0374 135.546 49.0426 134.627 49.0426ZM143.507 49.8523V43.6446H142.123L140.786 47.4232L139.458 43.6446H138.066V49.8523H139.096V45.5711L140.582 49.8523H140.981L142.486 45.5711V49.8523H143.507ZM149.013 49.8523V43.6446H144.686V49.8523H145.716V44.5474H147.982V49.8523H149.013ZM154.545 49.8523L152.697 43.6446H151.462L149.614 49.8523H150.728L151.063 48.6238H153.096L153.431 49.8523H154.545ZM152.892 47.7117H151.276L152.084 44.7428L152.892 47.7117ZM159.495 49.8523V43.6446H158.464V46.204H156.198V43.6446H155.168V49.8523H156.198V47.1161H158.464V49.8523H159.495ZM161.656 49.8523L163.959 45.7014V49.8523H164.981V43.6446H163.941L161.703 47.6838V43.6446H160.672V49.8523H161.656ZM167.087 49.8523L168.146 47.5069H168.907V49.8523H169.928V43.6446H167.802C166.725 43.6446 165.991 44.4171 165.991 45.5618C165.991 46.6507 166.586 47.1812 167.143 47.3301L165.945 49.8523H167.087ZM167.941 46.5949C167.393 46.5949 167.05 46.1854 167.05 45.5711C167.05 44.9569 167.393 44.5474 167.941 44.5474H168.907V46.5949H167.941ZM174.006 49.8523L175.064 47.5069H175.826V49.8523H176.847V43.6446H174.721C173.643 43.6446 172.91 44.4171 172.91 45.5618C172.91 46.6507 173.504 47.1812 174.061 47.3301L172.863 49.8523H174.006ZM174.86 46.5949C174.312 46.5949 173.968 46.1854 173.968 45.5711C173.968 44.9569 174.312 44.5474 174.86 44.5474H175.826V46.5949H174.86ZM183.479 49.8523V43.6446H182.096L180.758 47.4232L179.431 43.6446H178.038V49.8523H179.068V45.5711L180.554 49.8523H180.953L182.458 45.5711V49.8523H183.479ZM189.012 49.8523L187.164 43.6446H185.929L184.081 49.8523H185.196L185.53 48.6238H187.563L187.898 49.8523H189.012ZM187.359 47.7117H185.743L186.551 44.7428L187.359 47.7117ZM189.264 49.9639C190.323 49.9639 191.047 49.5638 191.279 46.9765L191.493 44.5474H192.932V49.8523H193.963V43.6446H190.555L190.267 46.902C190.091 48.7913 189.812 49.0426 189.264 49.0426V49.9639ZM196.793 47.5907L195.632 45.9434H194.824L195.985 47.5907L194.824 49.2659H195.632L196.793 47.5907ZM198.204 47.5907L197.043 45.9434H196.236L197.396 47.5907L196.236 49.2659H197.043L198.204 47.5907Z"/>
       <path d="M0.808594 36.0702H8.09859V30.5227H20.7886V36.0702H28.0786V24.1632H25.6936V0.439453H6.65859L5.17359 16.0899C4.49859 23.3965 3.10359 24.2535 0.808594 24.6143V36.0702ZM12.4636 15.8193L13.2736 6.79887H18.4036V24.1632H9.58359C11.0686 22.3592 12.1486 19.6981 12.4636 15.8193ZM43.2757 30.5227V6.79887H49.6657V0.439453H29.5515V6.79887H35.9857V30.5227H43.2757ZM76.7243 30.5227L66.7343 14.5114L76.1393 0.439453H67.6793L60.2543 13.1583V0.439453H52.9643V30.5227H60.2543V22.6749L62.1443 19.5177L68.13 30.5227H76.7243ZM95.185 30.5227L99.19 20.1942H101.89V30.5227H109.135V0.439453H96.94C91.09 0.439453 87.31 4.67907 87.31 10.2266C87.31 15.3232 89.965 17.894 92.17 18.8863L87.13 30.5227H95.185ZM98.065 13.8348C96.13 13.8348 94.735 12.5269 94.735 10.3168C94.735 8.10684 96.13 6.79887 98.065 6.79887H101.89V13.8348H98.065ZM143.436 30.5227V0.439453H133.851L128.721 15.4585L123.636 0.439453H113.961V30.5227H121.251V12.6622L127.281 30.5227H130.116L136.191 12.6622V30.5227H143.436ZM171.999 30.5227L163.134 0.439453H154.359L145.494 30.5227H153.369L154.494 25.9222H162.999L164.124 30.5227H171.999ZM161.559 19.5628H155.934L158.769 8.01663L161.559 19.5628ZM172.503 31.0639C178.443 31.0639 183.033 28.7637 184.113 16.5861L184.968 6.79887H190.098V30.5227H197.388V0.439453H178.353L176.868 16.2252C176.193 23.3965 174.798 24.6143 172.503 24.6143V31.0639Z"  fill="#D91B1B"/>
    </symbol>
    <symbol id="telephone" viewBox="0 0 16 17">
        <path d="M5.97463 5.10138L2.78121 1.90633L3.15812 1.53257C3.64518 1.04513 4.49624 1.04513 4.9833 1.53257L6.3481 2.89843C6.59249 3.14302 6.72674 3.46769 6.72674 3.81217C6.72674 4.15665 6.59249 4.48132 6.34982 4.72504L5.97463 5.10138ZM11.7643 10.1446C12.2513 9.65713 13.1024 9.65713 13.5895 10.1446L14.9543 11.5104C15.1978 11.755 15.332 12.0797 15.332 12.4242C15.332 12.7686 15.1978 13.0933 14.9525 13.3388L14.5765 13.7108L11.3899 10.5218L11.7643 10.1446ZM1.61777 3.07412L1.9224 2.76925L5.11324 5.96258L4.5539 6.5215C4.51383 6.5615 4.48204 6.60902 4.46035 6.66133C4.43866 6.71365 4.42749 6.76973 4.42749 6.82637C4.42749 6.88301 4.43866 6.93909 4.46035 6.9914C4.48204 7.04372 4.51383 7.09123 4.5539 7.13123L9.36082 11.9419C9.44288 12.02 9.55178 12.0635 9.66501 12.0635C9.77825 12.0635 9.88715 12.02 9.96921 11.9419L10.5286 11.3821L13.7142 14.5772L13.4096 14.882C13.1859 15.1059 12.3374 15.8337 10.7798 15.8337C9.38921 15.8337 7.11742 15.2205 4.19678 12.2984C-1.63159 6.4638 1.47923 3.21277 1.61777 3.07412Z" />
    </symbol>
    <symbol id="telephone-2" viewBox="0 0 24 24">
        <path d="M16.5569 12.906L16.1019 13.359C16.1019 13.359 15.0189 14.435 12.0639 11.497C9.10886 8.55898 10.1919 7.48298 10.1919 7.48298L10.4779 7.19698C11.1849 6.49498 11.2519 5.36698 10.6349 4.54298L9.37486 2.85998C8.61086 1.83998 7.13586 1.70498 6.26086 2.57498L4.69086 4.13498C4.25786 4.56698 3.96786 5.12498 4.00286 5.74498C4.09286 7.33198 4.81086 10.745 8.81486 14.727C13.0619 18.949 17.0469 19.117 18.6759 18.965C19.1919 18.917 19.6399 18.655 20.0009 18.295L21.4209 16.883C22.3809 15.93 22.1109 14.295 20.8829 13.628L18.9729 12.589C18.1669 12.151 17.1869 12.28 16.5569 12.906Z" />
    </symbol>
    <symbol id="mail" viewBox="0 0 16 17">
        <path d="M14.6654 6.23899V11.667C14.6654 12.2204 14.4537 12.7529 14.0736 13.1551C13.6935 13.5574 13.1739 13.799 12.6214 13.8303L12.4987 13.8337H3.4987C2.94527 13.8337 2.41281 13.622 2.01054 13.2419C1.60828 12.8618 1.3667 12.3422 1.33536 11.7897L1.33203 11.667V6.23899L7.7667 9.60966C7.83828 9.64715 7.91789 9.66674 7.9987 9.66674C8.07951 9.66674 8.15911 9.64715 8.2307 9.60966L14.6654 6.23899ZM3.4987 3.16699H12.4987C13.0358 3.16693 13.5537 3.36632 13.9521 3.7265C14.3504 4.08668 14.6008 4.58198 14.6547 5.11633L7.9987 8.60299L1.3427 5.11633C1.39438 4.6032 1.6274 4.12534 1.99986 3.76863C2.37233 3.41193 2.85982 3.19978 3.3747 3.17033L3.4987 3.16699Z" />
    </symbol>
    <symbol id="phone" viewBox="0 0 16 17">
        <path d="M8 2.5C4.97333 2.5 2.22667 3.68667 0.193333 5.61334C0.0733333 5.73334 0 5.9 0 6.08667C0 6.27334 0.0733333 6.44 0.193333 6.56L1.84667 8.21333C1.97154 8.3368 2.13971 8.4066 2.31531 8.40785C2.49091 8.40909 2.66005 8.34169 2.78667 8.22C3.31333 7.72667 3.91333 7.31333 4.56 6.98667C4.78 6.88 4.93333 6.65334 4.93333 6.38667V4.32C5.9 4 6.92667 3.83334 8 3.83334C9.06 3.83334 10.0933 4 11.06 4.31334V6.38C11.06 6.64 11.2133 6.87334 11.4333 6.98C12.0867 7.30667 12.6667 7.72667 13.2133 8.21333C13.3333 8.33333 13.5 8.4 13.6667 8.4C13.8667 8.4 14.0333 8.32667 14.1533 8.20667L15.8067 6.55334C15.9267 6.43334 16 6.26667 16 6.08C16 5.89334 15.92 5.73334 15.8 5.61334C13.696 3.61291 10.9032 2.4982 8 2.5ZM6 5.16667V7.16667C6 7.16667 2 10.5 2 12.5V15.1667H14V12.5C14 10.5 10 7.16667 10 7.16667V5.16667H8.66667V6.5H7.33333V5.16667H6ZM8 8.5C8.70724 8.5 9.38552 8.78095 9.88562 9.28105C10.3857 9.78115 10.6667 10.4594 10.6667 11.1667C10.6667 11.8739 10.3857 12.5522 9.88562 13.0523C9.38552 13.5524 8.70724 13.8333 8 13.8333C7.29276 13.8333 6.61448 13.5524 6.11438 13.0523C5.61428 12.5522 5.33333 11.8739 5.33333 11.1667C5.33333 10.4594 5.61428 9.78115 6.11438 9.28105C6.61448 8.78095 7.29276 8.5 8 8.5ZM8 9.5C7.55797 9.5 7.13405 9.6756 6.82149 9.98816C6.50893 10.3007 6.33333 10.7246 6.33333 11.1667C6.33333 11.6087 6.50893 12.0326 6.82149 12.3452C7.13405 12.6577 7.55797 12.8333 8 12.8333C8.44203 12.8333 8.86595 12.6577 9.17851 12.3452C9.49107 12.0326 9.66667 11.6087 9.66667 11.1667C9.66667 10.7246 9.49107 10.3007 9.17851 9.98816C8.86595 9.6756 8.44203 9.5 8 9.5Z" />
    </symbol>
    <symbol id="address" viewBox="0 0 24 24">
        <path  d="M12 11.5C11.337 11.5 10.7011 11.2366 10.2322 10.7678C9.76339 10.2989 9.5 9.66304 9.5 9C9.5 8.33696 9.76339 7.70107 10.2322 7.23223C10.7011 6.76339 11.337 6.5 12 6.5C12.663 6.5 13.2989 6.76339 13.7678 7.23223C14.2366 7.70107 14.5 8.33696 14.5 9C14.5 9.3283 14.4353 9.65339 14.3097 9.95671C14.1841 10.26 13.9999 10.5356 13.7678 10.7678C13.5356 10.9999 13.26 11.1841 12.9567 11.3097C12.6534 11.4353 12.3283 11.5 12 11.5ZM12 2C10.1435 2 8.36301 2.7375 7.05025 4.05025C5.7375 5.36301 5 7.14348 5 9C5 14.25 12 22 12 22C12 22 19 14.25 19 9C19 7.14348 18.2625 5.36301 16.9497 4.05025C15.637 2.7375 13.8565 2 12 2Z" />
    </symbol>
    <symbol id="star" viewBox="0 0 16 15">
        <path d="M8 0L9.79611 5.52786H15.6085L10.9062 8.94427L12.7023 14.4721L8 11.0557L3.29772 14.4721L5.09383 8.94427L0.391548 5.52786H6.20389L8 0Z" />
    </symbol>
    <symbol id="omni" viewBox="0 0 59 19">
        <g clip-path="url(#clip0_854_19967)">
            <path fill-rule="evenodd" clip-rule="evenodd"
                d="M9.0005 3.71741H10.46V5.20446H9.0005V3.71741ZM9.0005 6.52723V8.01322H7.54206V10.9873H9.0005V12.3093V13.7962H10.46V12.3093H17.5959V13.7958H14.8392V15.2829H17.5959V13.7962H19.0555V10.9873H20.5139V8.01322H19.0555H19.0548V6.52723H17.597V5.20501H16.1375V6.52723H11.9184V5.20501H10.4589V6.52723H9.0005ZM17.5959 9.49919V8.0143H16.1353V9.49919H17.5959ZM11.9189 8.0143V9.49919H10.46V8.0143H11.9189ZM7.54152 9.49919H6.08203V13.7952H7.54152V9.49919ZM13.2175 15.2829V13.7958H10.4607V15.2829H13.2175ZM19.0555 3.71741H17.5959V5.20446H19.0555V3.71741ZM21.9755 9.49919H20.516V13.7952H21.9755V9.49919Z" />
        </g>
        <path
            d="M33.1188 9.49996C33.1188 10.3237 32.9728 11.0356 32.6808 11.6356C32.3889 12.2356 31.9884 12.6983 31.4794 13.0237C30.9703 13.3492 30.3889 13.5119 29.7352 13.5119C29.0814 13.5119 28.5 13.3492 27.991 13.0237C27.4819 12.6983 27.0814 12.2356 26.7895 11.6356C26.4975 11.0356 26.3516 10.3237 26.3516 9.49996C26.3516 8.67622 26.4975 7.96434 26.7895 7.36433C27.0814 6.76433 27.4819 6.30161 27.991 5.97618C28.5 5.65075 29.0814 5.48804 29.7352 5.48804C30.3889 5.48804 30.9703 5.65075 31.4794 5.97618C31.9884 6.30161 32.3889 6.76433 32.6808 7.36433C32.9728 7.96434 33.1188 8.67622 33.1188 9.49996ZM32.2205 9.49996C32.2205 8.82368 32.1094 8.25291 31.8873 7.78765C31.6677 7.32238 31.3696 6.97026 30.9928 6.73127C30.6185 6.49229 30.1993 6.3728 29.7352 6.3728C29.271 6.3728 28.8506 6.49229 28.4738 6.73127C28.0995 6.97026 27.8013 7.32238 27.5792 7.78765C27.3597 8.25291 27.2499 8.82368 27.2499 9.49996C27.2499 10.1762 27.3597 10.747 27.5792 11.2123C27.8013 11.6775 28.0995 12.0297 28.4738 12.2686C28.8506 12.5076 29.271 12.6271 29.7352 12.6271C30.1993 12.6271 30.6185 12.5076 30.9928 12.2686C31.3696 12.0297 31.6677 11.6775 31.8873 11.2123C32.1094 10.747 32.2205 10.1762 32.2205 9.49996Z" />
        <path
            d="M34.6795 5.59482H35.7875L38.3925 12.078H38.4823L41.0874 5.59482H42.1953V13.4051H41.327V7.47112H41.2521L38.8566 13.4051H38.0182L35.6228 7.47112H35.5479V13.4051H34.6795V5.59482Z" />
        <path
            d="M50.135 5.59482V13.4051H49.2367L45.0596 7.27281H44.9847V13.4051H44.0565V5.59482H44.9548L49.1469 11.7424H49.2217V5.59482H50.135Z" />
        <path d="M52.9206 5.59482V13.4051H51.9924V5.59482H52.9206Z" />
        <defs>
            <clipPath id="clip0_854_19967">
                <rect width="16.2155" height="11.5652" fill="white"
                    transform="translate(6.08203 3.71741)" />
            </clipPath>
        </defs>
    </symbol>
    <symbol id="vk" viewBox="0 0 40 40">
       <path d="M20.9825 27C13.466 27 9.17864 21.7447 9 13H12.7651C12.8888 19.4184 15.6646 22.1371 17.8632 22.6977V13H21.4085V18.5355C23.5796 18.2973 25.8607 15.7748 26.6302 13H30.1755C29.8855 14.4391 29.3075 15.8017 28.4776 17.0025C27.6477 18.2033 26.5837 19.2166 25.3523 19.979C26.7269 20.6756 27.941 21.6615 28.9145 22.8717C29.888 24.082 30.5988 25.489 31 27H27.0974C26.7373 25.6876 26.0054 24.5128 24.9934 23.6228C23.9814 22.7328 22.7343 22.1673 21.4085 21.997V27H20.9825Z"/>
    </symbol>
    <symbol id="ok" viewBox="0 0 40 40">
        <path d="M26.2376 22.7928C26.7624 22.2681 26.8373 21.5185 26.3876 20.7689C26.0128 20.1692 25.3381 19.8694 24.5885 20.0193C24.2887 20.0942 23.9888 20.2442 23.689 20.469C21.3652 22.0432 18.2168 21.9683 15.893 20.3941C15.7431 20.3191 15.5932 20.2442 15.4433 20.1692C14.6187 19.7944 13.7941 19.9443 13.3444 20.6939C12.8196 21.4435 12.8946 22.2681 13.5692 22.9428C13.7192 23.0927 13.8691 23.1676 13.944 23.3176L14.019 23.3925C15.0685 24.2171 16.3428 24.7418 17.9919 24.9667L17.0174 25.9412C16.1929 26.7658 15.2933 27.6653 14.4688 28.4899C14.2439 28.7148 13.944 29.0896 13.944 29.6143C13.944 30.2889 14.3188 30.9636 14.9935 31.2634C15.2184 31.4133 15.4433 31.4133 15.6681 31.4133C16.0429 31.4133 16.4927 31.2634 16.7926 30.8886C17.917 29.7642 18.8165 28.8647 19.716 27.9651C19.791 27.8902 19.791 27.8902 19.791 27.8902C19.791 27.8902 19.866 27.8902 19.866 27.9651C20.4656 28.6398 21.1403 29.2395 21.74 29.9141C22.0398 30.214 22.3397 30.5138 22.6395 30.8137C23.0143 31.1885 23.3142 31.3384 23.7639 31.3384C24.4386 31.4134 25.1882 30.9636 25.488 30.2889C25.7879 29.6892 25.638 28.9396 25.1132 28.4899C24.3636 27.7403 23.614 26.9157 22.7894 26.1661L21.5151 24.8917C22.1898 24.8168 22.9394 24.6669 23.614 24.367C24.7384 23.9922 25.563 23.4675 26.2376 22.7928Z"/>
        <path d="M19.791 20.6939C23.0143 20.6939 25.638 18.1452 25.638 14.9219C25.638 13.3477 25.0383 11.8485 23.9138 10.7241C22.7894 9.59969 21.3652 9 19.866 9C16.6426 9 14.094 11.6236 14.019 14.772C14.019 16.3462 14.6187 17.7704 15.7431 18.8948C16.7926 20.0942 18.2168 20.6939 19.791 20.6939ZM18.1419 13.1978C18.5916 12.7481 19.1913 12.5232 19.791 12.5232C21.1403 12.5232 22.1148 13.5726 22.1148 14.847C22.1148 16.1963 21.0653 17.1707 19.791 17.1707C18.4417 17.1707 17.4672 16.1213 17.4672 14.847C17.4672 14.2473 17.6921 13.6476 18.1419 13.1978Z"/>
        <path d="M26.2376 22.7928C26.7624 22.2681 26.8373 21.5185 26.3876 20.7689C26.0128 20.1692 25.3381 19.8694 24.5885 20.0193C24.2887 20.0942 23.9888 20.2442 23.689 20.469C21.3652 22.0432 18.2168 21.9683 15.893 20.3941C15.7431 20.3191 15.5932 20.2442 15.4433 20.1692C14.6187 19.7944 13.7941 19.9443 13.3444 20.6939C12.8196 21.4435 12.8946 22.2681 13.5692 22.9428C13.7192 23.0927 13.8691 23.1676 13.944 23.3176L14.019 23.3925C15.0685 24.2171 16.3428 24.7418 17.9919 24.9667L17.0174 25.9412C16.1929 26.7658 15.2933 27.6653 14.4688 28.4899C14.2439 28.7148 13.944 29.0896 13.944 29.6143C13.944 30.2889 14.3188 30.9636 14.9935 31.2634C15.2184 31.4133 15.4433 31.4133 15.6681 31.4133C16.0429 31.4133 16.4927 31.2634 16.7926 30.8886C17.917 29.7642 18.8165 28.8647 19.716 27.9651C19.791 27.8902 19.791 27.8902 19.791 27.8902C19.791 27.8902 19.866 27.8902 19.866 27.9651C20.4656 28.6398 21.1403 29.2395 21.74 29.9141C22.0398 30.214 22.3397 30.5138 22.6395 30.8137C23.0143 31.1885 23.3142 31.3384 23.7639 31.3384C24.4386 31.4134 25.1882 30.9636 25.488 30.2889C25.7879 29.6892 25.638 28.9396 25.1132 28.4899C24.3636 27.7403 23.614 26.9157 22.7894 26.1661L21.5151 24.8917C22.1898 24.8168 22.9394 24.6669 23.614 24.367C24.7384 23.9922 25.563 23.4675 26.2376 22.7928Z"/>
    </symbol>
    <symbol id="telegram" viewBox="0 0 40 40">
        <path d="M28 12.6022L24.9946 28.2923C24.9946 28.2923 24.5741 29.3801 23.4189 28.8584L16.4846 23.3526L16.4524 23.3364C17.3891 22.4654 24.6524 15.7027 24.9698 15.3961C25.4613 14.9214 25.1562 14.6387 24.5856 14.9974L13.8568 22.053L9.71764 20.6108C9.71764 20.6108 9.06626 20.3708 9.00359 19.8491C8.9401 19.3265 9.73908 19.0439 9.73908 19.0439L26.6131 12.1889C26.6131 12.1889 28 11.5579 28 12.6022Z"/>
    </symbol>
    <symbol id="viber" viewBox="0 0 40 40">
        <path d="M26.2539 9.54591C22.4424 8.81803 18.4843 8.81803 14.6728 9.54591C12.9869 9.90986 10.8613 11.9479 10.4948 13.5493C9.83508 16.6792 9.83508 19.8819 10.4948 23.0118C10.9346 24.6131 13.0602 26.6512 14.6728 27.0152C14.7461 27.0152 14.8194 27.0879 14.8194 27.1607V31.7464C14.8194 31.9648 15.1126 32.1103 15.2592 31.892L17.4581 29.6355C17.4581 29.6355 19.2173 27.8158 19.5105 27.5247C19.5105 27.5247 19.5838 27.4519 19.6571 27.4519C21.856 27.5247 24.1283 27.3063 26.3272 26.9424C28.0131 26.5784 30.1387 24.5403 30.5052 22.939C31.1649 19.8091 31.1649 16.6064 30.5052 13.4765C30.0654 11.9479 27.9398 9.90986 26.2539 9.54591ZM26.3272 23.2302C25.9607 23.958 25.5209 24.5403 24.788 24.9043C24.5681 24.9771 24.3482 25.0499 24.1283 25.1227C23.8351 25.0499 23.6152 24.9771 23.3953 24.9043C21.0497 23.958 18.8508 22.6478 17.0916 20.7553C16.1387 19.6635 15.3325 18.4261 14.6728 17.1159C14.3796 16.4608 14.0864 15.8785 13.8665 15.2234C13.6466 14.6411 14.0131 14.0588 14.3796 13.6221C14.7461 13.1853 15.1859 12.8942 15.699 12.6758C16.0654 12.4575 16.4319 12.603 16.7251 12.8942C17.3115 13.6221 17.8979 14.35 18.3377 15.1506C18.6309 15.6601 18.5576 16.2425 18.0445 16.6064C17.8979 16.6792 17.8246 16.752 17.678 16.8976C17.6047 16.9703 17.4581 17.0431 17.3848 17.1887C17.2382 17.4071 17.2382 17.6254 17.3115 17.8438C17.8979 19.5179 18.9974 20.8281 20.6832 21.556C20.9764 21.7016 21.1963 21.7744 21.5628 21.7744C22.0759 21.7016 22.2958 21.1193 22.6623 20.8281C23.0288 20.537 23.4686 20.537 23.9084 20.7553C24.2749 20.9737 24.6414 21.2649 25.0811 21.556C25.4476 21.8472 25.8141 22.0655 26.1806 22.3567C26.4005 22.5023 26.4738 22.8662 26.3272 23.2302ZM23.2487 17.771C23.1021 17.771 23.1754 17.771 23.2487 17.771C22.9555 17.771 22.8822 17.6254 22.8089 17.4071C22.8089 17.2615 22.8089 17.0431 22.7356 16.8976C22.6623 16.6064 22.5157 16.3152 22.2225 16.0969C22.0759 16.0241 21.9293 15.9513 21.7827 15.8785C21.5628 15.8057 21.4162 15.8057 21.1963 15.8057C20.9764 15.7329 20.9031 15.5874 20.9031 15.369C20.9031 15.2234 21.123 15.0778 21.2696 15.0778C22.4424 15.1506 23.322 15.8057 23.4686 17.1887C23.4686 17.2615 23.4686 17.4071 23.4686 17.4799C23.4686 17.6254 23.3953 17.771 23.2487 17.771ZM22.5157 14.5683C22.1492 14.4227 21.7827 14.2772 21.3429 14.2044C21.1963 14.2044 20.9764 14.1316 20.8298 14.1316C20.6099 14.1316 20.4634 13.986 20.5366 13.7676C20.5366 13.5493 20.6832 13.4037 20.9031 13.4765C21.6361 13.5493 22.2958 13.6949 22.9555 13.986C24.2749 14.6411 25.0079 15.7329 25.2277 17.1887C25.2277 17.2615 25.2277 17.3343 25.2277 17.4071C25.2277 17.5526 25.2277 17.6982 25.2277 17.9166C25.2277 17.9894 25.2277 18.0622 25.2277 18.135C25.1545 18.4261 24.6414 18.4989 24.5681 18.135C24.5681 18.0622 24.4948 17.9166 24.4948 17.8438C24.4948 17.1887 24.3482 16.5336 24.055 15.9513C23.6152 15.2962 23.1021 14.8595 22.5157 14.5683ZM26.4738 18.9356C26.2539 18.9356 26.1073 18.7173 26.1073 18.4989C26.1073 18.0622 26.034 17.6254 25.9607 17.1887C25.6675 14.8595 23.7618 12.967 21.4895 12.603C21.123 12.5302 20.7565 12.5302 20.4634 12.4575C20.2435 12.4575 19.9503 12.4575 19.877 12.1663C19.8037 11.9479 20.0236 11.7296 20.2435 11.7296C20.3168 11.7296 20.3901 11.7296 20.3901 11.7296C20.5367 11.7296 23.3953 11.8024 20.3901 11.7296C23.4686 11.8024 26.034 13.8404 26.5471 16.8976C26.6204 17.4071 26.6937 17.9166 26.6937 18.4989C26.8403 18.7173 26.6937 18.9356 26.4738 18.9356Z"/>
    </symbol>
    <symbol id="twitter" viewBox="0 0 40 40">
        <path d="M30.6 14.9C29.9 15.2 29.1 15.4 28.3 15.5C29.1 15 29.8 14.2 30.1 13.3C29.3 13.8 28.5 14.1 27.5 14.3C26.8 13.5 25.7 13 24.6 13C22.4 13 20.6 14.8 20.6 17C20.6 17.3 20.6 17.6 20.7 17.9C17.4 17.7 14.4 16.1 12.4 13.7C12.1 14.3 11.9 15 11.9 15.7C11.9 17.1 12.6 18.3 13.7 19C13 19 12.4 18.8 11.9 18.5C11.9 20.4 13.3 22.1 15.1 22.4C14.8 22.5 14.4 22.5 14 22.5C13.7 22.5 13.5 22.5 13.2 22.4C13.7 24 15.2 25.2 17 25.2C15.6 26.3 13.9 26.9 12 26.9C11.7 26.9 11.4 26.9 11 26.8C12.8 27.9 14.9 28.6 17.2 28.6C24.6 28.6 28.6 22.5 28.6 17.2V16.7C29.4 16.4 30.1 15.7 30.6 14.9Z"/>
    </symbol>
    <symbol id="download" viewBox="0 0 24 24">
        <path d="M18 15V18H6V15H4V18C4 19.1 4.9 20 6 20H18C19.1 20 20 19.1 20 18V15H18ZM17 11L15.59 9.59L13 12.17V4H11V12.17L8.41 9.59L7 11L12 16L17 11Z" />
    </symbol>
    <symbol id="chevron-bottom" viewBox="0 0 8 9">
        <path d="M6.98464 3.40832L4.18464 6.21665C4.1513 6.24998 4.11519 6.27354 4.0763 6.28732C4.03741 6.30132 3.99575 6.30832 3.9513 6.30832C3.90686 6.30832 3.86519 6.30132 3.8263 6.28732C3.78741 6.27354 3.7513 6.24998 3.71797 6.21665L0.909636 3.40832C0.831858 3.33054 0.792969 3.23332 0.792969 3.11665C0.792969 2.99998 0.834635 2.89998 0.917969 2.81665C1.0013 2.73332 1.09852 2.69165 1.20964 2.69165C1.32075 2.69165 1.41797 2.73332 1.5013 2.81665L3.9513 5.26665L6.4013 2.81665C6.47908 2.73887 6.57486 2.69998 6.68864 2.69998C6.80264 2.69998 6.9013 2.74165 6.98464 2.82498C7.06797 2.90832 7.10964 3.00554 7.10964 3.11665C7.10964 3.22776 7.06797 3.32498 6.98464 3.40832Z" />
    </symbol>
    <symbol id="chevron-left" viewBox="0 0 40 40">
        <path d="M25.21 35.1666L11.1683 21.1666C11.0016 20.9999 10.8838 20.8194 10.815 20.6249C10.745 20.4305 10.71 20.2221 10.71 19.9999C10.71 19.7777 10.745 19.5694 10.815 19.3749C10.8838 19.1805 11.0016 18.9999 11.1683 18.8333L25.21 4.79159C25.5988 4.4027 26.085 4.20825 26.6683 4.20825C27.2516 4.20825 27.7516 4.41659 28.1683 4.83325C28.585 5.24992 28.7933 5.73603 28.7933 6.29159C28.7933 6.84714 28.585 7.33325 28.1683 7.74992L15.9183 19.9999L28.1683 32.2499C28.5572 32.6388 28.7516 33.1177 28.7516 33.6866C28.7516 34.2566 28.5433 34.7499 28.1266 35.1666C27.71 35.5833 27.2238 35.7916 26.6683 35.7916C26.1127 35.7916 25.6266 35.5833 25.21 35.1666Z"/>
    </symbol>
    <symbol id="chevron-right" viewBox="0 0 40 40">
       <path d="M14.79 4.83341L28.8317 18.8334C28.9984 19.0001 29.1162 19.1806 29.185 19.3751C29.255 19.5695 29.29 19.7779 29.29 20.0001C29.29 20.2223 29.255 20.4306 29.185 20.6251C29.1162 20.8195 28.9984 21.0001 28.8317 21.1667L14.79 35.2084C14.4012 35.5973 13.915 35.7917 13.3317 35.7917C12.7484 35.7917 12.2484 35.5834 11.8317 35.1667C11.415 34.7501 11.2067 34.264 11.2067 33.7084C11.2067 33.1529 11.415 32.6667 11.8317 32.2501L24.0817 20.0001L11.8317 7.75008C11.4428 7.36119 11.2484 6.8823 11.2484 6.31342C11.2484 5.74342 11.4567 5.25008 11.8734 4.83341C12.29 4.41675 12.7762 4.20841 13.3317 4.20841C13.8873 4.20841 14.3734 4.41675 14.79 4.83341Z"/>
    </symbol>
    <symbol id="search" viewBox="0 0 32 32">
        <path d="M24.0387 22.1563L29.7494 27.8657L27.8627 29.7523L22.1534 24.0417C20.029 25.7446 17.3867 26.6709 14.6641 26.667C8.04006 26.667 2.66406 21.291 2.66406 14.667C2.66406 8.04299 8.04006 2.66699 14.6641 2.66699C21.2881 2.66699 26.6641 8.04299 26.6641 14.667C26.6679 17.3897 25.7417 20.032 24.0387 22.1563ZM21.3641 21.167C23.0562 19.4268 24.0012 17.0942 23.9974 14.667C23.9974 9.50966 19.8201 5.33366 14.6641 5.33366C9.50673 5.33366 5.33073 9.50966 5.33073 14.667C5.33073 19.823 9.50673 24.0003 14.6641 24.0003C17.0913 24.0041 19.4239 23.0591 21.1641 21.367L21.3641 21.167Z" />
    </symbol>
    <symbol id="icon-close" viewBox="0 0 32 32">
        <path fill-rule="evenodd" clip-rule="evenodd"
            d="M25.1373 8.60204C25.2513 8.48816 25.3418 8.35293 25.4036 8.20408C25.4653 8.05524 25.4972 7.89568 25.4973 7.73453C25.4974 7.57338 25.4657 7.41378 25.4042 7.26486C25.3426 7.11593 25.2523 6.9806 25.1384 6.86657C25.0245 6.75255 24.8893 6.66208 24.7404 6.60031C24.5916 6.53855 24.432 6.50671 24.2709 6.50661C24.1097 6.50651 23.9501 6.53816 23.8012 6.59974C23.6523 6.66132 23.5169 6.75162 23.4029 6.86551L16.0024 14.266L8.60399 6.86551C8.37372 6.63523 8.06139 6.50586 7.73573 6.50586C7.41006 6.50586 7.09774 6.63523 6.86746 6.86551C6.63718 7.09579 6.50781 7.40811 6.50781 7.73377C6.50781 8.05944 6.63718 8.37176 6.86746 8.60204L14.268 16.0004L6.86746 23.3988C6.75344 23.5129 6.66299 23.6482 6.60128 23.7972C6.53957 23.9462 6.50781 24.1059 6.50781 24.2671C6.50781 24.4284 6.53957 24.588 6.60128 24.737C6.66299 24.886 6.75344 25.0214 6.86746 25.1354C7.09774 25.3657 7.41006 25.495 7.73573 25.495C7.89698 25.495 8.05665 25.4633 8.20563 25.4016C8.35461 25.3398 8.48997 25.2494 8.60399 25.1354L16.0024 17.7348L23.4029 25.1354C23.6332 25.3654 23.9454 25.4945 24.2709 25.4943C24.5963 25.4941 24.9084 25.3646 25.1384 25.1343C25.3684 24.904 25.4975 24.5918 25.4973 24.2664C25.4971 23.9409 25.3676 23.6288 25.1373 23.3988L17.7368 16.0004L25.1373 8.60204Z" />
    </symbol>
    <symbol id="service-1" viewBox="0 0 180 180">
        <path d="M157.459 174.743C155.4 174.743 153.723 173.081 153.723 171.04C153.723 168.996 155.4 167.335 157.459 167.335C159.523 167.335 161.199 168.996 161.199 171.04C161.199 173.081 159.523 174.743 157.459 174.743Z"/>
        <path d="M182.549 174.303C180.732 174.303 179.252 172.84 179.252 171.039C179.252 169.238 180.732 167.774 182.549 167.774C184.363 167.774 185.84 169.237 185.84 171.039C185.84 172.84 184.363 174.303 182.549 174.303Z"/>
        <path d="M131.303 174.303C129.485 174.303 128.006 172.84 128.006 171.039C128.006 169.238 129.485 167.774 131.303 167.774C133.117 167.774 134.594 169.237 134.594 171.039C134.594 172.84 133.117 174.303 131.303 174.303Z"/>
        <path d="M97.8043 184.53V183.637C91.4953 182.853 86.594 177.502 86.594 171.04C86.594 164.575 91.4953 159.224 97.8043 158.441V157.549H219.914V158.441C226.227 159.224 231.125 164.575 231.125 171.04C231.125 177.502 226.227 182.853 219.914 183.637V184.53H97.8043ZM210.13 164.6C207.103 164.6 204.576 166.671 203.857 169.452H188.821C188.105 166.671 185.578 164.6 182.55 164.6C179.523 164.6 176.994 166.671 176.275 169.452H164.195C163.47 166.423 160.733 164.16 157.459 164.16C154.187 164.16 151.453 166.423 150.724 169.452H137.574C136.859 166.671 134.331 164.6 131.303 164.6C128.276 164.6 125.748 166.671 125.029 169.452H111.685C110.967 166.671 108.439 164.6 105.412 164.6C101.83 164.6 98.9177 167.489 98.9177 171.04C98.9177 174.587 101.83 177.477 105.412 177.477C108.439 177.477 110.967 175.407 111.685 172.626H125.029C125.747 175.407 128.276 177.477 131.303 177.477C134.331 177.477 136.858 175.407 137.574 172.626H150.723C151.453 175.654 154.186 177.917 157.458 177.917C160.732 177.917 163.47 175.654 164.195 172.626H176.275C176.994 175.407 179.522 177.477 182.549 177.477C185.578 177.477 188.105 175.407 188.821 172.626H203.857C204.576 175.407 207.103 177.477 210.13 177.477C213.712 177.477 216.624 174.587 216.624 171.04C216.624 167.489 213.712 164.6 210.13 164.6Z"/>
        <path d="M105.413 174.303C103.598 174.303 102.122 172.84 102.122 171.039C102.122 169.238 103.598 167.774 105.413 167.774C107.23 167.774 108.709 169.237 108.709 171.039C108.709 172.84 107.23 174.303 105.413 174.303Z"/>
        <path d="M108.708 118.496L119.511 99.8403H153.722V116.909L172.628 117.703V113.338L197.851 112.941V116.91H206.836V128.149H172.628V132.781H206.836V147.304H108.708V118.496ZM115.507 128.149H147.405V105.459H123.514L115.507 116.804V128.149Z"/>
        <path d="M123.914 77.229L91.0831 52.6278V38.739L131.302 62.5471L147.404 95.0851H123.914V77.229Z"/>
        <path d="M34.234 116.116L80.2754 33.1843L86.5938 38.7392V50.2467L45.4444 116.116H34.234Z"/>
        <path d="M42.6419 123.571C42.3734 146.654 64.2617 147.304 64.2617 147.304C19.8155 164.606 34.2347 123.571 34.2347 123.571H42.6419Z"/>
    </symbol>
    <symbol id="service-2" viewBox="0 0 180 180">
        <path d="M67.4495 53.5234H54.2451C54.2451 53.5234 51.679 43.3592 63.1697 42.9358H88.7296C88.7296 42.161 89.2346 41.4564 90.0255 41.281L150.847 27.7284C151.764 27.547 152.675 28.1023 152.881 29.0126C152.908 29.1387 152.888 29.2604 152.888 29.3831H154.209C154.209 29.1387 154.25 28.8905 154.363 28.652C154.772 27.805 155.788 27.4479 156.628 27.8547L194.908 46.0659C195.736 46.4591 196.084 47.4262 195.733 48.2526L200.132 48.3287C200.132 48.3287 202.259 53.5234 183.545 53.5234H162.278V65.8056H134.206V53.5234H70.8522V135.318C70.8522 135.46 70.8053 135.586 70.7724 135.719C74.2314 136.463 76.8333 139.523 76.8333 143.19C76.8333 146.823 74.2682 149.86 70.8522 150.635V155.713C70.8522 156.299 70.5496 156.842 70.0486 157.153L67.2569 158.883C66.9643 159.23 66.8042 159.663 66.8042 160.123C66.8042 160.64 67.0044 161.13 67.3697 161.493C68.1264 162.241 69.3557 162.244 70.1146 161.49C70.7784 160.828 71.8555 160.828 72.52 161.49C73.1846 162.152 73.1846 163.223 72.52 163.885C71.4793 164.924 70.1112 165.441 68.7418 165.441C67.3757 165.441 66.0074 164.924 64.9633 163.888C63.9533 162.879 63.4021 161.545 63.4021 160.122C63.4021 158.7 63.9567 157.367 64.9669 156.363C65.058 156.271 65.1601 156.192 65.2701 156.123L67.4495 154.772V150.633C64.0338 149.858 61.4673 146.821 61.4673 143.189C61.4673 139.521 64.0699 136.462 67.5292 135.717C67.4961 135.585 67.4495 135.458 67.4495 135.316V53.5234ZM157.6 47.5944L191.459 48.1805L156.081 31.3496L157.6 47.5944ZM138.034 42.9358L149.093 48.3287L151.02 31.1664L98.1928 42.9356L138.034 42.9358ZM64.8706 143.19C64.8706 145.539 66.7917 147.451 69.1512 147.451C71.51 147.451 73.4304 145.539 73.4304 143.19C73.4304 140.84 71.51 138.928 69.1512 138.928C66.7919 138.928 64.8706 140.84 64.8706 143.19Z"/>
        <path d="M141.013 67.0762H168.233V95.2127H141.013V67.0762Z"/>
        <path d="M145.691 98.0425H163.555V163.754H145.691V98.0425Z"/>
        <path d="M133.78 186.084L145.689 179.06V168.143H163.553V177.114L175.037 186.084H133.78Z"/>
    </symbol>
    <symbol id="service-3" viewBox="0 0 180 180">
        <path d="M100.311 120.448H86.5862C84.6924 120.448 83.1553 121.768 83.1553 123.401V141.121C83.1553 142.754 84.6924 144.074 86.5862 144.074H100.31C102.204 144.074 103.741 142.754 103.741 141.121V123.401C103.741 121.768 102.204 120.448 100.311 120.448Z"/>
        <path d="M100.311 152.934H86.5862C84.6924 152.934 83.1553 154.254 83.1553 155.887V173.606C83.1553 175.24 84.6924 176.56 86.5862 176.56H100.31C102.204 176.56 103.741 175.24 103.741 173.606V155.887C103.741 154.254 102.204 152.934 100.311 152.934Z"/>
        <path d="M93.4485 37.7569C95.3422 37.7569 96.8794 36.4369 96.8794 34.8037C96.8794 31.5464 99.9568 28.8971 103.742 28.8971H114.035C119.71 28.8971 124.328 24.922 124.328 20.0374C124.328 15.1527 119.71 11.1776 114.035 11.1776H103.742C101.848 11.1776 100.311 12.4976 100.311 14.1307C100.311 15.7639 101.848 17.0839 103.742 17.0839H114.035C115.925 17.0839 117.466 18.407 117.466 20.037C117.466 21.6671 115.925 22.9902 114.035 22.9902H103.742C96.1725 22.9902 90.0176 28.2884 90.0176 34.8031C90.0176 36.4369 91.5547 37.7569 93.4485 37.7569Z"/>
        <path d="M263.459 91.4028C262.495 90.8563 261.274 90.7618 260.217 91.1546L216.965 107.111V93.869C216.965 92.8768 216.386 91.9524 215.421 91.4031C214.464 90.8539 213.243 90.7594 212.183 91.155L168.931 107.112V93.8693C168.931 92.8771 168.352 91.9527 167.387 91.4035C166.43 90.8542 165.208 90.7598 164.149 91.1553L116.762 108.635H107.172V61.3831H110.603C112.497 61.3831 114.034 60.0631 114.034 58.43V46.6167C114.034 44.9835 112.497 43.6636 110.603 43.6636H76.2931C74.3993 43.6636 72.8622 44.9835 72.8622 46.6167V58.4296C72.8622 60.0628 74.3993 61.3827 76.2931 61.3827H79.724V108.635H69.4309C67.5371 108.635 66 109.955 66 111.588V185.419C66 187.053 67.5371 188.372 69.4309 188.372H117.465H165.5H213.535H261.569C263.466 188.372 265 187.053 265 185.419V93.8686C265 92.8764 264.42 91.952 263.459 91.4028ZM114.035 182.466H72.8622V114.542H83.1553H103.741H114.035V182.466ZM148.345 173.606H134.621C132.727 173.606 131.19 172.286 131.19 170.653C131.19 169.02 132.727 167.7 134.621 167.7H148.345C150.238 167.7 151.776 169.02 151.776 170.653C151.776 172.286 150.239 173.606 148.345 173.606ZM148.345 161.794H134.621C132.727 161.794 131.19 160.474 131.19 158.84C131.19 157.207 132.727 155.887 134.621 155.887H148.345C150.238 155.887 151.776 157.207 151.776 158.84C151.776 160.474 150.239 161.794 148.345 161.794ZM148.345 149.981H134.621C132.727 149.981 131.19 148.661 131.19 147.028C131.19 145.394 132.727 144.074 134.621 144.074H148.345C150.238 144.074 151.776 145.394 151.776 147.028C151.776 148.66 150.239 149.981 148.345 149.981ZM148.345 138.167H134.621C132.727 138.167 131.19 136.847 131.19 135.214C131.19 133.581 132.727 132.261 134.621 132.261H148.345C150.238 132.261 151.776 133.581 151.776 135.214C151.776 136.847 150.239 138.167 148.345 138.167ZM148.345 126.355H134.621C132.727 126.355 131.19 125.035 131.19 123.401C131.19 121.768 132.727 120.448 134.621 120.448H148.345C150.238 120.448 151.776 121.768 151.776 123.401C151.776 125.035 150.239 126.355 148.345 126.355ZM196.379 173.606H182.655C180.762 173.606 179.224 172.286 179.224 170.653C179.224 169.02 180.762 167.7 182.655 167.7H196.379C198.273 167.7 199.81 169.02 199.81 170.653C199.81 172.286 198.273 173.606 196.379 173.606ZM196.379 161.794H182.655C180.762 161.794 179.224 160.474 179.224 158.84C179.224 157.207 180.762 155.887 182.655 155.887H196.379C198.273 155.887 199.81 157.207 199.81 158.84C199.81 160.474 198.273 161.794 196.379 161.794ZM196.379 149.981H182.655C180.762 149.981 179.224 148.661 179.224 147.028C179.224 145.394 180.762 144.074 182.655 144.074H196.379C198.273 144.074 199.81 145.394 199.81 147.028C199.81 148.66 198.273 149.981 196.379 149.981ZM196.379 138.167H182.655C180.762 138.167 179.224 136.847 179.224 135.214C179.224 133.581 180.762 132.261 182.655 132.261H196.379C198.273 132.261 199.81 133.581 199.81 135.214C199.81 136.847 198.273 138.167 196.379 138.167ZM196.379 126.355H182.655C180.762 126.355 179.224 125.035 179.224 123.401C179.224 121.768 180.762 120.448 182.655 120.448H196.379C198.273 120.448 199.81 121.768 199.81 123.401C199.81 125.035 198.273 126.355 196.379 126.355ZM244.414 173.606H230.69C228.792 173.606 227.259 172.286 227.259 170.653C227.259 169.02 228.792 167.7 230.69 167.7H244.414C246.311 167.7 247.845 169.02 247.845 170.653C247.845 172.286 246.311 173.606 244.414 173.606ZM244.414 161.794H230.69C228.792 161.794 227.259 160.474 227.259 158.84C227.259 157.207 228.792 155.887 230.69 155.887H244.414C246.311 155.887 247.845 157.207 247.845 158.84C247.845 160.474 246.311 161.794 244.414 161.794ZM244.414 149.981H230.69C228.792 149.981 227.259 148.661 227.259 147.028C227.259 145.394 228.792 144.074 230.69 144.074H244.414C246.311 144.074 247.845 145.394 247.845 147.028C247.845 148.66 246.311 149.981 244.414 149.981ZM244.414 138.167H230.69C228.792 138.167 227.259 136.847 227.259 135.214C227.259 133.581 228.792 132.261 230.69 132.261H244.414C246.311 132.261 247.845 133.581 247.845 135.214C247.845 136.847 246.311 138.167 244.414 138.167ZM244.414 126.355H230.69C228.792 126.355 227.259 125.035 227.259 123.401C227.259 121.768 228.792 120.448 230.69 120.448H244.414C246.311 120.448 247.845 121.768 247.845 123.401C247.845 125.035 246.311 126.355 244.414 126.355Z"/>
    </symbol>
    <symbol id="service-4" viewBox="0 0 180 180">
       <path d="M89.9662 42.431C89.9662 42.431 89.9662 43.5472 89.9662 44.1384C89.9662 55.0091 98.6243 63.8207 109.306 63.8207C119.987 63.8207 128.645 55.0091 128.645 44.1384C128.645 43.5472 128.645 42.431 128.645 42.431H89.9662ZM136.197 32.8137V38.3017H82.2729V32.8137H86.0478C86.7717 23.7195 92.5266 16.0743 100.476 12.7631V24.5815H103.847V11.656C105.598 11.2284 107.425 11 109.306 11C111.138 11 112.92 11.2193 114.63 11.6253V24.5815H118.001V12.7047C126.021 15.9851 131.836 23.6672 132.564 32.8137H136.197ZM187.308 102.943C184.626 100.331 181.1 98.9813 177.382 99.1512C170.162 99.4757 164.507 105.647 164.507 113.201V121.309H157.766V93.8687C157.766 80.3296 146.608 69.4854 133.356 69.4854H128.116L113.953 93.1828L111.931 75.1224L113.953 69.4325H104.516L106.538 75.1224L104.516 93.1828L90.361 69.4847H85.1131C71.8099 69.4847 60.7031 80.3819 60.7031 93.868V121.308H53.9622V113.196C53.9622 105.641 48.3072 99.4694 41.0881 99.1456C37.3728 98.9813 33.845 100.325 31.1622 102.938C28.478 105.551 27.0001 109.073 27.0001 112.853V172.369H27.0056C26.9029 176.065 28.2207 179.56 30.7311 182.235C33.3003 184.972 36.7625 186.48 40.4812 186.48H177.988C181.707 186.48 185.17 184.972 187.738 182.234C190.248 179.56 191.566 176.066 191.465 172.371L191.469 112.857C191.469 109.077 189.991 105.557 187.308 102.943ZM138.219 98.67C139.336 98.67 140.241 99.5913 140.241 100.728V121.308H136.197V100.728C136.197 99.592 137.102 98.67 138.219 98.67ZM78.2286 100.728C78.2286 99.592 79.1338 98.6707 80.2504 98.6707C81.367 98.6707 82.2723 99.592 82.2723 100.728V121.309H78.2279L78.2286 100.728ZM32.3924 112.852C32.3924 110.584 33.2791 108.471 34.8905 106.903C36.4101 105.422 38.3471 104.501 40.8506 104.628C45.1064 104.843 48.5699 108.663 48.5699 113.196V161.78C46.0739 159.864 43.0285 158.905 39.8476 159.053C37.071 159.183 34.4963 160.196 32.3924 161.817V112.852ZM183.839 178.443C182.297 180.086 180.22 180.991 177.988 180.991H40.4812C38.2499 180.991 36.172 180.087 34.6305 178.443C33.0903 176.802 32.298 174.643 32.4006 172.366C32.5908 168.169 35.9701 164.729 40.0953 164.535C42.3368 164.434 44.4537 165.236 46.0664 166.805C47.6805 168.374 48.5699 170.488 48.5699 172.759H53.9622V126.797H60.7031V145.319C60.7031 150.061 64.8063 153.551 69.4658 153.551C74.1253 153.551 78.2286 150.061 78.2286 145.319V126.797H140.242V145.319C140.242 150.061 144.345 154.237 149.004 154.237C153.664 154.237 157.767 150.061 157.767 145.319V126.797H164.508V172.759H169.9C169.9 170.488 170.79 168.374 172.404 166.805C174.016 165.237 176.127 164.429 178.375 164.535C182.499 164.728 185.879 168.168 186.07 172.366C186.172 174.643 185.38 176.802 183.839 178.443ZM186.077 161.817C183.973 160.196 181.667 159.038 177.98 159.038C175.031 159.038 172.228 159.994 169.9 161.78V113.201C169.9 108.668 173.363 104.824 177.62 104.634C179.851 104.534 181.97 105.34 183.58 106.908C185.19 108.476 186.077 110.589 186.077 112.857V161.817Z"/>
    </symbol>
    <symbol id="service-5" viewBox="0 0 180 180">
       <path d="M105.674 180.619C103.163 180.619 101.12 178.604 101.12 176.129C101.12 173.653 103.163 171.639 105.674 171.639C108.186 171.639 110.229 173.653 110.229 176.129C110.229 178.604 108.186 180.619 105.674 180.619Z"/>
       <path d="M136.241 180.086C134.027 180.086 132.228 178.312 132.228 176.129C132.228 173.945 134.026 172.172 136.241 172.172C138.455 172.172 140.254 173.944 140.254 176.129C140.254 178.311 138.454 180.086 136.241 180.086Z"/>
       <path d="M73.8025 180.086C71.5887 180.086 69.7907 178.312 69.7907 176.129C69.7907 173.945 71.588 172.172 73.8025 172.172C76.0174 172.172 77.8164 173.944 77.8164 176.129C77.8159 178.311 76.0169 180.086 73.8025 180.086Z"/>
       <path d="M169.846 180.086C167.632 180.086 165.833 178.312 165.833 176.129C165.833 173.945 167.632 172.172 169.846 172.172C172.06 172.172 173.857 173.944 173.857 176.129C173.857 178.311 172.06 180.086 169.846 180.086Z"/>
       <path d="M32.9912 192.48V191.399C25.3014 190.448 19.3338 183.963 19.3338 176.129C19.3338 168.296 25.3014 161.81 32.9912 160.86V159.778H181.769V160.86C189.46 161.81 195.428 168.296 195.428 176.129C195.428 183.963 189.46 190.449 181.769 191.398V192.48H32.9912V192.48ZM169.846 168.326C166.16 168.326 163.081 170.835 162.205 174.205H143.882C143.008 170.835 139.93 168.326 136.24 168.326C132.552 168.326 129.473 170.835 128.599 174.205H113.883C112.993 170.534 109.66 167.792 105.673 167.792C101.688 167.792 98.3529 170.534 97.4655 174.205H81.4445C80.5715 170.835 77.4922 168.326 73.8027 168.326C70.1141 168.326 67.0356 170.835 66.1618 174.205H49.9051C49.0294 170.835 45.9503 168.326 42.2603 168.326C37.8922 168.326 34.3446 171.828 34.3446 176.129C34.3446 180.431 37.8922 183.933 42.2603 183.933C45.9503 183.933 49.0286 181.424 49.9051 178.052H66.1618C67.0361 181.424 70.1141 183.933 73.8027 183.933C77.4922 183.933 80.5715 181.424 81.4445 178.052H97.4655C98.3531 181.724 101.688 184.466 105.673 184.466C109.66 184.466 112.993 181.725 113.883 178.052H128.599C129.473 181.424 132.552 183.933 136.24 183.933C139.93 183.933 143.008 181.424 143.882 178.052H162.205C163.081 181.424 166.16 183.933 169.846 183.933C174.209 183.933 177.76 180.431 177.76 176.129C177.76 171.827 174.209 168.326 169.846 168.326Z"/>
       <path d="M42.2601 180.086C40.049 180.086 38.2467 178.312 38.2467 176.129C38.2467 173.945 40.049 172.172 42.2601 172.172C44.4706 172.172 46.2734 173.944 46.2734 176.129C46.2729 178.311 44.4706 180.086 42.2601 180.086Z"/>
       <path d="M6.85979 2.12033C6.85979 2.11315 6.86505 2.10943 6.86505 2.10101C6.86505 2.04503 6.88766 1.99252 6.89119 1.93605C6.90399 1.82732 6.92938 1.72279 6.96028 1.61306C6.97887 1.55387 6.96754 1.48947 6.99419 1.42953C6.99419 1.42135 7.00198 1.41392 7.00951 1.40699C7.01454 1.39213 7.01454 1.37652 7.01781 1.36488C7.04042 1.31336 7.08588 1.27571 7.11302 1.22617C7.13914 1.18035 7.13914 1.12908 7.17055 1.08301C7.20824 1.02654 7.26175 0.996318 7.30396 0.948514C7.34515 0.891793 7.37605 0.823679 7.42126 0.774884C7.43358 0.764729 7.44438 0.756307 7.45216 0.749124C7.45569 0.741941 7.45895 0.733768 7.46248 0.729805C7.50618 0.692651 7.55467 0.680514 7.59738 0.648315C7.68806 0.572522 7.77953 0.511838 7.88303 0.456108C7.93654 0.429853 7.97824 0.38403 8.03502 0.358271C8.05461 0.351335 8.06995 0.346134 8.08502 0.339694C8.14255 0.320622 8.19882 0.313439 8.25735 0.298578C8.3674 0.264397 8.47318 0.24904 8.58673 0.234178C8.65581 0.227243 8.71384 0.204456 8.77916 0.204456C8.78996 0.204456 8.80228 0.196777 8.81308 0.196777C8.82086 0.196777 8.82489 0.200245 8.83217 0.200245C8.88518 0.200245 8.93919 0.223528 8.99271 0.227243C9.10751 0.237894 9.21404 0.261177 9.32784 0.294119C9.38863 0.308981 9.45395 0.302293 9.51877 0.324337L174.559 63.1193C174.575 63.1227 174.579 63.1346 174.589 63.1381C174.608 63.1448 174.627 63.1534 174.646 63.1604C174.654 63.1638 174.666 63.1638 174.674 63.1685C174.757 63.2059 174.81 63.2728 174.887 63.3186C174.918 63.3409 174.948 63.3598 174.982 63.3818C175.063 63.4417 175.155 63.4791 175.222 63.5475C175.238 63.5592 175.25 63.5782 175.264 63.5933C175.348 63.6785 175.398 63.7878 175.467 63.8856C175.523 63.9755 175.603 64.0506 175.646 64.1494C175.653 64.1717 175.657 64.1903 175.665 64.2088C175.71 64.3213 175.718 64.4414 175.741 64.5623C175.764 64.671 175.802 64.7721 175.802 64.8845C175.802 64.8967 175.809 64.9031 175.809 64.915V130.61H195.428V151.38H107.38H77.8155H60.7476C60.7476 151.38 42.2598 130.61 60.7476 107.424C60.7476 107.424 86.2221 97.122 101.119 107.424C101.119 107.424 105.996 119.868 107.487 130.61H133.775L90.034 87.5558C90.0257 87.5493 90.0227 87.5444 90.0186 87.5404L68.4176 66.2827C68.4141 66.2793 68.4103 66.2756 68.4028 66.2674C68.4028 66.2639 68.3977 66.2607 68.395 66.2523C68.3877 66.2483 68.3842 66.2483 68.3794 66.2453L40.885 37.9305C40.8805 37.9273 40.8805 37.9238 40.8763 37.9238L27.9654 24.6264C27.9654 24.6264 27.9654 24.6264 27.9609 24.6264L10.7621 6.91114V100.903C10.7621 101.063 10.7056 101.207 10.6669 101.356C14.6385 102.202 17.6229 105.682 17.6229 109.841C17.6229 113.97 14.6843 117.415 10.7621 118.295V124.062C10.7621 124.727 10.4157 125.344 9.84361 125.697L6.64397 127.662C6.30431 128.057 6.1174 128.548 6.1174 129.07C6.1174 129.656 6.3533 130.212 6.77286 130.626C7.63457 131.475 9.05099 131.479 9.91948 130.622C10.682 129.871 11.9175 129.871 12.679 130.622C13.4404 131.374 13.4404 132.591 12.679 133.342C11.4826 134.522 9.91194 135.109 8.34126 135.109C6.77209 135.109 5.20143 134.522 4.00911 133.347C2.85446 132.201 2.21408 130.687 2.21408 129.07C2.21408 127.455 2.85446 125.939 4.01237 124.802C4.1189 124.696 4.23218 124.606 4.35829 124.527L6.85828 122.994V118.294C2.93736 117.414 -0.000488281 113.969 -0.000488281 109.84C-0.000488281 105.681 2.98334 102.201 6.95349 101.355C6.9158 101.206 6.85828 101.063 6.85828 100.902V2.12033H6.85979ZM87.6938 110.806H65.1564C60.254 109.841 59.2787 134.958 59.2787 134.958H87.6938V110.806ZM171.906 130.61V73.6924L145.33 130.61H171.906ZM138.795 130.61H141.038L157.041 96.3331L96.9392 59.9402L99.3324 63.975C99.3324 63.9832 99.3357 63.9867 99.3402 63.9904L138.795 130.61ZM127.262 118.767L118.973 104.768H113.04L127.262 118.767ZM112.179 100.922H116.695L112.179 93.2965V100.922ZM108.277 100.079V88.1121H96.1157L108.277 100.079ZM106.828 84.2647L98.2421 69.7615L93.9976 84.2647H106.828ZM90.4445 82.5289L95.0334 66.8386H74.5053L90.4445 82.5289ZM94.2287 62.991L89.8893 55.6613L78.7302 48.6047L72.706 62.991H94.2287ZM69.126 61.4511L74.8272 47.8348L56.8674 48.8261L69.126 61.4511ZM71.6878 44.1569L59.3633 36.3599L55.5665 45.0469L71.6878 44.1569ZM51.9016 43.7133L55.2329 36.0902L46.1548 37.7955L51.9016 43.7133ZM44.2103 34.2412L53.3035 32.5316L44.2103 26.7837V34.2412ZM59.5799 31.9307L79.1108 44.2765C79.1108 44.2765 79.1159 44.2765 79.1159 44.2805L92.3882 52.6705C92.3882 52.6705 92.3882 52.6705 92.3882 52.6742L158.683 92.8162L171.218 65.9744L26.0895 10.7582L59.5799 31.9307ZM40.3085 31.7727V25.1899H33.9135L40.3085 31.7727ZM30.1787 21.342H35.6017L21.5591 12.4636L30.1787 21.342ZM3.90334 109.84C3.90334 112.508 6.10561 114.679 8.81107 114.679C11.517 114.679 13.7198 112.508 13.7198 109.84C13.7198 107.173 11.517 105.001 8.81107 105.001C6.10561 105.001 3.90334 107.173 3.90334 109.84Z"/>
    </symbol>
    <symbol id="career-1" viewBox="0 0 100 100">
        <path d="M104.983 92.0106L101.977 47.4174C101.522 40.6676 95.8189 35.3803 88.9927 35.3803H76.5413V30.4729C76.5413 25.8009 72.7061 22 67.9918 22H44.0086C39.2943 22 35.4591 25.8009 35.4591 30.4729V35.38H23.0073C16.1815 35.38 10.4779 40.6673 10.0227 47.4172L7.01662 92.0106C6.87767 94.0716 7.61489 96.1185 9.03853 97.6268C10.4624 99.1351 12.4742 100 14.5582 100H97.4422C99.5262 100 101.538 99.1349 102.962 97.6266C104.386 96.1183 105.123 94.0713 104.983 92.0106ZM44.0086 26.3463H67.9916C69.2747 26.3463 70.4234 26.9252 71.1879 27.8324H40.8126C41.577 26.925 42.7255 26.3463 44.0086 26.3463ZM39.8445 32.1782H72.1559V35.38H39.8445V32.1782ZM14.3982 47.7068C14.7001 43.2317 18.4815 39.7261 23.0073 39.7261H88.9927C93.5184 39.7261 97.3001 43.2317 97.6017 47.7068L98.7521 64.7699L66.2042 80.8578L66.2637 80.6211C66.4267 79.9721 66.2789 79.285 65.8635 78.758C65.448 78.2312 64.8108 77.9233 64.1361 77.9233H47.8648C47.1899 77.9233 46.5526 78.2312 46.1374 78.758C45.7217 79.2848 45.5742 79.9721 45.7372 80.6211L45.7965 80.8576L13.2481 64.7697L14.3982 47.7068ZM61.3306 82.2693L59.4929 89.5885H52.5071L50.6694 82.2693H61.3306ZM99.7591 94.6578C99.1526 95.3003 98.3297 95.654 97.442 95.654H14.5582C13.6705 95.654 12.8476 95.3001 12.241 94.6578C11.6347 94.0153 11.333 93.1779 11.3921 92.3002L12.9312 69.4698L47.1883 86.4024L48.6655 92.286C48.9087 93.2545 49.7861 93.9343 50.7933 93.9343H61.2069C62.2139 93.9343 63.0914 93.2545 63.3347 92.286L64.8119 86.4024L99.0688 69.4701L100.608 92.3002C100.667 93.1781 100.365 94.0153 99.7591 94.6578Z" />
    </symbol>
    <symbol id="career-2" viewBox="0 0 100 100">
        <path d="M96.2795 43.0944C99.2815 40.566 101.193 36.7831 101.193 32.5604C101.193 24.9663 95.0152 18.7881 87.421 18.7881C79.8271 18.7881 73.6489 24.9663 73.6489 32.5604C73.6489 36.7831 75.5608 40.5663 78.5628 43.0944C72.8916 46.2276 69.041 52.2678 69.041 59.1926V73.519C69.041 76.6061 70.9497 79.2559 73.6489 80.3503V100.043C73.6489 103.313 76.3098 105.974 79.5805 105.974H95.2621C98.5328 105.974 101.194 103.313 101.194 100.043V80.3503C103.893 79.2559 105.802 76.6061 105.802 73.519V59.1926C105.801 52.2681 101.951 46.2276 96.2795 43.0944ZM79.1688 32.5604C79.1688 28.01 82.8709 24.308 87.421 24.308C91.9714 24.308 95.6735 28.01 95.6735 32.5604C95.6735 37.1108 91.9714 40.8126 87.421 40.8126C82.8709 40.8126 79.1688 37.1106 79.1688 32.5604ZM100.281 73.519C100.281 74.5437 99.4433 75.376 98.4166 75.3667C96.8861 75.3531 95.6735 76.6738 95.6735 78.2045V100.043C95.6735 100.27 95.4893 100.454 95.2618 100.454H90.696C90.4116 100.454 90.181 100.224 90.181 99.9391V81.3157C90.181 79.8456 89.0717 78.5621 87.6049 78.4671C85.9975 78.3631 84.6611 79.6362 84.6611 81.221V99.9391C84.6611 100.224 84.4304 100.454 84.146 100.454H79.5802C79.353 100.454 79.1685 100.27 79.1685 100.043V78.2045C79.1685 76.6738 77.9562 75.3531 76.4254 75.3667C75.3987 75.376 74.5606 74.5437 74.5606 73.519V59.4207C74.5606 52.2248 80.4494 46.2111 87.6441 46.3343C94.6326 46.4539 100.281 52.176 100.281 59.1926L100.281 73.519Z" />
        <path  d="M44.9365 34.335C44.4434 33.4812 43.5324 32.9551 42.5464 32.9551C41.5603 32.9551 40.6493 33.4812 40.1563 34.335L23.3698 63.4102C22.8767 64.264 22.8767 65.3163 23.3698 66.1701C23.8628 67.024 24.7738 67.5501 25.7599 67.5501H33.5173V103.214C33.5173 104.738 34.7529 105.974 36.2772 105.974H48.8158C50.3401 105.974 51.5757 104.738 51.5757 103.214V67.5501H59.3331C60.3192 67.5501 61.2302 67.024 61.7232 66.1701C62.2163 65.3163 62.2163 64.264 61.7232 63.4102L44.9365 34.335ZM48.8158 62.0302C47.2914 62.0302 46.0558 63.2658 46.0558 64.7902V100.454H39.0372V64.7902C39.0372 63.2658 37.8016 62.0302 36.2772 62.0302H30.5404L42.5466 41.2349L54.5529 62.0302H48.8158Z" />
    </symbol>
    <symbol id="career-3" viewBox="0 0 100 100">
        <path d="M42.5612 53.8568C42.8327 53.9693 43.1177 54.024 43.4003 54.024C43.9712 54.024 44.5323 53.801 44.9519 53.3814L70.1509 28.1824C70.5624 27.7709 70.7936 27.2129 70.7936 26.631C70.7936 26.0491 70.5624 25.491 70.1507 25.0797C63.0036 17.9349 53.5037 14 43.4008 14C42.1891 14 41.207 14.9821 41.207 16.1938V51.83C41.207 52.7172 41.7414 53.5171 42.5612 53.8568ZM45.5946 18.4577C52.9735 18.9327 59.8919 21.798 65.4472 26.6811L45.5946 46.5338V18.4577Z" />
        <path d="M97.5247 49.7019C100.516 47.4132 102.45 43.8092 102.45 39.7605C102.45 32.8602 96.8366 27.2463 89.9364 27.2463C83.0362 27.2463 77.4224 32.8602 77.4224 39.7605C77.4224 42.8606 78.5581 45.6986 80.4318 47.8869H71.6491C69.8336 44.2704 67.4618 40.9837 64.5817 38.1036C63.7253 37.2469 62.3363 37.2469 61.4793 38.1036L40.0236 59.5572V29.2172C40.0236 28.0056 39.0414 27.0234 37.8298 27.0234C16.9703 27.0234 0 43.994 0 64.8532C0 85.7139 16.9703 102.685 37.8298 102.685C58.6904 102.685 75.6619 85.7139 75.6619 64.8532C75.6619 63.7187 75.609 62.5812 75.5079 61.4506H75.9224C76.7493 61.4506 77.4222 62.1233 77.4222 62.9502V103.002C77.4222 105.851 79.7398 108.168 82.5882 108.168H97.2846C100.133 108.168 102.451 105.851 102.451 103.002V84.2771C104.965 83.3746 106.769 80.9666 106.769 78.1451V64.7191C106.769 58.1673 103.003 52.4818 97.5247 49.7019ZM81.8098 39.7605C81.8098 35.2794 85.4553 31.6338 89.9362 31.6338C94.417 31.6338 98.0626 35.2794 98.0626 39.7605C98.0626 44.2415 94.417 47.8869 89.9362 47.8869C85.4553 47.8869 81.8098 44.2415 81.8098 39.7605ZM35.636 31.4823V60.2096L13.4598 41.975C19.0957 35.9754 26.9155 32.0497 35.636 31.4823ZM4.38754 64.8532C4.38754 57.5861 6.71893 50.854 10.6712 45.3626L35.134 65.4772L21.964 94.288C11.5067 88.6279 4.38754 77.5565 4.38754 64.8532ZM71.2744 64.8532C71.2744 83.2945 56.2711 98.2978 37.8298 98.2978C33.6487 98.2978 29.6454 97.5242 25.9525 96.1163L39.6633 66.1219L62.9801 42.8072C64.3663 44.3858 65.5927 46.0843 66.6545 47.8869H62.1414C58.4018 47.8869 55.3596 50.929 55.3596 54.6686C55.3596 58.4082 58.4018 61.4506 62.1414 61.4506H71.0961C71.2104 62.5798 71.2744 63.7178 71.2744 64.8532ZM102.381 78.1454C102.381 79.3185 101.426 80.2724 100.252 80.2699C99.047 80.2671 98.0628 81.3397 98.0628 82.5445V103.002C98.0628 103.432 97.7143 103.781 97.2844 103.781H93.0282C92.532 103.781 92.1299 103.379 92.1299 102.883V85.4384C92.1299 84.2699 91.2483 83.2497 90.0823 83.1742C88.8046 83.0915 87.7424 84.1034 87.7424 85.3631V102.882C87.7424 103.379 87.3401 103.781 86.8441 103.781H82.588C82.158 103.781 81.8095 103.432 81.8095 103.002V62.9504C81.8095 59.699 79.1738 57.0633 75.9224 57.0633H62.2116C60.9655 57.0633 59.8748 56.1405 59.758 54.9C59.6238 53.4766 60.7447 52.2746 62.1414 52.2746H89.9362C96.8093 52.2746 102.381 57.8463 102.381 64.7195V78.1454Z" />>
    </symbol>
    <symbol id="career-4" viewBox="0 0 100 100">
        <path d="M33.9545 21.4773C33.9545 16.8028 30.1517 13 25.4775 13C20.8028 13 17 16.8028 17 21.4773C17 24.1123 18.2086 26.47 20.1005 28.0261C18.2086 29.5822 17 31.94 17 34.575V40.5039C17 41.569 17.8633 42.4323 18.9284 42.4323H32.0261C33.0912 42.4323 33.9545 41.569 33.9545 40.5039V34.575C33.9545 31.94 32.7459 29.5822 30.8541 28.0261C32.7459 26.4702 33.9545 24.1123 33.9545 21.4773ZM30.0977 34.575V38.5755H20.8568V34.575C20.8568 32.0273 22.9295 29.9545 25.4775 29.9545C28.025 29.9545 30.0977 32.0273 30.0977 34.575ZM20.8568 21.4773C20.8568 18.9295 22.9295 16.8568 25.4775 16.8568C28.0252 16.8568 30.0979 18.9295 30.0979 21.4773C30.0979 24.025 28.025 26.0977 25.4775 26.0977C22.9295 26.0977 20.8568 24.025 20.8568 21.4773Z" />
        <path d="M106.899 28.0261C108.791 26.47 109.999 24.1123 109.999 21.4773C109.999 16.8028 106.196 13 101.522 13C96.8479 13 93.0449 16.8028 93.0449 21.4773C93.0449 24.1123 94.2535 26.47 96.1454 28.0261C94.2535 29.5822 93.0449 31.94 93.0449 34.575V40.5039C93.0449 41.569 93.9082 42.4323 94.9733 42.4323H108.071C109.136 42.4323 109.999 41.569 109.999 40.5039V34.575C109.999 31.94 108.791 29.5822 106.899 28.0261ZM96.9017 21.4773C96.9017 18.9295 98.9745 16.8568 101.522 16.8568C104.07 16.8568 106.143 18.9295 106.143 21.4773C106.143 24.025 104.07 26.0977 101.522 26.0977C98.9747 26.0977 96.9017 24.025 96.9017 21.4773ZM106.142 38.5755H96.9017V34.575C96.9017 32.0273 98.9745 29.9545 101.522 29.9545C104.07 29.9545 106.143 32.0273 106.143 34.575V38.5755H106.142Z" />
        <path d="M33.9545 85.0456C33.9545 80.3712 30.1517 76.5684 25.4773 76.5684C20.8028 76.5684 17 80.3712 17 85.0456C17 87.6806 18.2086 90.0386 20.1005 91.5945C18.2086 93.1504 17 95.5083 17 98.1433V104.072C17 105.137 17.8633 106.001 18.9284 106.001H32.0261C33.0912 106.001 33.9545 105.137 33.9545 104.072V98.1433C33.9545 95.5083 32.7459 93.1506 30.8541 91.5945C32.7459 90.0384 33.9545 87.6806 33.9545 85.0456ZM30.0977 98.1433V102.144H20.8568V98.1433C20.8568 95.5956 22.9295 93.5229 25.4775 93.5229C28.025 93.5229 30.0977 95.5956 30.0977 98.1433ZM20.8568 85.0456C20.8568 82.4979 22.9295 80.4252 25.4775 80.4252C28.0252 80.4252 30.0979 82.4979 30.0979 85.0456C30.0979 87.5934 28.0252 89.6661 25.4775 89.6661C22.9295 89.6661 20.8568 87.5934 20.8568 85.0456Z" />
        <path d="M109.999 85.0456C109.999 80.3712 106.197 76.5684 101.522 76.5684C96.8477 76.5684 93.0449 80.3712 93.0449 85.0456C93.0449 87.6806 94.2535 90.0386 96.1454 91.5945C94.2535 93.1506 93.0449 95.5083 93.0449 98.1433V104.072C93.0449 105.137 93.9082 106.001 94.9733 106.001H108.071C109.136 106.001 109.999 105.137 109.999 104.072V98.1433C109.999 95.5083 108.79 93.1506 106.899 91.5945C108.791 90.0384 109.999 87.6806 109.999 85.0456ZM106.143 98.1433V102.144H96.9019V98.1433C96.9019 95.5956 98.9747 93.5229 101.522 93.5229C104.07 93.5229 106.143 95.5956 106.143 98.1433ZM96.9019 85.0456C96.9019 82.4979 98.9747 80.4252 101.522 80.4252C104.07 80.4252 106.143 82.4979 106.143 85.0456C106.143 87.5934 104.07 89.6661 101.522 89.6661C98.9747 89.6661 96.9019 87.5934 96.9019 85.0456Z" />
        <path d="M71.9762 52.9509C71.9762 48.2764 68.1734 44.4736 63.499 44.4736C58.8245 44.4736 55.0215 48.2764 55.0215 52.9509C55.0215 55.5859 56.2301 57.9436 58.122 59.4998C56.2301 61.0559 55.0215 63.4136 55.0215 66.0486V71.9775C55.0215 73.0426 55.8848 73.9059 56.9499 73.9059H70.0476C71.1127 73.9059 71.976 73.0426 71.976 71.9775V66.0486C71.976 63.4136 70.7674 61.0559 68.8755 59.4998C70.7674 57.9436 71.9762 55.5859 71.9762 52.9509ZM68.1194 66.0486V70.0491H58.8785V66.0486C58.8785 63.5009 60.9512 61.4282 63.4992 61.4282C66.0467 61.4282 68.1194 63.5009 68.1194 66.0486ZM58.8783 52.9509C58.8783 50.4032 60.951 48.3304 63.499 48.3304C66.0467 48.3304 68.1194 50.4032 68.1194 52.9509C68.1194 55.4986 66.0467 57.5714 63.499 57.5714C60.951 57.5714 58.8783 55.4986 58.8783 52.9509Z" />
        <path d="M48.2727 71.9994L38.8051 81.467C38.052 82.2201 38.052 83.4411 38.8051 84.1942C39.1816 84.5708 39.6751 84.7589 40.1687 84.7589C40.6624 84.7589 41.1557 84.5708 41.5324 84.1942L51.0001 74.7266C51.7532 73.9735 51.7532 72.7525 51.0001 71.9994C50.2468 71.2463 49.026 71.2463 48.2727 71.9994Z" />
        <path d="M85.4663 34.8061L75.9984 44.2738C75.2453 45.0269 75.2453 46.2478 75.9984 47.0009C76.375 47.3775 76.8684 47.5656 77.3621 47.5656C77.8556 47.5656 78.349 47.3773 78.7258 47.0009L88.1936 37.5333C88.9467 36.7802 88.9467 35.5592 88.1936 34.8061C87.4403 34.053 86.2196 34.0528 85.4663 34.8061Z" />
        <path d="M78.7258 71.9994C77.9725 71.2463 76.7517 71.2463 75.9984 71.9994C75.2453 72.7525 75.2453 73.9735 75.9984 74.7266L85.4663 84.1942C85.8428 84.5708 86.3363 84.7589 86.83 84.7589C87.3236 84.7589 87.8169 84.5708 88.1936 84.1942C88.9467 83.4411 88.9467 82.2201 88.1936 81.467L78.7258 71.9994Z" />
        <path d="M41.5324 34.806C40.7793 34.0529 39.5586 34.0529 38.8051 34.806C38.052 35.5591 38.052 36.7801 38.8051 37.5332L48.2727 47.0008C48.6493 47.3774 49.1427 47.5656 49.6364 47.5656C50.1299 47.5656 50.6233 47.3772 51.0001 47.0008C51.7532 46.2478 51.7532 45.0268 51.0001 44.2737L41.5324 34.806Z" />
    </symbol>
    <symbol id="career-5" viewBox="0 0 100 100">
        <path  d="M10.3004 61.6788L19.3702 45.969C19.771 45.275 20.5115 44.8474 21.3132 44.8474C22.1147 44.8474 22.8552 45.275 23.2562 45.969L32.3263 61.6788C32.7268 62.3728 32.7268 63.2282 32.3263 63.9222C31.9256 64.6162 31.185 65.0439 30.3833 65.0439H28.1482C28.931 73.1153 32.5181 80.5931 38.3912 86.3026C40.1023 87.966 41.9594 89.4287 43.9309 90.6831V87.9188C43.9309 80.9615 47.8146 74.8951 53.5274 71.7712C47.8143 68.6474 43.9302 62.5807 43.9302 55.6234C43.9302 45.4826 52.1804 37.2324 62.3212 37.2324C72.4619 37.2324 80.7121 45.4826 80.7121 55.6234C80.7121 62.5766 76.8328 68.6399 71.1254 71.7653C72.6494 72.5986 74.0642 73.6521 75.3257 74.9147C78.7996 78.3887 80.7128 83.0069 80.7128 87.9188V90.6625C90.2909 84.5634 96.6581 73.8509 96.6581 61.6786C96.6581 42.7452 81.2546 27.3417 62.3209 27.3417C53.1491 27.3417 44.5265 30.9134 38.041 37.3989C37.1647 38.275 35.7445 38.275 34.8682 37.3989C33.9921 36.5228 33.9921 35.1024 34.8682 34.2263C42.2012 26.8935 51.9509 22.855 62.3209 22.855C83.7284 22.855 101.145 40.2711 101.145 61.6786C101.145 83.086 83.7287 100.502 62.3209 100.502C52.1582 100.502 42.5488 96.602 35.2635 89.5196C27.9935 82.4522 23.8218 72.9873 23.5167 62.868C23.4985 62.2616 23.7266 61.6736 24.1491 61.2382C24.5715 60.8027 25.1525 60.5569 25.7591 60.5569H26.4973L21.313 51.5772L16.1287 60.5569H16.8999C18.1177 60.5569 19.1131 61.5284 19.1426 62.746C19.4167 74.0571 24.0301 84.6484 32.1327 92.5684C40.2487 100.501 50.9699 104.87 62.3212 104.87C86.1373 104.871 105.513 85.495 105.513 61.6786C105.513 37.8622 86.1373 18.4868 62.3212 18.4868C50.7843 18.4868 39.9377 22.9794 31.7799 31.1375C30.9038 32.0134 29.4836 32.0136 28.607 31.1375C27.7309 30.2614 27.7309 28.841 28.607 27.9649C37.6124 18.9595 49.5859 14 62.3212 14C88.6114 14 110 35.3886 110 61.6786C110 87.9686 88.6114 109.357 62.3212 109.357C49.7906 109.357 37.9558 104.534 28.9964 95.7772C20.5772 87.5473 15.5707 76.7042 14.7597 65.0439H12.2434C11.4419 65.0439 10.7014 64.6162 10.3004 63.9222C9.89987 63.2282 9.89987 62.3731 10.3004 61.6788ZM76.2254 55.6234C76.2254 47.9564 69.9879 41.7191 62.3212 41.7191C54.6543 41.7191 48.417 47.9564 48.417 55.6234C48.417 63.2903 54.6543 69.5276 62.3212 69.5276C69.9881 69.5276 76.2254 63.2903 76.2254 55.6234ZM76.2263 93.0712V87.919C76.2263 84.2056 74.7799 80.7142 72.1528 78.0871C69.5288 75.4609 66.0376 74.0148 62.3221 74.0148C54.6552 74.0148 48.4179 80.2523 48.4179 87.919V93.0882C52.7446 95.0052 57.4608 96.0159 62.3214 96.0159C67.2682 96.0157 71.9731 94.9625 76.2263 93.0712Z" />
    </symbol>
    <symbol id="career-6" viewBox="0 0 100 100">
        <path d="M98.9924 56.0255H86.0474V50.4235C86.0474 43.615 82.0702 37.723 76.3278 34.9654C79.5225 32.6652 81.61 28.9075 81.61 24.6667C81.61 17.6822 75.9533 12 68.9999 12C62.0465 12 56.3896 17.6822 56.3896 24.6667C56.3896 28.9075 58.4773 32.6655 61.6722 34.9657C55.93 37.7233 51.9532 43.615 51.9532 50.4232V56.0253H39.0074C37.8987 56.0253 37 56.928 37 58.0417V67.031C37 68.1447 37.8987 69.0475 39.0074 69.0475H41.1205L45.7343 107.227C45.8567 108.239 46.712 109 47.7271 109H90.2739C91.289 109 92.1444 108.239 92.2667 107.227L96.8806 69.0475H98.9926C100.101 69.0475 101 68.1447 101 67.031V58.0417C101 56.9282 100.101 56.0255 98.9924 56.0255ZM60.4046 24.6667C60.4046 19.906 64.2605 16.0328 68.9999 16.0328C73.7393 16.0328 77.5952 19.906 77.5952 24.6667C77.5952 29.4239 73.745 33.2946 69.0103 33.3003C69.0069 33.3003 69.0037 33.3001 69.0003 33.3001C68.9967 33.3001 68.9933 33.3003 68.99 33.3003C64.255 33.295 60.4046 29.4241 60.4046 24.6667ZM55.9685 50.4235C55.9685 43.2087 61.8092 37.3389 68.9902 37.3331C68.9936 37.3331 68.9967 37.3333 69.0001 37.3333C69.0037 37.3333 69.0071 37.3331 69.0105 37.3331C76.1919 37.3386 82.0328 43.2085 82.0328 50.4235V56.0255H78.9629V51.0502C78.9629 50.5154 78.7514 50.0026 78.3751 49.6243L77.2733 48.5176C77.352 48.2088 77.3982 47.8872 77.3982 47.5542C77.3982 45.4049 75.6577 43.6564 73.518 43.6564C71.3783 43.6564 69.6376 45.4049 69.6376 47.5542C69.6376 49.7035 71.3783 51.452 73.518 51.452C73.8253 51.452 74.1228 51.4121 74.4095 51.3442L74.9484 51.8855V56.0255H63.0535V51.8855L63.601 51.3355C63.8981 51.409 64.2069 51.4523 64.5263 51.4523C66.666 51.4523 68.4068 49.7037 68.4068 47.5544C68.4068 45.4051 66.666 43.6566 64.5263 43.6566C62.3867 43.6566 60.6461 45.4051 60.6461 47.5544C60.6461 47.8751 60.6893 48.1855 60.7624 48.4839L59.6268 49.6245C59.2505 50.0026 59.039 50.5156 59.039 51.0502V56.0255H55.9691V50.4235H55.9685ZM41.0148 60.0583H96.985V65.0149H41.0148V60.0583ZM88.4951 104.967H49.5057L45.1646 69.0477H92.8362L88.4951 104.967Z" />
    </symbol>
    <symbol id="career-7" viewBox="0 0 100 100">
        <path d="M93.9256 65.9939C96.5149 63.9313 98.1796 60.7522 98.1796 57.1893C98.1796 53.832 96.7014 50.8157 94.3647 48.7526C93.4757 45.2538 92.1049 41.8953 90.2845 38.7594C87.3746 33.7459 83.3103 29.3575 78.5311 26.0693C72.0813 21.6288 64.5241 19.2447 56.677 19.1744C56.432 19.1697 56.1956 19.1697 55.9501 19.1744C48.1024 19.2443 40.5462 21.6283 34.0965 26.0688C34.0287 26.1154 33.9625 26.1647 33.8947 26.2119C34.1523 25.2676 34.2926 24.2753 34.2926 23.2502C34.293 17.0468 29.2528 12 23.0574 12C16.862 12 11.8217 17.0468 11.8217 23.2502C11.8217 26.8129 13.486 29.9918 16.075 32.0544C11.2796 34.5787 8 39.6146 8 45.4054V57.3002C8 59.8296 9.58984 61.9942 11.8217 62.8459V79.3196C11.8217 81.9337 13.9457 84.0602 16.5562 84.0602H26.4991C28.7253 86.6579 31.2848 88.9737 34.0934 90.9063C40.5427 95.349 48.1044 97.7335 55.9388 97.8014C56.0655 97.8039 56.1896 97.8041 56.3137 97.8041C56.4377 97.8041 56.5618 97.8041 56.6668 97.8019C62.2013 97.7528 67.6918 96.521 72.6959 94.2245C73.3752 95.3874 74.4368 96.3 75.7083 96.7854V113.26C75.7083 115.873 77.8321 118 80.4426 118H93.4451C96.0556 118 98.1794 115.873 98.1794 113.26V96.7854C100.411 95.9336 102 93.7687 102 91.2391V79.3451C102 73.5541 98.7208 68.5184 93.9256 65.9939ZM25.0992 42.5064C26.7473 43.1764 28.4678 43.7891 30.2471 44.3445C29.1958 48.1947 28.5879 52.227 28.4348 56.3805H21.3237C21.6138 51.5365 22.9016 46.8063 25.0992 42.5064ZM75.7407 56.3805H68.7118C68.6648 53.291 68.5155 50.268 68.2687 47.3631C71.7368 46.9229 75.1081 46.2929 78.3259 45.4843C78.6456 46.6616 78.9223 47.8677 79.1541 49.0938C77.2142 50.9659 75.9443 53.527 75.7407 56.3805ZM34.2988 71.487C33.3512 68.0069 32.7987 64.3586 32.6487 60.5953H43.9142C43.9612 63.6826 44.1103 66.7038 44.3569 69.6072C40.8863 70.0458 37.5185 70.6758 34.2988 71.487ZM61.949 82.8122C58.2301 82.4368 54.3968 82.4368 50.677 82.8122C49.9696 79.9725 49.3987 76.7894 48.9762 73.3678C53.8053 72.9858 58.819 72.9858 63.6494 73.3675C63.2273 76.7896 62.6564 79.9725 61.949 82.8122ZM47.6323 87.4852C48.2041 89.249 48.8218 90.7905 49.4849 92.1044C47.5086 91.2198 45.6157 89.9462 43.8407 88.3017C45.0802 87.9799 46.3471 87.7092 47.6323 87.4852ZM56.3137 93.589C56.3104 93.589 56.3068 93.589 56.3035 93.589C55.4997 93.5781 53.6854 92.1031 51.8876 86.9332C54.8156 86.6837 57.8114 86.6839 60.7385 86.9332C58.9404 92.1036 57.1259 93.5785 56.3221 93.5892C56.3192 93.589 56.3166 93.589 56.3137 93.589ZM64.9938 87.4849C66.2798 87.709 67.5471 87.9799 68.7865 88.3017C67.0114 89.9462 65.1185 91.2198 63.1418 92.1044C63.8049 90.791 64.4219 89.2485 64.9938 87.4849ZM71.8877 79.3447V84.8027C70.026 84.2328 68.1034 83.7648 66.1374 83.4058C66.8415 80.4913 67.4115 77.257 67.8356 73.7999C69.4706 74.0084 71.0859 74.2618 72.6698 74.5588C72.1653 76.0637 71.8877 77.6718 71.8877 79.3447ZM64.0827 69.1744C58.9676 68.7647 53.6575 68.7647 48.5431 69.1746C48.3111 66.4148 48.17 63.5389 48.1241 60.5953H64.5019C64.4561 63.5389 64.3147 66.4145 64.0827 69.1744ZM48.1241 56.3805C48.17 53.4358 48.3113 50.559 48.5435 47.7983C51.1026 48.0062 53.6998 48.1126 56.3139 48.1126C58.9273 48.1126 61.5241 48.0064 64.0827 47.7985C64.3149 50.5593 64.4563 53.436 64.5021 56.3805H48.1241ZM56.3128 23.3868C57.1121 23.3868 58.9333 24.8538 60.7376 30.041C59.2791 30.1661 57.8032 30.2329 56.3137 30.2329C54.8238 30.2329 53.3471 30.1661 51.8882 30.041C53.6925 24.8538 55.5134 23.3871 56.3128 23.3868ZM56.3137 34.4476C58.2126 34.4476 60.0942 34.35 61.9483 34.1616C62.6557 37.0011 63.2269 40.184 63.6494 43.6056C61.2354 43.7986 58.7835 43.8975 56.3139 43.8975C53.8436 43.8975 51.3913 43.7984 48.9769 43.6054C49.3993 40.1838 49.9703 37.0009 50.6779 34.1612C52.5323 34.35 54.4143 34.4476 56.3137 34.4476ZM67.8351 43.1721C67.4111 39.7162 66.841 36.4825 66.1369 33.5689C68.1214 33.2073 70.0617 32.7376 71.9413 32.1593C73.9785 34.8149 75.7079 37.9821 77.0268 41.4682C74.0852 42.1958 71.005 42.7668 67.8351 43.1721ZM64.9953 29.4904C64.4235 27.7264 63.8056 26.1866 63.1425 24.8727C65.1167 25.7571 67.0079 27.0298 68.782 28.6727C67.5438 28.9944 66.2801 29.2673 64.9953 29.4904ZM49.4849 24.8729C48.8215 26.1871 48.2032 27.7257 47.6312 29.4902C46.3466 29.267 45.0833 28.9942 43.8453 28.6725C45.6193 27.0298 47.5104 25.7574 49.4849 24.8729ZM46.4889 33.5686C45.7848 36.4822 45.2147 39.7159 44.7907 43.1719C41.6212 42.7668 38.5414 42.1958 35.6002 41.4682C36.9193 37.9803 38.6487 34.8131 40.6854 32.1593C42.5648 32.7374 44.5049 33.2071 46.4889 33.5686ZM44.3573 47.3628C44.1105 50.268 43.961 53.291 43.9142 56.3805H32.6487C32.7987 52.6159 33.3519 48.9658 34.3001 45.4837C37.5179 46.2925 40.8892 46.9227 44.3573 47.3628ZM25.1001 74.4712C22.9023 70.1709 21.614 65.4402 21.324 60.5953H28.435C28.5881 64.7481 29.1956 68.7795 30.2464 72.6284C28.4638 73.1867 26.7435 73.803 25.1001 74.4712ZM44.7905 73.8012C45.2145 77.2579 45.7845 80.492 46.4886 83.406C44.5049 83.7683 42.5648 84.2415 40.686 84.8189C38.6487 82.1622 36.919 78.994 35.6004 75.5071C38.5437 74.7773 41.6192 74.2054 44.7905 73.8012ZM68.2691 69.6068C68.5155 66.7036 68.6648 63.6826 68.7118 60.5953H76.236C76.9204 62.7471 78.2355 64.6186 79.9623 65.9939C77.8465 67.1078 76.0278 68.7105 74.6542 70.652C72.5734 70.2301 70.4368 69.8807 68.2691 69.6068ZM86.944 64.2246C83.0697 64.2246 79.9177 61.0685 79.9177 57.1893C79.9177 53.31 83.0697 50.154 86.944 50.154C90.8182 50.154 93.9702 53.31 93.9702 57.1893C93.9702 61.0685 90.8182 64.2246 86.944 64.2246ZM86.944 45.9391C85.5393 45.9391 84.1954 46.2009 82.9547 46.6743C82.7799 45.8881 82.5874 45.1112 82.3787 44.345C84.1582 43.7893 85.8792 43.1766 87.5277 42.5066C88.1355 43.6937 88.6734 44.9118 89.14 46.1565C88.4294 46.0147 87.6955 45.9391 86.944 45.9391ZM85.3583 38.8348C83.9876 39.3748 82.5653 39.8739 81.0986 40.3315C79.7888 36.7822 78.0847 33.5076 76.0759 30.6706C76.4219 30.5273 76.7667 30.382 77.1072 30.2309C80.3128 32.6019 83.1216 35.5339 85.3583 38.8348ZM35.5202 30.2309C35.8605 30.382 36.205 30.5271 36.5508 30.6701C34.5427 33.5059 32.8385 36.7806 31.5285 40.3313C30.0619 39.8737 28.6397 39.3745 27.269 38.8346C29.5056 35.5341 32.3144 32.6021 35.5202 30.2309ZM23.0574 16.2149C26.9316 16.2149 30.0836 19.3709 30.0836 23.2502C30.0836 27.1294 26.9316 30.2855 23.0574 30.2855C19.1831 30.2855 16.0312 27.1294 16.0312 23.2502C16.0312 19.3709 19.1831 16.2149 23.0574 16.2149ZM16.0312 79.3196V61.1246C16.0312 59.9607 15.0889 59.0172 13.9264 59.0172C12.9798 59.0172 12.2094 58.247 12.2094 57.3002V45.4054C12.2094 39.4165 17.0753 34.5443 23.0565 34.5443C23.7291 34.5443 24.3898 34.6077 25.0371 34.7271C24.0568 36.0166 23.1535 37.3625 22.3429 38.7594C18.8792 44.7259 17.0485 51.548 17.0485 58.4881C17.0485 64.428 18.3938 70.2796 20.9518 75.5841V79.8454H16.5562C16.2667 79.8454 16.0312 79.6096 16.0312 79.3196ZM27.2692 78.1417C28.6358 77.6033 30.0585 77.1028 31.5281 76.6429C32.8374 80.1919 34.5411 83.4666 36.5495 86.3043C36.2019 86.4481 35.8565 86.5936 35.5171 86.7442C32.3137 84.3744 29.506 81.443 27.2692 78.1417ZM97.7908 91.2386C97.7908 92.1861 97.0209 92.9567 96.0749 92.9567C94.9124 92.9567 93.9702 93.9002 93.9702 95.0642V113.259C93.9702 113.549 93.7347 113.785 93.4453 113.785H89.0487V97.633C89.0487 96.4691 88.1064 95.5256 86.944 95.5256C85.7815 95.5256 84.8392 96.4691 84.8392 97.633V113.785H80.4426C80.153 113.785 79.9177 113.549 79.9177 113.26V95.0642C79.9177 93.9002 78.9755 92.9567 77.813 92.9567C76.8668 92.9567 76.0971 92.1859 76.0971 91.2386V79.3447C76.0971 73.356 80.963 68.4838 86.944 68.4838C92.9249 68.4838 97.7908 73.356 97.7908 79.3447V91.2386Z" />
    </symbol>
    <symbol id="career-8" viewBox="0 0 100 100">
        <path d="M95.2214 46.3745C93.4579 44.6124 91.4282 43.2153 89.2261 42.2107C93.2142 39.4867 95.8376 34.9055 95.8376 29.7219C95.8376 21.3872 89.0568 14.6064 80.7221 14.6064C72.3873 14.6064 65.6066 21.3872 65.6066 29.7219C65.6066 34.7825 68.1089 39.2667 71.9383 42.0116C66.77 44.0061 62.331 47.7281 59.5003 52.6709C58.6431 54.1647 57.0422 55.0928 55.322 55.0928H48.1533C46.4327 55.0928 44.8324 54.1654 43.9769 52.6721C41.145 47.7286 36.7055 44.0066 31.5375 42.0118C35.3669 39.2669 37.8692 34.7828 37.8692 29.7222C37.869 21.3872 31.0882 14.6064 22.7535 14.6064C14.4188 14.6064 7.63801 21.3872 7.63801 29.7219C7.63801 34.9085 10.2645 39.4921 14.2566 42.2157C7.1784 45.4515 2.24805 52.5985 2.24805 60.8764V77.6351C2.24805 81.0621 4.52068 83.968 7.63824 84.9249V108.662C7.63824 111.939 10.3044 114.605 13.5814 114.605H31.9259C35.2028 114.605 37.869 111.939 37.869 108.662V66.2969C41.3319 68.6377 45.4507 69.9251 49.7014 69.9251L53.7737 69.9253C56.765 69.9253 59.6641 69.307 62.39 68.0876C63.522 67.5812 64.5964 66.9848 65.6077 66.3016V108.664C65.6077 111.94 68.2737 114.606 71.5506 114.606H89.8951C93.1721 114.606 95.838 111.94 95.838 108.664V84.9244C98.9558 83.9676 101.229 81.0611 101.229 77.634V60.8754C101.229 55.3982 99.0955 50.2485 95.2214 46.3745ZM80.7221 19.0732C86.594 19.0732 91.3708 23.8503 91.3708 29.7219C91.3708 35.5936 86.594 40.3707 80.7221 40.3707C74.8502 40.3707 70.0733 35.5936 70.0733 29.7219C70.0733 23.8503 74.8502 19.0732 80.7221 19.0732ZM12.1048 29.7219C12.1048 23.8503 16.8818 19.0732 22.7535 19.0732C28.6252 19.0732 33.4022 23.8503 33.4022 29.7219C33.4022 35.5936 28.6252 40.3707 22.7535 40.3707C16.8818 40.3707 12.1048 35.5936 12.1048 29.7219ZM49.7014 65.4583C44.9883 65.4583 40.4806 63.4508 37.3276 59.9494C36.7967 59.36 35.9941 59.0617 35.2157 59.2138C34.1435 59.4232 33.4025 60.3533 33.4025 61.4079V108.662C33.4025 109.478 32.7414 110.139 31.9259 110.139H26.2686C25.561 110.139 24.9871 109.565 24.9871 108.857V86.721C24.9871 85.5314 24.0895 84.4928 22.9025 84.4159C21.6018 84.3317 20.5204 85.3619 20.5204 86.6443V108.857C20.5204 109.565 19.9467 110.139 19.2389 110.139H13.5814C12.7661 110.139 12.105 109.477 12.105 108.662V83.0251C12.105 81.7918 11.1056 80.7915 9.87209 80.7917C8.13123 80.792 6.7148 79.3758 6.7148 77.6349V61.0355C6.7148 52.1258 14.005 44.7657 22.9143 44.8379C30.0167 44.8953 36.6044 48.7538 40.1249 54.9337C41.7631 57.8093 44.8437 59.5591 48.1533 59.5591H51.2775C52.8124 59.5591 54.1559 60.696 54.2998 62.2244C54.4648 63.9779 53.0839 65.4581 51.3637 65.4581H49.7014V65.4583ZM96.7622 77.634C96.7622 79.3751 95.3455 80.7917 93.6042 80.7913C92.3709 80.791 91.3715 81.7913 91.3715 83.0246V108.664C91.3715 109.479 90.7107 110.14 89.8954 110.14H84.2369C83.5293 110.14 82.9554 109.566 82.9554 108.858V86.721C82.9554 85.5314 82.0576 84.4928 80.8704 84.4159C79.5696 84.3317 78.4887 85.3619 78.4887 86.6446V108.858C78.4887 109.566 77.9151 110.14 77.2072 110.14H71.5506C70.7353 110.14 70.0745 109.479 70.0745 108.664V61.4878C70.0745 60.6558 69.6544 59.8568 68.9258 59.4552C67.9975 58.9437 66.8643 59.151 66.1774 59.9184C64.6091 61.6696 62.7215 63.0465 60.5664 64.0106C59.8644 64.3244 59.1467 64.5826 58.4179 64.7949C58.6521 64.0743 58.78 63.3065 58.78 62.5091C58.78 61.3059 58.4901 60.1697 57.9795 59.1639C60.2255 58.489 62.1782 56.9797 63.3755 54.8923C66.9271 48.6906 73.5739 44.8379 80.7216 44.8379C85.0052 44.8379 89.033 46.5059 92.0634 49.5339C95.0935 52.5637 96.7619 56.5916 96.7619 60.8759V77.634H96.7622Z" />
    </symbol>
    <symbol id="cond-1" viewBox="0 0 83 91">
        <path  d="M88.8979 75.1285C88.8947 72.6147 87.8945 70.2048 86.1169 68.4275C84.3392 66.6501 81.9291 65.6504 79.4153 65.6477H75.22V64.6195C75.22 60.7789 76.2964 57.1709 78.3303 54.1811C79.8726 51.9169 80.695 49.2396 80.6898 46.5C80.6898 39.7799 75.8934 34.3377 69.7502 33.0977V0H4.10254V93H83.4281V82.0587H88.8979V75.1285ZM75.22 46.5C75.2239 48.1418 74.7316 49.7464 73.8078 51.1035C71.1521 55.0043 69.7502 59.6767 69.7502 64.6195V65.6477H64.2804V64.6195C64.2804 59.7008 62.8716 55.0216 60.2108 51.0846C59.2585 49.6791 58.769 48.0112 58.8106 46.314C58.9071 41.9568 62.5307 38.3573 66.893 38.2953C67.9809 38.2787 69.0611 38.4786 70.0709 38.8835C71.0807 39.2884 71.9999 39.8901 72.7748 40.6537C73.5498 41.4173 74.1651 42.3275 74.5849 43.3312C75.0047 44.3349 75.2206 45.412 75.22 46.5ZM9.57576 87.5285V5.46978H64.2822V33.1011C58.2303 34.3377 53.4855 39.6679 53.3443 46.1952C53.2756 49.0255 54.0927 51.8067 55.6814 54.1501C57.7291 57.1778 58.8106 60.7979 58.8106 64.6195V65.6477H54.617C52.1032 65.6504 49.6932 66.6501 47.9155 68.4275C46.1378 70.2048 45.1377 72.6147 45.1345 75.1285V82.0587H50.6043V87.5285H9.57576ZM77.9583 87.5285H56.074V82.0587H77.9566L77.9583 87.5285ZM83.4281 76.5889H50.6025V75.1302C50.6035 74.0663 51.0265 73.0461 51.7789 72.2938C52.5312 71.5414 53.5513 71.1184 54.6153 71.1174H79.4153C80.4793 71.1184 81.4994 71.5414 82.2518 72.2938C83.0041 73.0461 83.4272 74.0663 83.4281 75.1302V76.5889Z"
        fill="white" />
        <path d="M25.9852 60.1758C19.9523 60.1758 15.0439 65.0841 15.0439 71.1171C15.0439 77.15 19.9523 82.0583 25.9852 82.0583C32.0182 82.0583 36.9265 77.15 36.9265 71.1171C36.9265 65.0841 32.0182 60.1758 25.9852 60.1758ZM25.9852 76.5886C22.9696 76.5886 20.5154 74.1344 20.5154 71.1171C20.5154 68.0997 22.9696 65.6473 25.9852 65.6473C29.0008 65.6473 31.4567 68.1014 31.4567 71.1171C31.4567 74.1327 29.0026 76.5886 25.9852 76.5886ZM15.0439 24.6171H56.0759V30.0868H15.0439V24.6171ZM15.0439 13.6758H34.1916V19.1473H15.0439V13.6758ZM15.0439 35.5583H42.398V41.0298H15.0439V35.5583ZM15.0439 46.4996H42.398V51.9694H15.0439V46.4996Z"
        fill="white" />
    </symbol>
    <symbol id="cond-2" viewBox="0 0 83 91">
        <path d="M92.4558 38.9184C93.0199 37.4438 93.1455 35.8374 92.8173 34.293C92.4891 32.7486 91.7212 31.3321 90.6061 30.2143L62.7836 2.39182C61.2494 0.861408 59.1708 0.00195313 57.0038 0.00195312C54.8368 0.00195313 52.7583 0.861408 51.2241 2.39182L19.9451 33.6708H8.17367C6.00657 33.6731 3.92889 34.535 2.39653 36.0673C0.864163 37.5997 0.00227947 39.6774 0 41.8445L0 84.8243C0.00227947 86.9913 0.864163 89.069 2.39653 90.6014C3.92889 92.1338 6.00657 92.9956 8.17367 92.9979H84.8263C86.9934 92.9956 89.0711 92.1338 90.6035 90.6014C92.1358 89.069 92.9977 86.9913 93 84.8243V41.8445C93 40.8129 92.8054 39.8295 92.4558 38.9184ZM86.5382 33.8534C85.9756 33.7324 85.4018 33.6712 84.8263 33.6708H78.9226L82.6391 29.9543L86.5382 33.8534ZM78.7865 26.0999L71.2156 33.6708H63.5087L74.9322 22.2473L78.7865 26.0999ZM55.0767 6.24443C55.3299 5.99127 55.6307 5.79065 55.9617 5.6541C56.2927 5.51755 56.6475 5.44777 57.0056 5.44876C57.7013 5.44876 58.4006 5.71398 58.931 6.24443L71.0796 18.3947L55.8034 33.6708H27.652L55.0767 6.24443ZM87.5509 84.8243C87.5509 86.326 86.3281 87.5488 84.8263 87.5488H8.17367C6.67189 87.5488 5.44911 86.326 5.44911 84.8243V41.8445C5.44911 40.3427 6.67189 39.1199 8.17367 39.1199H84.8263C86.3281 39.1199 87.5509 40.3427 87.5509 41.8445V84.8243Z"/>
        <path d="M10.7173 73.8517H23.4135V79.3009H10.7173V73.8517ZM30.3403 73.8517H43.0365V79.3009H30.3403V73.8517ZM49.9616 73.8517H62.6595V79.3009H49.9633L49.9616 73.8517ZM69.5863 73.8517H82.2825V79.3009H69.5863V73.8517ZM24.7517 46.3857H15.4396C14.2356 46.3871 13.0812 46.866 12.2298 47.7174C11.3784 48.5688 10.8995 49.7232 10.8981 50.9272V58.1916C10.8995 59.3956 11.3784 60.55 12.2298 61.4014C13.0812 62.2528 14.2356 62.7317 15.4396 62.7331H24.7517C25.9557 62.7317 27.1101 62.2528 27.9615 61.4014C28.8129 60.55 29.2918 59.3956 29.2932 58.1916V50.9272C29.2918 49.7232 28.8129 48.5688 27.9615 47.7174C27.1101 46.866 25.9557 46.3871 24.7517 46.3857ZM23.8441 57.284H16.3472V51.8349H23.8441V57.284Z"/>
    </symbol>
    <symbol id="cond-3" viewBox="0 0 83 91">
        <path d="M83.6191 75.0437V65.0704L84.8246 65.7937L87.6284 61.1196L68.3877 49.5755L49.1471 61.1196L51.9508 65.7937L53.1564 65.0704V75.042H39.8436V65.0704L41.0492 65.7937L43.8529 61.1196L24.6123 49.5755L5.37161 61.1213L8.17539 65.7954L9.38094 65.0721V75.0437H0V80.4946H93V75.0455L83.6191 75.0437ZM27.3368 75.0437V68.3874H21.8877V75.0437H14.8301V61.7999L24.6123 55.9305L34.3945 61.7999V75.0437H27.3368ZM71.1123 75.0437V68.3874H65.6632V75.0437H58.6055V61.7999L68.3877 55.9305L78.1699 61.7999V75.0437H71.1123ZM0 87.5505H93V92.9996H0V87.5505ZM56.9281 18.2586L53.0754 14.4043L44.6934 22.7864L39.9246 18.0158L36.0719 21.8701L44.6934 30.4916L56.9281 18.2586Z"
        fill="white" />
        <path d="M67.9846 6.262C61.8879 6.72528 56.2976 4.40544 54.3273 0H38.6723C36.7021 4.40544 31.1118 6.72528 25.0151 6.262C25.6179 22.816 20.1068 38.7173 46.4998 49.2246C72.8912 38.719 67.38 22.816 67.9846 6.262ZM46.4998 43.4362C31.2651 36.3234 29.7082 29.4293 30.4642 11.4803C34.5235 10.8224 39.0426 8.75922 41.6759 5.44911H51.3221C53.9553 8.75922 58.4744 10.8224 62.5337 11.4803C63.2898 29.4293 61.7312 36.3234 46.4998 43.4362Z"
        fill="white" />
    </symbol>
    <symbol id="cond-4" viewBox="0 0 83 91">
        <path d="M64.0212 38.5089H78.8788L39.5002 0L0.121582 38.5089H14.9792V76.6527H4.08097V93H74.9194V76.6527H64.0212V38.5089ZM13.4877 33.0581L39.5002 7.62083L65.5126 33.0581H58.5721V76.6527H53.123V71.2036H47.6739V60.3053H53.123V43.9563C53.1198 41.0669 51.9706 38.2967 49.9274 36.2536C47.8843 34.2105 45.1142 33.0612 42.2248 33.0581H36.7756C33.8862 33.0612 31.1161 34.2105 29.073 36.2536C27.0298 38.2967 25.8806 41.0669 25.8774 43.9563V60.3053H31.3265V71.2036H25.8774V76.6527H20.4283V33.0581H13.4877ZM31.3265 54.8545V43.9563C31.3283 42.5116 31.903 41.1267 32.9245 40.1052C33.9461 39.0837 35.331 38.509 36.7756 38.5072H42.2248C43.6694 38.509 45.0543 39.0837 46.0758 40.1052C47.0974 41.1267 47.672 42.5116 47.6739 43.9563V54.8562H42.2248V71.2036H36.7756V54.8562L31.3265 54.8545ZM47.6739 76.6527V87.5509H31.3265V76.6527H47.6739ZM9.53008 82.1018H25.8774V87.5509H9.53008V82.1018ZM69.4703 87.5509H53.123V82.1018H69.4703V87.5509Z"/>
        <path d="M47.674 24.8863C47.674 20.3775 44.0074 16.7109 39.5003 16.7109C34.9933 16.7109 31.3267 20.3793 31.3267 24.8846C31.3267 29.3899 34.9933 33.0583 39.5003 33.0583C44.0074 33.0583 47.674 29.3934 47.674 24.8863ZM39.5003 27.6074C37.9985 27.6074 36.7758 26.3847 36.7758 24.8829C36.7758 23.3811 37.9985 22.1583 39.5003 22.1583C41.0021 22.1583 42.2249 23.3811 42.2249 24.8829C42.2249 26.3847 41.0021 27.6074 39.5003 27.6074Z"/>
    </symbol>
    <symbol id="cond-5" viewBox="0 0 83 91">
        <path d="M28.0334 52.5226C28.0306 50.1664 27.0935 47.9074 25.4276 46.2412C23.7617 44.5749 21.5029 43.6374 19.1467 43.6342C16.7903 43.6365 14.5311 44.5734 12.8648 46.2395C11.1984 47.9055 10.261 50.1645 10.2583 52.5209C10.261 54.8771 11.1981 57.136 12.8641 58.8023C14.53 60.4685 16.7888 61.4061 19.145 61.4093C21.5015 61.407 23.7609 60.4701 25.4275 58.8041C27.0941 57.1381 28.0302 54.8791 28.0334 52.5226ZM15.7074 52.5226C15.7074 50.6247 17.2505 49.0833 19.1467 49.0833C20.0584 49.0847 20.9324 49.4475 21.5771 50.0922C22.2218 50.7369 22.5846 51.6109 22.586 52.5226C22.5841 53.434 22.2212 54.3076 21.5765 54.9519C20.9319 55.5962 20.0581 55.9588 19.1467 55.9601C18.235 55.9588 17.361 55.596 16.7163 54.9513C16.0716 54.3066 15.7088 53.4343 15.7074 52.5226ZM73.8445 10.2627C71.4883 10.2654 69.2293 11.2025 67.563 12.8685C65.8968 14.5344 64.9593 16.7932 64.9561 19.1494C64.9561 24.0525 68.943 28.0395 73.8445 28.0395C78.7459 28.0395 82.7311 24.0525 82.7311 19.1511C82.7289 16.7947 81.7919 14.5355 80.1259 12.8692C78.4598 11.2028 76.2008 10.2654 73.8445 10.2627ZM73.8445 22.5904C72.9327 22.589 72.0587 22.2262 71.414 21.5815C70.7693 20.9368 70.4066 20.0628 70.4052 19.1511C70.4066 18.2394 70.7693 17.3654 71.414 16.7207C72.0587 16.076 72.9327 15.7132 73.8445 15.7118C74.7562 15.7132 75.6302 16.076 76.2749 16.7207C76.9196 17.3654 77.2824 18.2394 77.2837 19.1511C77.2824 20.0628 76.9196 20.9368 76.2749 21.5815C75.6302 22.2262 74.7562 22.589 73.8445 22.5904Z" fill="white"/>
        <path d="M93 19.1511C93 8.59044 84.4096 0 73.8489 0C63.2882 0 54.6978 8.59044 54.6978 19.1511C54.6978 23.6341 56.2788 27.9913 59.1497 31.4271L69.0077 43.8357C67.1116 45.0189 65.711 46.8518 65.0673 48.9921H54.4326C51.3342 48.9952 48.3637 50.2273 46.1727 52.418C43.9817 54.6087 42.7492 57.579 42.7456 60.6773C42.7492 63.7756 43.9817 66.746 46.1727 68.9367C48.3637 71.1273 51.3342 72.3594 54.4326 72.3626H71.6203C73.1204 72.3649 74.5583 72.9619 75.6189 74.0228C76.6794 75.0836 77.276 76.5218 77.2778 78.0218C77.2756 79.5219 76.6785 80.9598 75.6177 82.0204C74.5568 83.0809 73.1187 83.6775 71.6186 83.6793H28.3133C28.2897 82.2703 27.941 80.8857 27.2946 79.6335C26.6482 78.3813 25.7214 77.2952 24.5864 76.4598L33.852 64.7969C36.727 61.3521 38.3025 57.0078 38.3039 52.5209C38.3039 41.9619 29.7135 33.3698 19.1528 33.3698C8.59045 33.3715 0 41.9637 0 52.5226C0 57.0056 1.581 61.3628 4.45194 64.7986L13.7175 76.4615C12.5608 77.312 11.6202 78.4226 10.9719 79.7037C10.3236 80.9847 9.9857 82.4003 9.98544 83.8361C9.98864 86.2658 10.9554 88.5951 12.6736 90.313C14.3919 92.031 16.7214 92.9973 19.1511 93C22.2339 93 24.9619 91.4672 26.6256 89.1302H71.6186C74.5637 89.127 77.3873 87.9556 79.4699 85.8731C81.5524 83.7906 82.7238 80.967 82.7269 78.0218C82.7238 75.0767 81.5524 72.2531 79.4699 70.1706C77.3873 68.0881 74.5637 66.9167 71.6186 66.9135H54.4308C50.9933 66.9135 48.1964 64.1149 48.1964 60.6773C48.1964 57.2398 50.9933 54.4412 54.4308 54.4412H65.1327C65.7321 56.2814 66.8977 57.8852 68.4631 59.0234C70.0285 60.1616 71.9135 60.7761 73.8489 60.7789C76.2792 60.7762 78.6092 59.8094 80.3276 58.0908C82.0459 56.3721 83.0123 54.0419 83.0146 51.6116C83.0135 50.055 82.6162 48.5244 81.8599 47.164C81.1036 45.8036 80.0133 44.6581 78.6918 43.8357L88.5481 31.4271C91.423 27.9822 92.9984 23.638 93 19.1511ZM8.65072 61.3232C6.58382 58.8563 5.45048 55.7409 5.44911 52.5226C5.44911 44.9672 11.5974 38.8206 19.1511 38.8206C26.7065 38.8206 32.8531 44.9672 32.8531 52.5226C32.8531 55.738 31.7164 58.8638 29.6498 61.3232L19.1511 74.5412L8.69722 61.38L8.65072 61.3232ZM19.1511 87.5509C18.1657 87.55 17.2209 87.1581 16.5241 86.4613C15.8273 85.7645 15.4355 84.8197 15.4346 83.8343C15.4359 82.8492 15.828 81.9049 16.5247 81.2085C17.2215 80.512 18.166 80.1204 19.1511 80.1195C20.1362 80.1204 21.0808 80.512 21.7775 81.2085C22.4742 81.9049 22.8663 82.8492 22.8677 83.8343C22.8668 84.8197 22.4749 85.7645 21.7781 86.4613C21.0813 87.1581 20.1365 87.55 19.1511 87.5509ZM73.8489 55.3281C72.8635 55.3272 71.9187 54.9353 71.2219 54.2385C70.5251 53.5418 70.1332 52.597 70.1323 51.6116C70.1337 50.6264 70.5258 49.6821 71.2225 48.9857C71.9192 48.2893 72.8638 47.8976 73.8489 47.8967C74.834 47.8976 75.7785 48.2893 76.4753 48.9857C77.172 49.6821 77.5641 50.6264 77.5654 51.6116C77.5645 52.597 77.1727 53.5418 76.4759 54.2385C75.7791 54.9353 74.8343 55.3272 73.8489 55.3281ZM84.3493 27.9534L73.8489 41.1697L63.395 28.0102L63.3485 27.9534C61.2815 25.4859 60.1482 22.37 60.1469 19.1511C60.1469 11.5957 66.2952 5.44911 73.8489 5.44911C81.4043 5.44911 87.5509 11.5974 87.5509 19.1511C87.5509 22.3665 86.4142 25.4923 84.3493 27.9517V27.9534Z"/>
    </symbol>
    <symbol id="cond-6" viewBox="0 0 83 91">
        <path d="M79.3807 13.6193C70.5973 4.836 58.9207 0 46.5 0C34.0793 0 22.4027 4.83772 13.6193 13.6193C4.836 22.4027 0 34.0793 0 46.5C0 58.9207 4.83772 70.5973 13.6193 79.3807C22.4027 88.164 34.0793 93 46.5 93C58.9207 93 70.5973 88.164 79.3807 79.3807C88.164 70.5973 93 58.9207 93 46.5C93 34.0793 88.164 22.4027 79.3807 13.6193ZM79.8026 57.3311L87.1909 51.9646C86.5428 56.8922 84.9958 61.659 82.6271 66.0283L79.8026 57.3311ZM76.1222 53.2701L66.7499 50.2217L60.698 31.6011L66.4916 23.6272L80.6034 23.6289C84.866 29.9599 87.2627 37.3617 87.5199 44.9896L76.1222 53.2701ZM46.5 62.155L31.6166 51.3429L37.3016 33.8451H55.6984L61.3834 51.3429L46.5 62.155ZM26.2501 50.22L16.8778 53.2718L5.48011 44.9913C5.737 37.3629 8.13369 29.9604 12.3966 23.6289H26.5084L32.302 31.6028L26.2501 50.22ZM10.3712 66.0266C8.00371 61.6571 6.45797 56.8902 5.81078 51.9629L13.1974 57.3293L10.3712 66.0266ZM76.2169 18.1781H67.0823L64.2509 9.46361C68.7343 11.6201 72.7887 14.5728 76.2169 18.1781ZM57.7203 6.99394L62.0809 20.4238L56.2891 28.3977H36.7109L30.9191 20.4238L35.2814 6.99394C38.8861 5.97611 42.6526 5.44739 46.5 5.44739C50.3474 5.44739 54.1157 5.97611 57.7203 6.99394ZM28.7473 9.46361L25.916 18.1781L16.7813 18.1798C20.2099 14.5737 24.265 11.6204 28.7491 9.46361H28.7473ZM14.2101 71.8546L18.5638 58.4522L27.9344 55.4056L43.7754 66.9135V76.7698L32.364 85.0606C26.7652 83.0062 21.6831 79.7527 17.4737 75.5281C16.3145 74.3688 15.2247 73.1422 14.2101 71.8546ZM39.1168 86.8896L46.5 81.5266L53.8832 86.8896C49.0006 87.7721 43.9994 87.7721 39.1168 86.8896ZM60.636 85.0606L49.2246 76.7698V66.9135L65.0656 55.4056L74.4362 58.4522L78.7899 71.8546C77.7751 73.1421 76.6854 74.3687 75.5263 75.5281C71.3169 79.7528 66.2349 83.0063 60.636 85.0606Z"/>
    </symbol>
    <symbol id="del" viewBox="0 0 16 17">
       <path d="M13.2378 6.45174L11.8085 14.9851C11.7861 15.1075 11.7215 15.2182 11.6261 15.2981C11.5306 15.378 11.4102 15.422 11.2858 15.4224H4.71512C4.59066 15.422 4.47028 15.378 4.37483 15.2981C4.27937 15.2182 4.21486 15.1075 4.19246 14.9851L2.76312 6.45174C2.75081 6.37579 2.75508 6.29808 2.77563 6.22394C2.79618 6.1498 2.83252 6.08098 2.88218 6.02221C2.93183 5.96343 2.99361 5.9161 3.06328 5.88345C3.13295 5.85081 3.20885 5.83362 3.28579 5.83307H12.7045C12.7823 5.83207 12.8594 5.84811 12.9304 5.88008C13.0013 5.91205 13.0645 5.95917 13.1153 6.01813C13.1661 6.07709 13.2034 6.14645 13.2246 6.22136C13.2457 6.29627 13.2503 6.3749 13.2378 6.45174ZM13.8671 4.23307C13.8671 4.37452 13.8109 4.51018 13.7109 4.6102C13.6109 4.71022 13.4752 4.76641 13.3338 4.76641H2.66712C2.52567 4.76641 2.39002 4.71022 2.29 4.6102C2.18998 4.51018 2.13379 4.37452 2.13379 4.23307C2.13379 4.09162 2.18998 3.95597 2.29 3.85595C2.39002 3.75593 2.52567 3.69974 2.66712 3.69974H5.33379V2.09974C5.33379 1.95829 5.38998 1.82264 5.49 1.72262C5.59002 1.6226 5.72567 1.56641 5.86712 1.56641H10.1338C10.2752 1.56641 10.4109 1.6226 10.5109 1.72262C10.6109 1.82264 10.6671 1.95829 10.6671 2.09974V3.69974H13.3338C13.4752 3.69974 13.6109 3.75593 13.7109 3.85595C13.8109 3.95597 13.8671 4.09162 13.8671 4.23307ZM9.60046 3.69974V2.63307H6.40046V3.69974H9.60046Z" />
    </symbol>
</svg>