<svg xmlns="http://www.w3.org/2000/svg" width="24" height="24" viewBox="0 0 24 24" fill="none">
<path d="M19.1879 3.58807C18.6722 3.07237 17.9727 2.78266 17.2434 2.78266C16.5141 2.78266 15.8146 3.07237 15.2989 3.58807L5.57592 13.3101C4.732 14.154 4.25789 15.2986 4.25789 16.4921C4.25789 17.6856 4.732 18.8302 5.57592 19.6741C6.41984 20.518 7.56444 20.9921 8.75792 20.9921C9.9514 20.9921 11.096 20.518 11.9399 19.6741L20.6019 11.0121C20.7433 10.8754 20.9327 10.7997 21.1294 10.8013C21.326 10.8029 21.5142 10.8817 21.6533 11.0207C21.7924 11.1597 21.8714 11.3478 21.8732 11.5444C21.875 11.7411 21.7995 11.9306 21.6629 12.0721L13.0009 20.7351C11.8726 21.8452 10.3514 22.4644 8.76854 22.458C7.18572 22.4515 5.66956 21.8199 4.55033 20.7007C3.43109 19.5814 2.79946 18.0653 2.79302 16.4825C2.78657 14.8996 3.40584 13.3784 4.51592 12.2501L14.2389 2.52707C14.764 1.98926 15.4225 1.60044 16.147 1.40034C16.8715 1.20023 17.6362 1.196 18.3629 1.38807C19.0897 1.57953 19.7527 1.96043 20.2841 2.49188C20.8156 3.02333 21.1965 3.68629 21.3879 4.41307C21.58 5.13978 21.5758 5.90444 21.3757 6.62897C21.1755 7.35351 20.7867 8.01195 20.2489 8.53707L11.0559 17.7301C10.5639 18.2251 9.89588 18.5052 9.19792 18.5091C8.85286 18.5074 8.51151 18.4377 8.19339 18.3041C7.87527 18.1704 7.58661 17.9754 7.34392 17.7301C7.14792 17.5341 7.00592 17.2601 6.91392 17.0041C6.80425 16.7007 6.74743 16.3807 6.74592 16.0581C6.74592 15.3581 7.02992 14.6851 7.52092 14.1941L15.6529 6.06307C15.7446 5.96435 15.8612 5.89218 15.9904 5.85416C16.1197 5.81615 16.2568 5.8137 16.3873 5.84707C16.5178 5.88045 16.637 5.94841 16.7321 6.04379C16.8272 6.13918 16.8949 6.25846 16.9279 6.38907C16.9613 6.51945 16.959 6.65642 16.9212 6.78558C16.8833 6.91475 16.8114 7.03133 16.7129 7.12307L8.58192 15.2551C8.36885 15.4683 8.24816 15.7567 8.24592 16.0581C8.24892 16.2621 8.29892 16.4631 8.39192 16.6451C8.40192 16.6631 8.40992 16.6731 8.41192 16.6771C8.63192 16.8921 8.91292 17.0091 9.19792 17.0091C9.48792 17.0091 9.77792 16.8881 9.99592 16.6691L19.1879 7.47707C19.4434 7.22169 19.6461 6.91848 19.7844 6.58475C19.9227 6.25102 19.9938 5.89332 19.9938 5.53207C19.9938 5.17083 19.9227 4.81312 19.7844 4.4794C19.6461 4.14567 19.4434 3.84245 19.1879 3.58707V3.58807Z" fill="black"/>
</svg>