<svg xmlns="http://www.w3.org/2000/svg" width="38" height="41" viewBox="0 0 38 41" fill="none">
    <path d="M4.76701 6.08373H1.60294C1.60294 6.08373 0.988041 3.6904 3.74147 3.5907H9.86617C9.86617 3.40824 9.98719 3.24235 10.1767 3.20104L24.7508 0.00984116C24.9706 -0.0328794 25.1889 0.0978699 25.2382 0.312225C25.2446 0.341913 25.2398 0.370566 25.2398 0.399454H25.5566C25.5566 0.341913 25.5662 0.283478 25.5933 0.227302C25.6913 0.0278609 25.9349 -0.0562157 26.1362 0.0395762L35.3089 4.32772C35.5072 4.42031 35.5907 4.64803 35.5065 4.84263L36.5606 4.86055C36.5606 4.86055 37.0703 6.08373 32.5859 6.08373H27.49V8.97579H20.7634V6.08373H5.58237V25.3437C5.58237 25.3772 5.57112 25.4069 5.56323 25.4381C6.3921 25.6135 7.01556 26.3338 7.01556 27.1974C7.01556 28.0528 6.4009 28.7679 5.58237 28.9503V30.146C5.58237 30.2841 5.50986 30.4119 5.38979 30.4851L4.72085 30.8926C4.65074 30.9743 4.61237 31.0763 4.61237 31.1846C4.61237 31.3064 4.66036 31.4216 4.74787 31.5071C4.9292 31.6832 5.22376 31.6841 5.40561 31.5064C5.56467 31.3506 5.82279 31.3506 5.98199 31.5064C6.14125 31.6623 6.14125 31.9145 5.98199 32.0703C5.73263 32.315 5.40479 32.4367 5.07667 32.4367C4.74931 32.4367 4.42143 32.315 4.17125 32.071C3.92924 31.8334 3.79716 31.5193 3.79716 31.1844C3.79716 30.8495 3.93006 30.5356 4.17211 30.2993C4.19394 30.2775 4.21842 30.2589 4.24477 30.2426L4.76701 29.9246V28.95C3.94852 28.7675 3.33353 28.0524 3.33353 27.197C3.33353 26.3335 3.95718 25.6131 4.7861 25.4377C4.77817 25.4065 4.76701 25.3768 4.76701 25.3433V6.08373ZM26.3689 4.68765L34.4823 4.82564L26.005 0.862511L26.3689 4.68765ZM21.6806 3.5907L24.3305 4.86055L24.7922 0.819367L12.1338 3.59065L21.6806 3.5907ZM4.14903 27.1973C4.14903 27.7504 4.60939 28.2007 5.17476 28.2007C5.73999 28.2007 6.20015 27.7504 6.20015 27.1973C6.20015 26.644 5.73999 26.1938 5.17476 26.1938C4.60944 26.1938 4.14903 26.6441 4.14903 27.1973Z" fill="#D91B1B"/>
    <path d="M22.3992 9.27539H28.9219V15.9007H22.3992V9.27539Z" fill="#D91B1B"/>
    <path d="M23.5164 16.5664H27.7969V32.0393H23.5164V16.5664Z" fill="#D91B1B"/>
    <path d="M20.6609 37.2977L23.5145 35.6437V33.0732H27.795V35.1855L30.5469 37.2977H20.6609Z" fill="#D91B1B"/>
    <ellipse cx="20.2646" cy="38.5151" rx="17.7333" ry="2.48485" fill="#D91B1B"/>
    </svg>