<svg width="96" height="96" viewBox="0 0 96 96" fill="none" xmlns="http://www.w3.org/2000/svg">
<circle cx="48" cy="48" r="47.5" stroke="#D9D9D9"/>
<path d="M72.5 48C72.4987 48.6018 72.3432 49.1933 72.0483 49.7179C71.7535 50.2425 71.3291 50.6829 70.8156 50.9969L39.3156 70.225C38.7909 70.5575 38.185 70.7395 37.5639 70.751C36.9428 70.7626 36.3305 70.6033 35.7938 70.2906C35.2491 69.9918 34.7951 69.5517 34.4794 69.0166C34.1637 68.4815 33.9981 67.8712 34 67.25V28.75C33.9981 28.1287 34.1637 27.5185 34.4794 26.9834C34.7951 26.4483 35.2491 26.0082 35.7938 25.7094C36.3305 25.3966 36.9428 25.2374 37.5639 25.2489C38.185 25.2605 38.7909 25.4425 39.3156 25.775L70.8156 45.0031C71.3291 45.3171 71.7535 45.7574 72.0483 46.2821C72.3432 46.8067 72.4987 47.3982 72.5 48Z" fill="white"/>
</svg>
