<svg width="639" height="302" viewBox="0 0 639 302" fill="none" xmlns="http://www.w3.org/2000/svg">
<g clip-path="url(#clip0_1042_30301)">
<path style="mix-blend-mode:multiply" d="M419.51 25.015V50.5016H274.024V3.22559H169.777V276.042H274.024L531.225 277.741V25.015H419.51Z" fill="url(#paint0_linear_1042_30301)"/>
<path d="M504.78 42.1944H435.934C434.971 42.1944 434.191 41.3291 434.191 40.2593C434.191 39.1895 434.971 38.3242 435.934 38.3242H504.78C505.744 38.3242 506.524 39.1895 506.524 40.2593C506.524 41.3291 505.744 42.1944 504.78 42.1944Z" fill="white"/>
<path d="M504.78 57.3292H435.934C434.971 57.3292 434.191 56.4639 434.191 55.3941C434.191 54.3243 434.971 53.459 435.934 53.459H504.78C505.744 53.459 506.524 54.3243 506.524 55.3941C506.524 56.4639 505.744 57.3292 504.78 57.3292Z" fill="white"/>
<path d="M504.78 72.4483H435.934C434.971 72.4483 434.191 71.583 434.191 70.5132C434.191 69.4434 434.971 68.5781 435.934 68.5781H504.78C505.744 68.5781 506.524 69.4434 506.524 70.5132C506.524 71.583 505.744 72.4483 504.78 72.4483Z" fill="white"/>
<path d="M504.78 87.5831H435.934C434.971 87.5831 434.191 86.7178 434.191 85.648C434.191 84.5782 434.971 83.7129 435.934 83.7129H504.78C505.744 83.7129 506.524 84.5782 506.524 85.648C506.524 86.7178 505.744 87.5831 504.78 87.5831Z" fill="white"/>
<path d="M504.78 102.702H435.934C434.971 102.702 434.191 101.837 434.191 100.767C434.191 99.6973 434.971 98.832 435.934 98.832H504.78C505.744 98.832 506.524 99.6973 506.524 100.767C506.524 101.837 505.744 102.702 504.78 102.702Z" fill="white"/>
<path d="M504.78 117.836H435.934C434.971 117.836 434.191 116.971 434.191 115.901C434.191 114.831 434.971 113.966 435.934 113.966H504.78C505.744 113.966 506.524 114.831 506.524 115.901C506.524 116.971 505.744 117.836 504.78 117.836Z" fill="white"/>
<path d="M190.638 17.4473H181.695V27.3744H190.638V17.4473Z" fill="white"/>
<path d="M208.708 17.4473H199.766V27.3744H208.708V17.4473Z" fill="white"/>
<path d="M226.774 17.4473H217.832V27.3744H226.774V17.4473Z" fill="white"/>
<path d="M244.845 17.4473H235.902V27.3744H244.845V17.4473Z" fill="white"/>
<path d="M190.638 42.1953H181.695V52.1225H190.638V42.1953Z" fill="white"/>
<path d="M208.708 42.1953H199.766V52.1225H208.708V42.1953Z" fill="white"/>
<path d="M226.774 42.1953H217.832V52.1225H226.774V42.1953Z" fill="white"/>
<path d="M244.845 42.1953H235.902V52.1225H244.845V42.1953Z" fill="white"/>
<path d="M190.638 66.9424H181.695V76.8696H190.638V66.9424Z" fill="white"/>
<path d="M208.708 66.9424H199.766V76.8696H208.708V66.9424Z" fill="white"/>
<path d="M226.774 66.9424H217.832V76.8696H226.774V66.9424Z" fill="white"/>
<path d="M244.845 66.9424H235.902V76.8696H244.845V66.9424Z" fill="white"/>
<path d="M361.234 219.751C353.822 237.34 343.831 237.34 340.543 237.34C332.579 237.34 325.989 231.755 320.944 220.758C314.879 207.542 311.662 187.704 311.662 163.397C311.662 163.082 311.662 162.768 311.662 162.453H269.586C269.586 162.658 269.586 162.878 269.586 163.082V163.177C269.869 197.694 276.317 226.437 288.207 246.307C300.523 266.869 318.124 277.74 339.112 277.74C362.212 277.74 381.06 266.618 393.616 245.583C405.421 225.808 411.501 197.835 411.756 162.453H369.709C369.638 186.949 366.718 206.756 361.234 219.751Z" fill="#E53935"/>
<path d="M327.973 286.488H287.98L290.687 269.371L293.366 252.38L296.072 235.263L298.765 218.272L300.777 205.529C301.16 203.075 303.087 201.281 305.341 201.281H310.641C312.894 201.281 314.807 203.075 315.204 205.529L317.217 218.272L319.909 235.263L322.616 252.38L325.294 269.371L328.001 286.488H327.973Z" fill="#FFA726"/>
<path d="M340.388 296.494H275.566L287.981 286.504H327.973L340.388 296.494Z" fill="#FB8C00"/>
<path d="M275.566 296.494H340.388V298.004C340.388 300.207 338.772 302 336.788 302H279.166C277.182 302 275.566 300.207 275.566 298.004V296.494Z" fill="#FFA726"/>
<path d="M319.883 235.263H296.074L298.753 218.272H317.204L319.883 235.263Z" fill="#ECEFF1"/>
<path d="M325.266 269.387H290.688L293.366 252.396H322.588L325.266 269.387Z" fill="#ECEFF1"/>
<path style="mix-blend-mode:multiply" d="M340.388 300.097V296.494L327.974 286.504L325.267 269.387L322.588 252.396L319.882 235.279L317.189 218.288L315.177 205.545C314.78 203.09 312.867 201.297 310.613 201.297L318.479 286.504L327.959 296.494V302H338.659C339.609 302 340.374 301.151 340.374 300.097H340.388Z" fill="url(#paint1_linear_1042_30301)"/>
<path style="mix-blend-mode:multiply" d="M275.566 300.097V296.494L287.981 286.504L290.688 269.387L293.366 252.396L296.073 235.279L298.765 218.288L300.778 205.545C301.175 203.09 303.088 201.297 305.341 201.297L297.476 286.504L287.995 296.494V302H277.295C276.346 302 275.581 301.151 275.581 300.097H275.566Z" fill="url(#paint2_linear_1042_30301)"/>
<path d="M413.642 78.8355C401.511 58.1159 383.457 47.1504 361.406 47.1504C339.355 47.1504 321.286 58.053 308.304 78.6782C295.592 98.8787 288.847 127.842 288.762 162.438H330.837C330.922 137.769 334.267 117.632 340.545 104.18C345.689 93.1363 352.237 87.5513 360.003 87.5513C370.787 87.5513 388.884 97.1638 388.884 161.494C388.884 161.808 388.884 162.123 388.884 162.438H430.932C430.932 161.698 430.96 160.975 430.96 160.235C430.96 125.828 425.136 98.4382 413.657 78.8198L413.642 78.8355Z" fill="#E53935"/>
<path d="M574.038 174.363H556.777V47.166H516.813L514.262 51.225L432.01 181.899L430.465 184.353V215.11H516.118V270.834H556.763V215.11H582.569V174.394H574.01L574.038 174.363ZM480.562 174.363L516.133 119.472V174.363H480.562Z" fill="#E53935"/>
<path d="M102.518 271.275C101.172 271.275 100.024 270.158 99.8682 268.647L73.1546 5.77377C72.9845 4.15332 74.0474 2.67448 75.5071 2.50142C76.9809 2.32836 78.2989 3.49256 78.4548 5.113L105.154 267.971C105.324 269.591 104.261 271.07 102.802 271.243C102.703 271.243 102.603 271.259 102.504 271.259L102.518 271.275Z" fill="#8C9EA5"/>
<path d="M174.807 271.275C173.461 271.275 172.313 270.158 172.157 268.647L145.444 5.77377C145.274 4.15332 146.336 2.67448 147.796 2.50142C149.27 2.32836 150.588 3.49256 150.744 5.113L177.443 267.971C177.613 269.591 176.55 271.07 175.091 271.243C174.992 271.243 174.892 271.259 174.793 271.259L174.807 271.275Z" fill="#8C9EA5"/>
<path d="M150.887 35.8383H78.5979C77.124 35.8383 75.9336 34.5167 75.9336 32.8805C75.9336 31.2444 77.124 29.9229 78.5979 29.9229H150.887C152.361 29.9229 153.552 31.2444 153.552 32.8805C153.552 34.5167 152.361 35.8383 150.887 35.8383Z" fill="#8C9EA5"/>
<path d="M152.401 61.9076H81.6135C80.1396 61.9076 78.9492 60.5861 78.9492 58.9499C78.9492 57.3137 80.1396 55.9922 81.6135 55.9922H152.401C153.875 55.9922 155.065 57.3137 155.065 58.9499C155.065 60.5861 153.875 61.9076 152.401 61.9076Z" fill="#8C9EA5"/>
<path d="M153.904 87.9916H84.633C83.1592 87.9916 81.9688 86.67 81.9688 85.0339C81.9688 83.3977 83.1592 82.0762 84.633 82.0762H153.904C155.378 82.0762 156.568 83.3977 156.568 85.0339C156.568 86.67 155.378 87.9916 153.904 87.9916Z" fill="#8C9EA5"/>
<path d="M158.837 114.076H87.7658C86.292 114.076 85.1016 112.754 85.1016 111.118C85.1016 109.482 86.292 108.16 87.7658 108.16H158.837C160.311 108.16 161.501 109.482 161.501 111.118C161.501 112.754 160.311 114.076 158.837 114.076Z" fill="#8C9EA5"/>
<path d="M161.457 140.161H89.9611C88.4873 140.161 87.2969 138.839 87.2969 137.203C87.2969 135.567 88.4873 134.245 89.9611 134.245H161.457C162.931 134.245 164.121 135.567 164.121 137.203C164.121 138.839 162.931 140.161 161.457 140.161Z" fill="#8C9EA5"/>
<path d="M164.135 166.244H92.5822C91.1084 166.244 89.918 164.923 89.918 163.287C89.918 161.651 91.1084 160.329 92.5822 160.329H164.135C165.609 160.329 166.799 161.651 166.799 163.287C166.799 164.923 165.609 166.244 164.135 166.244Z" fill="#8C9EA5"/>
<path d="M148.634 10.8869H70.9307C68.2239 10.8869 66.0273 8.44832 66.0273 5.44343C66.0273 2.43853 68.2239 0 70.9307 0H148.634C151.341 0 153.537 2.43853 153.537 5.44343C153.537 8.44832 151.341 10.8869 148.634 10.8869Z" fill="#B0BEC5"/>
<path d="M118.18 271.275C118.08 271.275 117.981 271.275 117.882 271.259C116.422 271.07 115.36 269.607 115.53 267.986L142.229 5.113C142.399 3.49256 143.717 2.32836 145.177 2.50142C146.636 2.69021 147.699 4.15332 147.529 5.77377L120.83 268.631C120.674 270.142 119.526 271.259 118.18 271.259V271.275Z" fill="#B0BEC5"/>
<path d="M45.875 271.275C45.7758 271.275 45.6766 271.275 45.5774 271.259C44.1177 271.07 43.0548 269.607 43.2249 267.986L69.9243 5.113C70.0944 3.49256 71.4123 2.32836 72.872 2.50142C74.3317 2.69021 75.3946 4.15332 75.2245 5.77377L48.5251 268.631C48.3692 270.142 47.2213 271.259 45.875 271.259V271.275Z" fill="#B0BEC5"/>
<path d="M142.087 35.8383H69.7971C68.3232 35.8383 67.1328 34.5167 67.1328 32.8805C67.1328 31.2444 68.3232 29.9229 69.7971 29.9229H142.087C143.561 29.9229 144.751 31.2444 144.751 32.8805C144.751 34.5167 143.561 35.8383 142.087 35.8383Z" fill="#B0BEC5"/>
<path d="M139.069 61.9076H68.2815C66.8076 61.9076 65.6172 60.5861 65.6172 58.9499C65.6172 57.3137 66.8076 55.9922 68.2815 55.9922H139.069C140.543 55.9922 141.733 57.3137 141.733 58.9499C141.733 60.5861 140.543 61.9076 139.069 61.9076Z" fill="#B0BEC5"/>
<path d="M136.049 87.9916H66.7775C65.3037 87.9916 64.1133 86.67 64.1133 85.0339C64.1133 83.3977 65.3037 82.0762 66.7775 82.0762H136.049C137.522 82.0762 138.713 83.3977 138.713 85.0339C138.713 86.67 137.522 87.9916 136.049 87.9916Z" fill="#B0BEC5"/>
<path d="M132.919 114.076H61.8479C60.374 114.076 59.1836 112.754 59.1836 111.118C59.1836 109.482 60.374 108.16 61.8479 108.16H132.919C134.393 108.16 135.583 109.482 135.583 111.118C135.583 112.754 134.393 114.076 132.919 114.076Z" fill="#B0BEC5"/>
<path d="M130.719 140.161H59.2229C57.749 140.161 56.5586 138.839 56.5586 137.203C56.5586 135.567 57.749 134.245 59.2229 134.245H130.719C132.193 134.245 133.383 135.567 133.383 137.203C133.383 138.839 132.193 140.161 130.719 140.161Z" fill="#B0BEC5"/>
<path d="M128.1 166.244H56.5471C55.0732 166.244 53.8828 164.923 53.8828 163.287C53.8828 161.651 55.0732 160.329 56.5471 160.329H128.1C129.574 160.329 130.764 161.651 130.764 163.287C130.764 164.923 129.574 166.244 128.1 166.244Z" fill="#B0BEC5"/>
<path d="M195.059 196.105L283.547 131.256L290.69 126.017L285.971 118.087L271.133 93.1201L268.681 88.9824L264.217 88.8566L120.672 84.6246L117.98 84.5459L115.726 86.1978L101.994 96.2508L94.8516 101.49L99.5707 109.419L142.043 180.86L107.28 206.331L100.138 211.57L104.857 219.499L117.824 241.304L122.543 249.233L129.686 243.994L164.449 218.523L173.958 234.508L178.677 242.437L185.819 237.198L202.159 225.225L209.302 219.986L204.583 212.057L195.074 196.073L195.059 196.105ZM153.069 125.482L213.922 128.203L172.654 158.441L153.055 125.482H153.069Z" fill="#E53935"/>
<path d="M70.5052 237.041C58.3034 237.041 48.4258 248.022 48.4258 261.552C48.4258 275.082 58.3176 286.063 70.5052 286.063H257.288V237.025H70.5052V237.041Z" fill="#B0BEC5"/>
<path style="mix-blend-mode:multiply" d="M70.5052 237.041C58.3034 237.041 48.4258 248.022 48.4258 261.552C48.4258 275.082 58.3176 286.063 70.5052 286.063H257.288V237.025H70.5052V237.041Z" fill="url(#paint3_linear_1042_30301)"/>
<path d="M265.669 284.212C276.953 279.08 282.352 264.764 277.729 252.238C273.106 239.711 260.211 233.717 248.927 238.85C237.643 243.982 232.244 258.297 236.867 270.824C241.49 283.35 254.385 289.344 265.669 284.212Z" fill="#CFD8DC"/>
<path d="M257.286 279.22C266.075 279.22 273.201 271.31 273.201 261.552C273.201 251.795 266.075 243.885 257.286 243.885C248.496 243.885 241.371 251.795 241.371 261.552C241.371 271.31 248.496 279.22 257.286 279.22Z" fill="#B0BEC5"/>
<path style="mix-blend-mode:multiply" d="M257.286 279.22C266.075 279.22 273.201 271.31 273.201 261.552C273.201 251.795 266.075 243.885 257.286 243.885C248.496 243.885 241.371 251.795 241.371 261.552C241.371 271.31 248.496 279.22 257.286 279.22Z" fill="url(#paint4_linear_1042_30301)"/>
<path d="M46.7083 193.384C34.5066 193.384 24.6289 204.365 24.6289 217.895C24.6289 231.425 34.5207 242.406 46.7083 242.406H233.491V193.368H46.7083V193.384Z" fill="#B0BEC5"/>
<path style="mix-blend-mode:multiply" d="M46.7083 193.384C34.5066 193.384 24.6289 204.365 24.6289 217.895C24.6289 231.425 34.5207 242.406 46.7083 242.406H233.491V193.368H46.7083V193.384Z" fill="url(#paint5_linear_1042_30301)"/>
<path d="M249.111 235.24C257.734 225.668 257.734 210.148 249.111 200.576C240.488 191.004 226.509 191.004 217.886 200.576C209.263 210.148 209.263 225.668 217.886 235.24C226.509 244.812 240.488 244.812 249.111 235.24Z" fill="#CFD8DC"/>
<path d="M233.489 235.578C242.278 235.578 249.404 227.668 249.404 217.911C249.404 208.153 242.278 200.243 233.489 200.243C224.699 200.243 217.574 208.153 217.574 217.911C217.574 227.668 224.699 235.578 233.489 235.578Z" fill="#B0BEC5"/>
<path style="mix-blend-mode:multiply" d="M233.489 235.578C242.278 235.578 249.404 227.668 249.404 217.911C249.404 208.153 242.278 200.243 233.489 200.243C224.699 200.243 217.574 208.153 217.574 217.911C217.574 227.668 224.699 235.578 233.489 235.578Z" fill="url(#paint6_linear_1042_30301)"/>
<path d="M22.0794 237.042C9.87765 237.042 0 248.023 0 261.553C0 275.083 9.89182 286.064 22.0794 286.064H208.862V237.026H22.0794V237.042Z" fill="#B0BEC5"/>
<path d="M217.457 284.148C228.688 278.874 233.941 264.491 229.19 252.024C224.439 239.556 211.483 233.725 200.253 238.999C189.022 244.273 183.769 258.656 188.52 271.123C193.271 283.591 206.227 289.422 217.457 284.148Z" fill="#CFD8DC"/>
<path d="M208.86 279.22C217.65 279.22 224.775 271.31 224.775 261.552C224.775 251.795 217.65 243.885 208.86 243.885C200.071 243.885 192.945 251.795 192.945 261.552C192.945 271.31 200.071 279.22 208.86 279.22Z" fill="#B0BEC5"/>
<path style="mix-blend-mode:multiply" d="M208.86 279.22C217.65 279.22 224.775 271.31 224.775 261.552C224.775 251.795 217.65 243.885 208.86 243.885C200.071 243.885 192.945 251.795 192.945 261.552C192.945 271.31 200.071 279.22 208.86 279.22Z" fill="url(#paint7_linear_1042_30301)"/>
<path d="M606.872 237.953V180.121C606.872 176.361 603.641 173.309 599.673 173.309H548.188C544.205 173.309 540.988 176.361 540.988 180.121V237.953C540.988 244.262 544.29 250.162 549.803 253.701L566.214 264.242C570.876 267.231 576.984 267.231 581.647 264.242L598.058 253.701C603.57 250.162 606.872 244.262 606.872 237.953Z" fill="#90A4AE"/>
<path style="mix-blend-mode:multiply" d="M573.483 173.309V203.263C573.483 206.63 575.935 209.352 578.967 209.352C582 209.352 584.452 206.63 584.452 203.263V173.309H573.469H573.483Z" fill="url(#paint8_linear_1042_30301)"/>
<path d="M579.422 58.9492V203.263C579.422 206.63 576.97 209.351 573.938 209.351C570.905 209.351 568.453 206.63 568.453 203.263V58.9492H579.436H579.422Z" fill="#37474F"/>
<path style="mix-blend-mode:multiply" d="M571.188 208.533C571.995 209.052 572.931 209.351 573.937 209.351C576.97 209.351 579.421 206.63 579.421 203.263V58.9492H573.937V203.263C573.937 205.513 572.831 207.479 571.188 208.533Z" fill="url(#paint9_linear_1042_30301)"/>
<path d="M600.638 6.78025V32.8646C600.638 49.2106 588.663 62.5203 573.925 62.5203C559.186 62.5203 547.211 49.2264 547.211 32.8646V6.78025C547.211 4.81369 548.642 3.20898 550.428 3.20898H597.421C599.193 3.20898 600.638 4.79796 600.638 6.78025ZM553.645 32.8646C553.645 45.2775 562.743 55.3778 573.925 55.3778C585.106 55.3778 594.204 45.2775 594.204 32.8646V10.3515H553.631V32.8646H553.645Z" fill="#37474F"/>
<path d="M585.218 0.754883H561.75C560.74 0.754883 559.922 1.66351 559.922 2.78437V10.981C559.922 12.1018 560.74 13.0105 561.75 13.0105H585.218C586.228 13.0105 587.046 12.1018 587.046 10.981V2.78437C587.046 1.66351 586.228 0.754883 585.218 0.754883Z" fill="#FFD740"/>
<path style="mix-blend-mode:multiply" d="M542.889 246.008C544.406 249.076 546.772 251.75 549.805 253.701L566.216 264.242C570.878 267.231 576.986 267.231 581.649 264.242L598.059 253.701C601.106 251.75 603.473 249.076 604.975 246.008C600.44 233.406 588.253 224.376 573.925 224.376C559.598 224.376 547.41 233.406 542.875 246.008H542.889Z" fill="url(#paint10_linear_1042_30301)"/>
<path d="M367.799 277.426C359.338 277.426 355.243 265.658 361.677 259.554C362.669 258.625 363.746 257.807 364.894 257.131C369.514 254.456 375.154 254.252 380.015 256.297C383.147 257.603 386.69 256.816 389.17 254.346C392.84 250.696 398.027 248.73 403.044 248.557C407.862 248.399 412.567 249.595 417.173 251.278C420.914 252.647 425.052 251.168 427.377 247.644C437.297 232.557 453.509 222.976 470.217 219.577C480.322 217.516 491.021 217.516 500.601 221.638C507.786 224.738 514.263 230.401 518.146 237.685C520.102 241.367 524.013 243.27 527.797 242.437C535.067 240.848 543.23 243.805 548.317 249.799C551.237 253.229 555.828 254.252 559.527 251.939C562.829 249.878 566.386 248.462 570.156 248.321C574.464 248.163 578.985 250.224 581.777 253.701C584.03 256.501 587.502 257.587 590.832 257.021C593.397 256.596 596.076 257.052 598.329 258.468C598.372 258.499 598.414 258.515 598.457 258.547C606.492 263.754 602.963 277.504 593.653 277.504L367.799 277.441V277.426Z" fill="#CFD8DC"/>
<path style="mix-blend-mode:multiply" d="M367.799 277.426C359.338 277.426 355.243 265.658 361.677 259.554C362.669 258.625 363.746 257.807 364.894 257.131C369.514 254.456 375.154 254.252 380.015 256.297C383.147 257.603 386.69 256.816 389.17 254.346C392.84 250.696 398.027 248.73 403.044 248.557C407.862 248.399 412.567 249.595 417.173 251.278C420.914 252.647 425.052 251.168 427.377 247.644C437.297 232.557 453.509 222.976 470.217 219.577C480.322 217.516 491.021 217.516 500.601 221.638C507.786 224.738 514.263 230.401 518.146 237.685C520.102 241.367 524.013 243.27 527.797 242.437C535.067 240.848 543.23 243.805 548.317 249.799C551.237 253.229 555.828 254.252 559.527 251.939C562.829 249.878 566.386 248.462 570.156 248.321C574.464 248.163 578.985 250.224 581.777 253.701C584.03 256.501 587.502 257.587 590.832 257.021C593.397 256.596 596.076 257.052 598.329 258.468C598.372 258.499 598.414 258.515 598.457 258.547C606.492 263.754 602.963 277.504 593.653 277.504L367.799 277.441V277.426Z" fill="url(#paint11_linear_1042_30301)"/>
<path d="M607.894 266.76H353.541C351.467 266.76 349.785 268.626 349.785 270.929V281.91C349.785 284.213 351.467 286.079 353.541 286.079H607.894C609.968 286.079 611.649 284.213 611.649 281.91V270.929C611.649 268.626 609.968 266.76 607.894 266.76Z" fill="#455A64"/>
<path d="M39.934 177.927L29.2344 177.95L29.4496 302L40.1492 301.978L39.934 177.927Z" fill="#37474F"/>
<path d="M21.5586 296.825V298.193C21.5586 300.302 23.1033 302.016 25.0165 302.016L44.6159 301.969C46.5149 301.969 48.0596 300.254 48.0596 298.13V296.762L21.5586 296.809V296.825Z" fill="#37474F"/>
<path d="M40.1376 291.082L29.4522 291.098L21.5586 296.824L48.0454 296.761L40.1376 291.082Z" fill="#455A64"/>
<path style="mix-blend-mode:multiply" d="M40.1387 291.082L39.8694 177.935H35.9297L36.1989 291.098L40.0111 296.793V298.162C40.0111 300.27 38.4806 301.985 36.5816 301.985H44.6169C46.5159 301.969 48.0606 300.254 48.0606 298.13V296.762L40.1528 291.067L40.1387 291.082Z" fill="url(#paint12_linear_1042_30301)"/>
<path d="M47.3661 163.634C47.3661 155.752 41.5841 149.364 34.4841 149.38C27.3841 149.38 21.6304 155.799 21.6446 163.681C21.6446 171.563 27.4266 177.95 34.5266 177.934C41.6266 177.934 47.3803 171.515 47.3661 163.634Z" fill="#E53935"/>
<g style="mix-blend-mode:soft-light" opacity="0.5">
<path d="M31.5796 156.664C31.5796 158.158 30.5026 159.354 29.1563 159.37C27.81 159.386 26.7329 158.174 26.7188 156.68C26.7188 155.185 27.7958 153.989 29.1421 153.974C30.4884 153.974 31.5655 155.169 31.5796 156.664Z" fill="white"/>
</g>
<path style="mix-blend-mode:multiply" d="M34.4992 177.935H34.5701C41.6559 177.903 47.3813 171.5 47.3671 163.634C47.3671 161.085 46.7577 158.709 45.6949 156.633L28.207 176.094C30.0635 177.258 32.2034 177.919 34.4851 177.919L34.4992 177.935Z" fill="url(#paint13_linear_1042_30301)"/>
<path d="M629.44 181.69L619.066 181.712L619.273 300.728L629.647 300.706L629.44 181.69Z" fill="#37474F"/>
<path d="M611.624 295.754V297.076C611.624 299.121 613.126 300.789 614.968 300.773L633.986 300.726C635.829 300.726 637.331 299.058 637.317 297.013V295.691L611.609 295.739L611.624 295.754Z" fill="#37474F"/>
<path d="M629.651 290.186L619.278 290.201L611.625 295.755L637.332 295.692L629.651 290.186Z" fill="#455A64"/>
<path style="mix-blend-mode:multiply" d="M629.777 290.185L629.522 181.726H625.695L625.95 290.185L629.649 295.707V297.029C629.649 299.074 628.161 300.742 626.319 300.742H634.113C635.956 300.726 637.458 299.058 637.444 297.013V295.691L629.763 290.169L629.777 290.185Z" fill="url(#paint14_linear_1042_30301)"/>
<path d="M636.663 167.849C636.663 160.203 631.051 154.005 624.164 154.021C617.276 154.021 611.693 160.251 611.707 167.897C611.721 175.543 617.319 181.741 624.206 181.725C631.094 181.725 636.677 175.495 636.663 167.849Z" fill="#E53935"/>
<path style="mix-blend-mode:multiply" d="M624.18 181.741H624.251C631.124 181.709 636.679 175.495 636.665 167.865C636.665 165.395 636.07 163.082 635.049 161.084L618.086 179.963C619.886 181.096 621.969 181.741 624.18 181.741Z" fill="url(#paint15_linear_1042_30301)"/>
<g style="mix-blend-mode:soft-light" opacity="0.5">
<path d="M622.424 161.1C622.424 162.547 621.375 163.711 620.071 163.711C618.767 163.711 617.719 162.547 617.719 161.1C617.719 159.652 618.767 158.488 620.071 158.488C621.375 158.488 622.424 159.652 622.424 161.1Z" fill="white"/>
</g>
<path d="M638.962 181.682L19.9023 183.004L19.9472 208.978L639.007 207.657L638.962 181.682Z" fill="#FFD740"/>
<path d="M46.5685 182.952L23.2136 208.989H19.94L19.9258 194.248L30.0302 182.999L46.5685 182.952Z" fill="#263238"/>
<path d="M77.591 182.89L54.2219 208.927L37.6836 208.958L61.0527 182.937L77.591 182.89Z" fill="#263238"/>
<path d="M108.599 182.826L85.2439 208.863L68.6914 208.895L92.0605 182.858L108.599 182.826Z" fill="#263238"/>
<path d="M139.622 182.764L116.253 208.785L99.7148 208.832L123.07 182.795L139.622 182.764Z" fill="#263238"/>
<path d="M170.63 182.701L147.275 208.723L130.723 208.77L154.092 182.733L170.63 182.701Z" fill="#263238"/>
<path d="M201.65 182.638L178.281 208.659L161.742 208.691L185.097 182.669L201.65 182.638Z" fill="#263238"/>
<path d="M232.657 182.575L209.303 208.597L192.75 208.628L216.119 182.607L232.657 182.575Z" fill="#263238"/>
<path d="M263.681 182.512L240.312 208.533L223.773 208.565L247.128 182.543L263.681 182.512Z" fill="#263238"/>
<path d="M294.689 182.449L271.334 208.471L254.781 208.502L278.15 182.481L294.689 182.449Z" fill="#263238"/>
<path d="M325.708 182.386L302.339 208.407L285.801 208.439L309.156 182.417L325.708 182.386Z" fill="#263238"/>
<path d="M356.716 182.323L333.361 208.345L316.809 208.376L340.178 182.355L356.716 182.323Z" fill="#263238"/>
<path d="M387.739 182.26L364.37 208.281L347.832 208.313L371.187 182.291L387.739 182.26Z" fill="#263238"/>
<path d="M418.747 182.182L395.392 208.219L378.84 208.25L402.209 182.229L418.747 182.182Z" fill="#263238"/>
<path d="M449.767 182.119L426.398 208.156L409.859 208.188L433.228 182.166L449.767 182.119Z" fill="#263238"/>
<path d="M480.776 182.056L457.421 208.093L440.883 208.124L464.238 182.087L480.776 182.056Z" fill="#263238"/>
<path d="M511.798 181.993L488.443 208.015L471.891 208.062L495.26 182.025L511.798 181.993Z" fill="#263238"/>
<path d="M542.818 181.93L519.463 207.951L502.91 207.998L526.265 181.961L542.818 181.93Z" fill="#263238"/>
<path d="M573.825 181.867L550.47 207.889L533.918 207.92L557.287 181.899L573.825 181.867Z" fill="#263238"/>
<path d="M604.849 181.804L581.494 207.825L564.941 207.857L588.296 181.835L604.849 181.804Z" fill="#263238"/>
<path d="M635.857 181.741L612.502 207.763L595.949 207.794L619.318 181.773L635.857 181.741Z" fill="#263238"/>
<path d="M638.989 194.343L639.003 207.7L626.957 207.731L638.989 194.343Z" fill="#263238"/>
<path style="mix-blend-mode:multiply" d="M638.985 194.489L19.9258 195.811L19.9485 208.979L639.008 207.657L638.985 194.489Z" fill="url(#paint16_linear_1042_30301)"/>
</g>
<defs>
<linearGradient id="paint0_linear_1042_30301" x1="350.494" y1="275.491" x2="350.494" y2="-117.033" gradientUnits="userSpaceOnUse">
<stop stop-color="white" stop-opacity="0"/>
<stop offset="1" stop-color="#90A4AE"/>
</linearGradient>
<linearGradient id="paint1_linear_1042_30301" x1="300.424" y1="248.699" x2="329.594" y2="252.35" gradientUnits="userSpaceOnUse">
<stop stop-color="white" stop-opacity="0"/>
<stop offset="1"/>
</linearGradient>
<linearGradient id="paint2_linear_1042_30301" x1="323.892" y1="246.056" x2="260.069" y2="256.588" gradientUnits="userSpaceOnUse">
<stop stop-color="white" stop-opacity="0"/>
<stop offset="1" stop-color="white"/>
</linearGradient>
<linearGradient id="paint3_linear_1042_30301" x1="152.857" y1="221.261" x2="152.857" y2="272.817" gradientUnits="userSpaceOnUse">
<stop stop-color="white" stop-opacity="0"/>
<stop offset="1" stop-color="#B0BEC5"/>
</linearGradient>
<linearGradient id="paint4_linear_1042_30301" x1="297.023" y1="261.552" x2="239.656" y2="261.552" gradientUnits="userSpaceOnUse">
<stop stop-color="white" stop-opacity="0"/>
<stop offset="1" stop-color="#B0BEC5"/>
</linearGradient>
<linearGradient id="paint5_linear_1042_30301" x1="129.06" y1="190.473" x2="129.06" y2="252.239" gradientUnits="userSpaceOnUse">
<stop stop-color="white" stop-opacity="0"/>
<stop offset="1" stop-color="#B0BEC5"/>
</linearGradient>
<linearGradient id="paint6_linear_1042_30301" x1="273.212" y1="217.911" x2="215.845" y2="217.911" gradientUnits="userSpaceOnUse">
<stop stop-color="white" stop-opacity="0"/>
<stop offset="1" stop-color="#B0BEC5"/>
</linearGradient>
<linearGradient id="paint7_linear_1042_30301" x1="248.597" y1="261.552" x2="191.216" y2="261.552" gradientUnits="userSpaceOnUse">
<stop stop-color="white" stop-opacity="0"/>
<stop offset="1" stop-color="#B0BEC5"/>
</linearGradient>
<linearGradient id="paint8_linear_1042_30301" x1="578.967" y1="209.352" x2="578.967" y2="173.309" gradientUnits="userSpaceOnUse">
<stop stop-color="white" stop-opacity="0"/>
<stop offset="1"/>
</linearGradient>
<linearGradient id="paint9_linear_1042_30301" x1="547.011" y1="129.729" x2="612.009" y2="137.645" gradientUnits="userSpaceOnUse">
<stop stop-color="white" stop-opacity="0"/>
<stop offset="1"/>
</linearGradient>
<linearGradient id="paint10_linear_1042_30301" x1="574.209" y1="248.62" x2="567.226" y2="193.138" gradientUnits="userSpaceOnUse">
<stop stop-color="white" stop-opacity="0"/>
<stop offset="1"/>
</linearGradient>
<linearGradient id="paint11_linear_1042_30301" x1="505.321" y1="235.152" x2="432.72" y2="311.945" gradientUnits="userSpaceOnUse">
<stop stop-color="white" stop-opacity="0"/>
<stop offset="1" stop-color="#B0BEC5"/>
</linearGradient>
<linearGradient id="paint12_linear_1042_30301" x1="6.57211" y1="225.103" x2="96.9487" y2="259.508" gradientUnits="userSpaceOnUse">
<stop stop-color="white" stop-opacity="0"/>
<stop offset="1"/>
</linearGradient>
<linearGradient id="paint13_linear_1042_30301" x1="37.7506" y1="151.298" x2="37.8127" y2="180.434" gradientUnits="userSpaceOnUse">
<stop stop-color="white" stop-opacity="0"/>
<stop offset="1"/>
</linearGradient>
<linearGradient id="paint14_linear_1042_30301" x1="597.504" y1="226.958" x2="684.406" y2="260.042" gradientUnits="userSpaceOnUse">
<stop stop-color="white" stop-opacity="0"/>
<stop offset="1"/>
</linearGradient>
<linearGradient id="paint15_linear_1042_30301" x1="627.341" y1="155.877" x2="627.401" y2="184.148" gradientUnits="userSpaceOnUse">
<stop stop-color="white" stop-opacity="0"/>
<stop offset="1"/>
</linearGradient>
<linearGradient id="paint16_linear_1042_30301" x1="204.697" y1="7.58625" x2="422.726" y2="282.88" gradientUnits="userSpaceOnUse">
<stop stop-color="white" stop-opacity="0"/>
<stop offset="1"/>
</linearGradient>
<clipPath id="clip0_1042_30301">
<rect width="639" height="302" fill="white"/>
</clipPath>
</defs>
</svg>
