<svg width="149" height="32" viewBox="0 0 149 32" fill="none" xmlns="http://www.w3.org/2000/svg">
<g clip-path="url(#clip0_324_4421)">
<mask id="mask0_324_4421" style="mask-type:luminance" maskUnits="userSpaceOnUse" x="0" y="0" width="148" height="32">
<path d="M147.944 0.5H0.0703125V31.5H147.944V0.5Z" fill="white"/>
</mask>
<g mask="url(#mask0_324_4421)">
<path d="M101.084 16.0541V10.8167H97.9264V21.1519H100.857L104.278 15.9577V21.1519H107.435V10.8167H104.505L101.084 16.0541ZM82.8704 14.995C82.8704 15.3706 82.6824 16.0964 81.7138 16.0964H80.5956V13.3606H81.8551C82.1903 13.3606 82.8704 13.634 82.8704 14.4414V14.995ZM82.1933 10.8167H77.2634V21.1519H80.5956V18.6148H82.1933C84.3482 18.6148 86.1138 17.4298 86.1138 15.3195V14.11C86.1138 12.0016 84.3482 10.8167 82.1933 10.8167ZM129.405 16.2852C129.405 17.8586 128.991 18.0867 128.394 18.3591C128.135 18.4801 127.43 18.4535 127.43 18.4535V21.1519H128.737C131.542 21.1519 132.578 19.5215 132.621 15.8771C132.631 15.051 132.615 14.2388 132.621 13.512H134.49V21.1519H137.824V10.8167H129.405V16.2852ZM72.7846 17.6747C72.7846 18.3591 72.2245 18.9197 71.5383 18.9197H71.2534C70.5672 18.9197 70.0053 18.3591 70.0053 17.6747V14.3233C70.0053 13.6379 70.5672 13.0803 71.2534 13.0803H71.5383C72.2245 13.0803 72.7846 13.6379 72.7846 14.3233V17.6747ZM72.2117 10.6484H70.58C68.4229 10.6484 66.6571 12.1815 66.6571 14.5584V17.4426C66.6571 19.8322 68.4229 21.3555 70.58 21.3555H72.2117C74.3648 21.3555 76.1334 19.8185 76.1334 17.4426V14.5584C76.1334 12.0547 74.3648 10.6484 72.2117 10.6484ZM118.413 10.8167H114.805L113.046 14.7207H112.227V10.8167H108.891V21.1519H112.227V17.477H113.043L114.843 21.1519H118.668L115.841 15.9381L118.413 10.8167ZM122.543 17.2272H126.299V14.7688H122.543V13.512H126.639V10.8167H119.213V21.1519H126.948V18.4535H122.543V17.2272ZM143.681 18.6059H142.426V16.3501H143.544C144.487 16.3501 144.701 17.0395 144.701 17.4869C144.701 18.4152 143.934 18.6059 143.681 18.6059ZM144.022 13.8307H142.426V10.8167H139.093V21.1519H144.022C146.178 21.1519 147.944 19.963 147.944 17.8556V17.1269C147.944 15.0166 146.178 13.8307 144.022 13.8307ZM93.1342 14.64H90.2911V10.8167H86.9574V21.1519H90.2911V17.477H93.1342V21.1519H96.4679V10.8167H93.1342V14.64ZM62.1929 14.64H59.3505V10.8167H56.017V21.1519H59.3505V17.477H62.1929V21.1519H65.5282V10.8167H62.1929V14.64ZM39.786 24.6075C38.2874 26.1042 36.4683 27.1623 34.4867 27.7209V4.28108C36.4683 4.83866 38.2874 5.89677 39.786 7.39052C42.0891 9.68965 43.3569 12.749 43.3569 15.999C43.3569 19.253 42.0891 22.3103 39.786 24.6075ZM15.6123 17.0375V4.5112L31.1493 14.9675V27.4907L15.6123 17.0375ZM12.2799 27.7209C10.2972 27.1652 8.47723 26.1042 6.97961 24.6075C4.67454 22.3103 3.40369 19.253 3.40369 16.001C3.40369 12.749 4.67454 9.68965 6.97961 7.39052C8.47723 5.89677 10.2972 4.83866 12.2799 4.28108V27.7209ZM31.1493 0.5V10.9553L15.6123 0.500983C7.0289 0.500983 0.0703125 7.44068 0.0703125 16.001C0.0703125 24.5632 7.0289 31.5 15.6123 31.5V21.0447L31.1493 31.5C39.7347 31.5 46.6933 24.5632 46.6933 15.999C46.6933 7.44068 39.7347 0.5 31.1493 0.5Z" fill="white"/>
</g>
</g>
<defs>
<clipPath id="clip0_324_4421">
<rect width="148" height="31" fill="white" transform="translate(0.0703125 0.5)"/>
</clipPath>
</defs>
</svg>
