<svg width="160" height="46" viewBox="0 0 160 46" fill="none" xmlns="http://www.w3.org/2000/svg">
<path d="M54.5807 23.9545H52.5871V22.9128H54.5807C54.9279 22.9128 55.2084 22.8569 55.4223 22.7452C55.6363 22.6336 55.7923 22.48 55.8905 22.2846C55.9922 22.0857 56.043 21.8588 56.043 21.6041C56.043 21.3633 55.9922 21.1382 55.8905 20.9288C55.7923 20.7159 55.6363 20.5449 55.4223 20.4158C55.2084 20.2866 54.9279 20.2221 54.5807 20.2221H52.9922V26.797H51.6719V19.1751H54.5807C55.1734 19.1751 55.6766 19.2798 56.0904 19.4892C56.5077 19.6951 56.825 19.9813 57.0425 20.3477C57.2599 20.7107 57.3686 21.126 57.3686 21.5936C57.3686 22.0857 57.2599 22.5079 57.0425 22.8604C56.825 23.2129 56.5077 23.4833 56.0904 23.6718C55.6766 23.8603 55.1734 23.9545 54.5807 23.9545Z" fill="white"/>
<path d="M61.3173 24.1429L63.2635 19.1751H64.7206L62.0589 25.415C61.9748 25.6069 61.8783 25.7936 61.7696 25.9751C61.6644 26.1531 61.5364 26.3119 61.3856 26.4515C61.2348 26.5911 61.0525 26.7027 60.8386 26.7865C60.6247 26.8668 60.3652 26.9069 60.0601 26.9069C59.9794 26.9069 59.8812 26.9034 59.7655 26.8964C59.6533 26.8894 59.5709 26.8825 59.5183 26.8755L59.5288 25.8442C59.5709 25.8512 59.641 25.8564 59.7392 25.8599C59.8409 25.8634 59.9146 25.8652 59.9601 25.8652C60.1635 25.8652 60.3248 25.832 60.4441 25.7657C60.5633 25.6959 60.658 25.6034 60.7281 25.4883C60.8018 25.3696 60.8666 25.2405 60.9227 25.1009L61.3173 24.1429ZM59.8549 19.1751L61.7801 23.3944L62.1589 24.7659L61.1331 24.8025L58.4137 19.1751H59.8549Z" fill="white"/>
<path d="M70.4997 24.3157H71.8148C71.7727 24.8147 71.6324 25.2597 71.394 25.6505C71.1555 26.0379 70.8206 26.3433 70.3893 26.5666C69.9579 26.79 69.4337 26.9017 68.8165 26.9017C68.3431 26.9017 67.917 26.8179 67.5383 26.6504C67.1596 26.4794 66.8352 26.2386 66.5652 25.928C66.2952 25.6139 66.0883 25.2353 65.9445 24.792C65.8042 24.3488 65.7341 23.8533 65.7341 23.3054V22.672C65.7341 22.1241 65.806 21.6285 65.9497 21.1853C66.097 20.7421 66.3074 20.3634 66.581 20.0493C66.8545 19.7318 67.1824 19.4892 67.5646 19.3217C67.9503 19.1542 68.3834 19.0704 68.8638 19.0704C69.474 19.0704 69.9895 19.1821 70.4103 19.4055C70.8311 19.6288 71.1573 19.9377 71.3887 20.332C71.6237 20.7264 71.7674 21.1783 71.82 21.6878H70.505C70.4699 21.3598 70.3928 21.0788 70.2736 20.845C70.1578 20.6112 69.986 20.4332 69.7581 20.3111C69.5301 20.1854 69.2321 20.1226 68.8638 20.1226C68.5623 20.1226 68.2993 20.1785 68.0748 20.2901C67.8504 20.4018 67.6628 20.5658 67.512 20.7822C67.3612 20.9986 67.2472 21.2655 67.1701 21.5831C67.0964 21.8972 67.0596 22.2567 67.0596 22.6615V23.3054C67.0596 23.6892 67.0929 24.0382 67.1596 24.3523C67.2297 24.6629 67.3349 24.9299 67.4752 25.1532C67.6189 25.3766 67.8013 25.5493 68.0222 25.6715C68.2432 25.7936 68.5079 25.8547 68.8165 25.8547C69.1917 25.8547 69.4951 25.7954 69.7265 25.6767C69.9615 25.5581 70.1385 25.3853 70.2578 25.1585C70.3805 24.9281 70.4612 24.6472 70.4997 24.3157Z" fill="white"/>
<path d="M77.9148 24.3157H79.2299C79.1878 24.8147 79.0475 25.2597 78.809 25.6505C78.5706 26.0379 78.2357 26.3433 77.8044 26.5666C77.373 26.79 76.8488 26.9017 76.2316 26.9017C75.7582 26.9017 75.3321 26.8179 74.9534 26.6504C74.5747 26.4794 74.2503 26.2386 73.9803 25.928C73.7102 25.6139 73.5033 25.2353 73.3596 24.792C73.2193 24.3488 73.1492 23.8533 73.1492 23.3054V22.672C73.1492 22.1241 73.221 21.6285 73.3648 21.1853C73.5121 20.7421 73.7225 20.3634 73.996 20.0493C74.2696 19.7318 74.5974 19.4892 74.9797 19.3217C75.3654 19.1542 75.7985 19.0704 76.2789 19.0704C76.8891 19.0704 77.4046 19.1821 77.8254 19.4055C78.2462 19.6288 78.5723 19.9377 78.8038 20.332C79.0387 20.7264 79.1825 21.1783 79.2351 21.6878H77.9201C77.885 21.3598 77.8079 21.0788 77.6886 20.845C77.5729 20.6112 77.4011 20.4332 77.1732 20.3111C76.9452 20.1854 76.6471 20.1226 76.2789 20.1226C75.9774 20.1226 75.7143 20.1785 75.4899 20.2901C75.2655 20.4018 75.0779 20.5658 74.9271 20.7822C74.7763 20.9986 74.6623 21.2655 74.5852 21.5831C74.5115 21.8972 74.4747 22.2567 74.4747 22.6615V23.3054C74.4747 23.6892 74.508 24.0382 74.5747 24.3523C74.6448 24.6629 74.75 24.9299 74.8903 25.1532C75.034 25.3766 75.2164 25.5493 75.4373 25.6715C75.6582 25.7936 75.923 25.8547 76.2316 25.8547C76.6068 25.8547 76.9101 25.7954 77.1416 25.6767C77.3765 25.5581 77.5536 25.3853 77.6729 25.1585C77.7956 24.9281 77.8763 24.6472 77.9148 24.3157Z" fill="white"/>
<path d="M82.1475 19.1751V26.797H80.8325V19.1751H82.1475ZM86.7554 19.1751L83.6414 23.52H81.7741L81.5952 22.3788H82.9103L85.1406 19.1751H86.7554ZM85.4088 26.797L82.9313 23.3211L83.7834 22.3108L86.9921 26.797H85.4088Z" fill="white"/>
<path d="M91.1091 20.1907L88.821 26.797H87.4375L90.3201 19.1751H91.2038L91.1091 20.1907ZM93.0238 26.797L90.7304 20.1907L90.6304 19.1751H91.5194L94.4125 26.797H93.0238ZM92.9133 23.9702V25.0119H88.7473V23.9702H92.9133Z" fill="white"/>
<path d="M99.7971 23.9388H97.6878L97.1671 23.7241C96.5885 23.5427 96.1449 23.267 95.8363 22.8971C95.5277 22.5271 95.3734 22.0612 95.3734 21.4994C95.3734 20.9968 95.4856 20.5728 95.71 20.2273C95.9345 19.8818 96.2536 19.6201 96.6674 19.4421C97.0847 19.2641 97.5774 19.1751 98.1455 19.1751H100.718V26.797H99.3921V20.2221H98.1455C97.6545 20.2221 97.2898 20.3407 97.0514 20.578C96.8129 20.8154 96.6937 21.1434 96.6937 21.5622C96.6937 21.8484 96.7463 22.0944 96.8515 22.3003C96.9602 22.5027 97.1197 22.6597 97.3301 22.7714C97.5441 22.8796 97.8088 22.9337 98.1244 22.9337H99.7971V23.9388ZM98.1875 23.3525L96.4096 26.797H94.9894L96.7884 23.3525H98.1875Z" fill="white"/>
<path d="M112.494 19.1752V26.797H111.179V20.2221H107.776V26.797H106.461V19.1752H112.494Z" fill="white"/>
<path d="M119.483 19.1752V20.2221H115.812V19.1752H119.483ZM120.493 19.1752V26.797H119.173V19.1752H120.493ZM115.549 19.1752H116.859L116.674 22.9599C116.65 23.5148 116.603 24.0034 116.532 24.4256C116.462 24.8479 116.368 25.2091 116.248 25.5092C116.129 25.8094 115.978 26.0554 115.796 26.2473C115.614 26.4358 115.394 26.5754 115.138 26.6661C114.886 26.7534 114.59 26.797 114.249 26.797H113.913V25.7553L114.118 25.7396C114.304 25.7256 114.463 25.682 114.597 25.6087C114.733 25.5319 114.849 25.4203 114.944 25.2737C115.039 25.1236 115.117 24.9299 115.181 24.6926C115.244 24.4553 115.293 24.1657 115.328 23.8236C115.366 23.4816 115.394 23.0821 115.412 22.6249L115.549 19.1752Z" fill="white"/>
<path d="M125.531 20.1907L123.243 26.797H121.859L124.742 19.1752H125.625L125.531 20.1907ZM127.445 26.797L125.152 20.1907L125.052 19.1752H125.941L128.834 26.797H127.445ZM127.335 23.9702V25.0119H123.169V23.9702H127.335Z" fill="white"/>
<path d="M132.557 19.1752V26.797H131.247V19.1752H132.557ZM134.96 19.1752V20.2221H128.864V19.1752H134.96Z" fill="white"/>
<path d="M137.652 24.656L141.05 19.1752H142.37V26.797H141.05V21.311L137.652 26.797H136.337V19.1752H137.652V24.656Z" fill="white"/>
<path d="M149.391 22.3579V23.3996H145.325V22.3579H149.391ZM145.651 19.1752V26.797H144.331V19.1752H145.651ZM150.406 19.1752V26.797H149.091V19.1752H150.406Z" fill="white"/>
<path d="M155.433 20.1907L153.145 26.797H151.762L154.644 19.1752H155.528L155.433 20.1907ZM157.348 26.797L155.054 20.1907L154.954 19.1752H155.843L158.736 26.797H157.348ZM157.237 23.9702V25.0119H153.071V23.9702H157.237Z" fill="white"/>
<path d="M15.6584 8.14721L23.1207 1.15769C23.1846 1.09786 23.2891 1.14316 23.2891 1.23068V15.0637C23.2891 15.1513 23.1846 15.1966 23.1207 15.1367L15.6584 8.14721ZM15.6584 8.14721V15.6411C15.6584 15.6963 15.6136 15.7411 15.5584 15.7411H8.25213M15.6584 8.14721H8.35213C8.2969 8.14721 8.25213 8.19198 8.25213 8.24721V15.7411M8.25213 15.7411L1.14045 22.8185C1.1016 22.8572 1.10111 22.9199 1.13937 22.9592L8.25213 30.2589M8.25213 15.7411L15.585 22.8175C15.6253 22.8564 15.6258 22.9208 15.5861 22.9603L8.25213 30.2589M8.25213 30.2589V37.5294C8.25213 37.5847 8.2969 37.6294 8.35213 37.6294H15.6584M8.25213 30.2589H15.5584C15.6136 30.2589 15.6584 30.3037 15.6584 30.3589V37.6294M15.6584 37.6294L23.1196 44.8363C23.1831 44.8976 23.2891 44.8526 23.2891 44.7644V30.2761C23.2891 30.1872 23.1816 30.1425 23.1185 30.2053L15.6584 37.6294Z" stroke="white"/>
<path d="M15.6584 8.14721L23.1207 1.15769C23.1846 1.09786 23.2891 1.14316 23.2891 1.23068V15.0637C23.2891 15.1513 23.1846 15.1966 23.1207 15.1367L15.6584 8.14721ZM15.6584 8.14721V15.6411C15.6584 15.6963 15.6136 15.7411 15.5584 15.7411H8.25213M15.6584 8.14721H8.35213C8.2969 8.14721 8.25213 8.19198 8.25213 8.24721V15.7411M8.25213 15.7411L1.14045 22.8185C1.1016 22.8572 1.10111 22.9199 1.13937 22.9592L8.25213 30.2589M8.25213 15.7411L15.585 22.8175C15.6253 22.8564 15.6258 22.9208 15.5861 22.9603L8.25213 30.2589M8.25213 30.2589V37.5294C8.25213 37.5847 8.2969 37.6294 8.35213 37.6294H15.6584M8.25213 30.2589H15.5584C15.6136 30.2589 15.6584 30.3037 15.6584 30.3589V37.6294M15.6584 37.6294L23.1196 44.8363C23.1831 44.8976 23.2891 44.8526 23.2891 44.7644V30.2761C23.2891 30.1872 23.1816 30.1425 23.1185 30.2053L15.6584 37.6294Z" stroke="white"/>
<path d="M30.9197 8.14721L23.4574 1.15769C23.3935 1.09786 23.2891 1.14316 23.2891 1.23068V15.0637C23.2891 15.1513 23.3935 15.1966 23.4574 15.1367L30.9197 8.14721ZM30.9197 8.14721V15.6411C30.9197 15.6963 30.9645 15.7411 31.0197 15.7411H38.326M30.9197 8.14721H38.226C38.2812 8.14721 38.326 8.19198 38.326 8.24721V15.7411M38.326 15.7411L45.4377 22.8185C45.4765 22.8572 45.477 22.9199 45.4388 22.9592L38.326 30.2589M38.326 15.7411L30.9932 22.8175C30.9529 22.8564 30.9524 22.9208 30.9921 22.9603L38.326 30.2589M38.326 30.2589V37.5294C38.326 37.5847 38.2812 37.6294 38.226 37.6294H30.9197M38.326 30.2589H31.0197C30.9645 30.2589 30.9197 30.3037 30.9197 30.3589V37.6294M30.9197 37.6294L23.4585 44.8363C23.3951 44.8976 23.2891 44.8526 23.2891 44.7644V30.2761C23.2891 30.1872 23.3965 30.1425 23.4596 30.2053L30.9197 37.6294Z" stroke="white"/>
<path d="M8.25195 15.7411H15.6582L23.2959 22.8883L23.2889 30.0355L15.6582 37.6294V30.2589L23.2959 22.8883H15.6582L8.25195 15.7411Z" fill="white"/>
<path d="M23.2969 22.8901V15.2868L30.9223 8.14026L30.9331 15.7336L23.2969 22.8901H30.9206L38.3381 30.2614H30.921L23.2969 22.8901Z" fill="white"/>
</svg>
