<svg width="210" height="194" viewBox="0 0 210 194" fill="none" xmlns="http://www.w3.org/2000/svg">
<g opacity="0.1">
<g clip-path="url(#clip0_1042_27642)">
<path d="M227.901 148.776L160.953 81.8283C159.391 80.2662 159.391 77.7336 160.953 76.1715L227.901 9.22365C229.238 7.87027 229.988 6.04451 229.988 4.14209C229.988 2.23968 229.238 0.413914 227.901 -0.939472L194.939 -33.9013C194.273 -34.5703 193.481 -35.101 192.609 -35.4631C191.737 -35.8253 190.802 -36.0117 189.857 -36.0117C188.913 -36.0117 187.978 -35.8253 187.106 -35.4631C186.234 -35.101 185.442 -34.5703 184.776 -33.9013L117.828 33.0465C116.266 34.6086 113.733 34.6086 112.171 33.0465L45.2234 -33.9013C43.8755 -35.2488 42.0477 -36.0057 40.1418 -36.0057C38.236 -36.0057 36.4081 -35.2488 35.0603 -33.9013L2.0984 -0.939472C1.42949 -0.273041 0.89874 0.518894 0.536592 1.39091C0.174443 2.26293 -0.0119781 3.19787 -0.0119781 4.14209C-0.0119781 5.08632 0.174443 6.02126 0.536592 6.89327C0.89874 7.76529 1.42949 8.55722 2.0984 9.22365L69.0462 76.1715C70.6083 77.7336 70.6083 80.2662 69.0462 81.8283L2.0984 148.776C0.750948 150.124 -0.0060065 151.952 -0.0060065 153.858C-0.0060065 155.764 0.750948 157.591 2.0984 158.939L35.0603 191.901C35.7267 192.57 36.5186 193.101 37.3907 193.463C38.2627 193.825 39.1976 194.012 40.1418 194.012C41.0861 194.012 42.021 193.825 42.893 193.463C43.765 193.101 44.557 192.57 45.2234 191.901L112.171 124.953C113.733 123.391 116.266 123.391 117.828 124.953L184.776 191.901C186.124 193.249 187.952 194.006 189.857 194.006C191.763 194.006 193.591 193.249 194.939 191.901L227.901 158.939C228.57 158.273 229.101 157.481 229.463 156.609C229.825 155.737 230.011 154.802 230.011 153.858C230.011 152.913 229.825 151.979 229.463 151.107C229.101 150.235 228.57 149.443 227.901 148.776Z" fill="#D91B1B"/>
</g>
</g>
<defs>
<clipPath id="clip0_1042_27642">
<rect y="-36" width="230" height="230" rx="2" fill="white"/>
</clipPath>
</defs>
</svg>
