<svg width="103" height="50" viewBox="0 0 103 50" fill="none" xmlns="http://www.w3.org/2000/svg">
<path d="M43.7221 9.55161L38.2306 18.5718C37.6318 19.5827 37.721 20.3862 38.0013 21.1509L46.3341 42.8331H11.8178C8.72164 42.8331 6.32626 40.3059 6.32626 37.2991L6.30078 8.42408C6.37723 4.70454 11.7286 4.63974 11.8178 8.41112V35.4718C11.8178 36.3271 12.5568 37.2991 13.5251 37.2732H38.804L32.2677 21.6045C32.0893 21.0083 31.9746 20.4122 31.9746 19.803C31.9746 19.1421 32.2677 18.0793 32.6881 17.224L38.702 7.16695C39.1353 6.25975 40.0399 5.65062 41.1102 5.59878C42.6009 5.54694 43.8878 6.58375 43.9515 8.20376C43.9515 8.52776 43.875 9.22761 43.7221 9.55161Z" fill="white"/>
<path d="M24.6864 27.7735V8.41114C24.6864 4.63976 30.1015 4.61384 30.1652 8.41114V27.9938C30.1652 32.4651 26.8779 35.42 22.8517 35.42C18.8127 35.42 15.5254 32.4003 15.5254 27.9938V8.41114C15.5254 4.63976 21.0042 4.63976 21.0042 8.41114V27.7735C21.0042 30.3785 24.6864 30.534 24.6864 27.7735Z" fill="white"/>
<path d="M59.5846 24.5189V32.4505H57.4059V26.4111H55.8514V29.5474C55.8514 30.6879 55.7368 32.5412 53.0101 32.5412C52.6916 32.5412 52.4495 32.5412 52.1055 32.4505V30.5454C52.2711 30.5842 52.424 30.6231 52.5769 30.6231C53.5452 30.6231 53.6599 30.014 53.6599 28.8865V24.5189H59.5846Z" fill="white"/>
<path d="M62.9605 24.5189L64.4894 27.8497L65.7381 24.5189H68.108L64.6041 32.4505H62.2597L63.3172 30.2602L60.3867 24.5189H62.9605Z" fill="white"/>
<path d="M68.834 24.5189H71.0128V27.8497L73.3699 24.5189H75.9309L72.9622 28.3551L76.0074 32.4505H73.2807L71.0128 29.029V32.4505H68.834V24.5189Z" fill="white"/>
<path d="M87.8944 24.519V29.2753L90.9141 24.519H93.0419V32.4505H90.9395V27.6812L87.9198 32.4505H85.7793V24.519H87.8944ZM91.755 22.8082C91.3345 23.7414 90.3407 24.0783 89.4106 24.0783C88.4932 24.0783 87.4994 23.7414 87.0789 22.8082L88.3276 22.3417C88.5187 22.886 89.0156 23.0026 89.4106 23.0026C89.8183 23.0026 90.3025 22.886 90.5063 22.3417L91.755 22.8082Z" fill="white"/>
<path d="M101.361 24.5189V32.4505H99.1695V26.4111H97.6151V29.5474C97.6151 30.6879 97.5004 32.5412 94.7865 32.5412C94.468 32.5412 94.2132 32.5412 93.8691 32.4505V30.5454C94.0348 30.5842 94.2004 30.6231 94.3533 30.6231C95.3089 30.6231 95.4363 30.014 95.4363 28.8865V24.5189H101.361Z" fill="white"/>
<path fill-rule="evenodd" clip-rule="evenodd" d="M76.0957 28.4848C76.0957 26.3075 77.4718 24.182 80.4023 24.182C83.3201 24.182 84.6961 26.3075 84.6961 28.4848C84.6961 30.662 83.3201 32.7875 80.4023 32.7875C77.4718 32.7875 76.0957 30.662 76.0957 28.4848ZM82.3899 28.4848C82.3899 26.9166 81.4343 26.126 80.4023 26.126C79.3575 26.126 78.4019 26.9166 78.4019 28.4848C78.4019 30.0529 79.3575 30.8305 80.4023 30.8305C81.4343 30.8305 82.3899 30.0529 82.3899 28.4848Z" fill="white"/>
</svg>
